<svg xmlns="http://www.w3.org/2000/svg" width="15.911" height="15.911" viewBox="0 0 15.911 15.911">
    <g data-name="Group 2181">
        <g data-name="Group 2180">
            <path d="M6.433 6.216a.622.622 0 0 0-.622-.622H3.325a.622.622 0 0 0-.622.622v1.115H0v1.243h2.7v1.06a.622.622 0 0 0 .622.622h2.489a.622.622 0 0 0 .622-.622v-1.06h9.478V7.331H6.433zm-1.243 2.8H3.947V6.841H5.19z" data-name="Path 2191"/>
            <path d="M13.394 11.872a.622.622 0 0 0-.622-.622h-2.486a.622.622 0 0 0-.622.622v1.088H0v1.243h9.665v1.088a.622.622 0 0 0 .622.622h2.486a.622.622 0 0 0 .622-.622v-1.088h2.517V12.96h-2.518zm-1.243 2.8h-1.243v-2.175h1.243z" data-name="Path 2192"/>
            <path d="M13.456 1.74V.622A.622.622 0 0 0 12.835 0h-2.487a.622.622 0 0 0-.622.622V1.74H0v1.243h9.727V4.04a.622.622 0 0 0 .622.622h2.486a.622.622 0 0 0 .622-.622V2.983h2.455V1.74zm-1.243 1.678H10.97V1.243h1.243z" data-name="Path 2193"/>
        </g>
    </g>
</svg>
