<svg xmlns="http://www.w3.org/2000/svg" width="23.869" height="23.869" viewBox="0 0 23.869 23.869">
    <g>
        <path d="M44.6 28.495a.746.746 0 0 0 1.273-.527v-5.222a.746.746 0 0 0-.75-.746H39.9a.746.746 0 0 0-.528 1.273l2.083 2.083-2.275 2.275a8.188 8.188 0 0 0-10.495 0l-2.275-2.275 2.083-2.083A.746.746 0 0 0 27.967 22h-5.221a.746.746 0 0 0-.746.746v5.221a.746.746 0 0 0 1.273.527l2.083-2.083 2.275 2.275a8.188 8.188 0 0 0 0 10.495l-2.275 2.275-2.083-2.083A.746.746 0 0 0 22 39.9v5.221a.746.746 0 0 0 .746.746h5.221a.746.746 0 0 0 .528-1.273l-2.083-2.083 2.275-2.275a8.188 8.188 0 0 0 10.495 0l2.275 2.275-2.083 2.089a.746.746 0 0 0 .527 1.273h5.221a.746.746 0 0 0 .746-.746V39.9a.746.746 0 0 0-1.273-.527l-2.083 2.083-2.275-2.275a8.188 8.188 0 0 0 0-10.495l2.275-2.275zm-21.1-5h2.675L23.5 26.17zm0 20.885V41.7l2.675 2.675zm20.885 0H41.7l2.677-2.68zm-10.451-3.733a6.713 6.713 0 1 1 6.713-6.713 6.721 6.721 0 0 1-6.713 6.713zm10.443-17.155v2.675L41.7 23.492z" data-name="Path 2348" transform="translate(-22 -22)"/>
        <path d="M38.98 36.713a4.869 4.869 0 0 0-2.794-3.058 2.984 2.984 0 1 0-4.5 0 4.87 4.87 0 0 0-2.796 3.058.746.746 0 0 0 .716.954h8.656a.746.746 0 0 0 .718-.954zM32.444 31.7a1.492 1.492 0 1 1 1.492 1.492 1.494 1.494 0 0 1-1.494-1.495zm-1.646 4.475a4.046 4.046 0 0 1 6.275 0z" data-name="Path 2349" transform="translate(-22 -22)"/>
    </g>
</svg>
