<svg xmlns="http://www.w3.org/2000/svg" width="15" height="14" viewBox="0 0 15 14">
    <path id="prefix__allotment" d="M18.97 93.133c0 .009-.026.069-.028.081a.64.64 0 0 1-.1.254.594.594 0 0 1-.07.084l-3.12 3.173a.648.648 0 0 1-.084.071.629.629 0 0 1-.25.105c-.012 0-.1.037-.108.039v-3.807zm-.019-1.378H14.503a.718.718 0 0 0-.584.474.612.612 0 0 0-.039.235v4.443c-2.683 0-5.366.008-8.048 0a1.938 1.938 0 0 1-1.861-1.9v-6.98h14.98zm-7.439-2.429a.523.523 0 0 1 .222.054.647.647 0 0 1 .367.513V94.4a.649.649 0 0 1-.754.621.658.658 0 0 1-.494-.621v-2.908l-.183.186a.739.739 0 0 1-.474.185.658.658 0 0 1-.429-1.063l.022-.024 1.248-1.269a.65.65 0 0 1 .475-.181zm7.439-2.568H3.97v-1.917a1.937 1.937 0 0 1 1.86-1.891l1.884-.005v1.909a.624.624 0 1 0 1.248 0v-1.911h1.873v1.913a.624.624 0 1 0 1.248 0v-1.915h1.873v1.911a.661.661 0 0 0 .205.47.646.646 0 0 0 1.043-.47v-1.907l1.884.005a1.937 1.937 0 0 1 1.86 1.9z" transform="translate(-3.97 -82.941)" style="fill-rule:evenodd"/>
</svg>
