<svg xmlns="http://www.w3.org/2000/svg" width="22.446" height="26.935" viewBox="0 0 22.446 26.935">
    <g>
        <path d="M21.64 26.935H4.806A2.81 2.81 0 0 1 2 24.129V2.806A2.81 2.81 0 0 1 4.806 0H21.64a2.81 2.81 0 0 1 2.806 2.806v21.323a2.81 2.81 0 0 1-2.806 2.806zM4.806 1.122a1.685 1.685 0 0 0-1.684 1.684v21.323a1.685 1.685 0 0 0 1.683 1.683H21.64a1.685 1.685 0 0 0 1.683-1.683V2.806a1.685 1.685 0 0 0-1.683-1.684z" data-name="Path 2178" transform="translate(-2)"/>
        <path d="M20.518 13.467h-2.245a.561.561 0 1 1 0-1.122h2.245a.561.561 0 1 1 0 1.122z" data-name="Path 2179" transform="translate(-2)"/>
        <path d="M20.518 10.1h-2.245a.561.561 0 1 1 0-1.122h2.245a.561.561 0 1 1 0 1.122z" data-name="Path 2180" transform="translate(-2)"/>
        <path d="M20.518 16.834h-2.245a.561.561 0 1 1 0-1.122h2.245a.561.561 0 1 1 0 1.122z" data-name="Path 2181" transform="translate(-2)"/>
        <path d="M20.518 20.201h-2.245a.561.561 0 1 1 0-1.122h2.245a.561.561 0 1 1 0 1.122z" data-name="Path 2182" transform="translate(-2)"/>
        <path d="M20.518 23.568H5.928a.561.561 0 1 1 0-1.122h14.59a.561.561 0 1 1 0 1.122z" data-name="Path 2183" transform="translate(-2)"/>
        <path d="M10.978 20.201a5.611 5.611 0 1 1 5.611-5.611 5.618 5.618 0 0 1-5.611 5.611zm0-10.1a4.489 4.489 0 1 0 4.489 4.488 4.494 4.494 0 0 0-4.489-4.489z" data-name="Path 2184" transform="translate(-2)"/>
        <path d="M7.407 18.722a.561.561 0 0 1-.4-.957l3.407-3.407V9.539a.561.561 0 0 1 1.122 0v5.05a.565.565 0 0 1-.164.4l-3.568 3.569a.564.564 0 0 1-.397.164z" data-name="Path 2185" transform="translate(-2)"/>
    </g>
</svg>
