<svg xmlns="http://www.w3.org/2000/svg" width="32" height="28" viewBox="0 0 32 28">
    <defs>
        <linearGradient id="prefix__linear-gradient" x1="1.825" x2="-.439" y1=".551" y2=".534" gradientUnits="objectBoundingBox">
            <stop offset="0" stop-color="#7b79f6"/>
            <stop offset="1" stop-color="#000412"/>
        </linearGradient>
    </defs>
    <path id="prefix__automate_logo" d="M1.144 28a1.064 1.064 0 0 1 0-2.127h9.982a13.706 13.706 0 0 1-2.106-1.665H4.269a1.063 1.063 0 0 1 0-2.126H7.21a14.274 14.274 0 0 1-.626-15.171H1.037a1.064 1.064 0 0 1 0-2.127h7.047a13.839 13.839 0 0 1 3.042-2.658H5.737A1.05 1.05 0 0 1 4.7 1.064 1.051 1.051 0 0 1 5.737 0H18.35A13.844 13.844 0 0 1 32 14a13.844 13.844 0 0 1-13.65 14zm8.738-14a8.751 8.751 0 0 0 3.432 6.978l.058.049c.019.016.047.033.071.049a8.282 8.282 0 0 0 9.814 0c.024-.015.048-.031.071-.049s.039-.031.059-.049A8.751 8.751 0 0 0 26.818 14a8.589 8.589 0 0 0-8.468-8.685A8.589 8.589 0 0 0 9.882 14zm5.507 5.86l1.7-2.344a3.733 3.733 0 0 0 2.488 0l1.7 2.344a6.552 6.552 0 0 1-5.894 0zm5.778-3.593A3.715 3.715 0 0 0 21.938 14v-.094l2.758-.9a6.65 6.65 0 0 1 .075.99 6.546 6.546 0 0 1-1.9 4.613zM11.916 14a6.531 6.531 0 0 1 .075-.99l2.758.9v.094a3.715 3.715 0 0 0 .771 2.27l-1.7 2.344A6.542 6.542 0 0 1 11.916 14zm4.819 0a1.607 1.607 0 1 1 1.607 1.607A1.609 1.609 0 0 1 16.736 14zm2.565-3.574v-2.9a6.588 6.588 0 0 1 4.768 3.465l-2.758.9a3.749 3.749 0 0 0-2.01-1.465zm-6.686.566a6.586 6.586 0 0 1 4.768-3.465v2.9a3.751 3.751 0 0 0-2.011 1.463z"/>
</svg>
