<svg xmlns="http://www.w3.org/2000/svg" width="26.754" height="7.365" viewBox="0 0 26.754 7.365">
    <path id="prefix__Auto" d="M5.471-11.395h1.584l-2.477-7.118H2.827L.355-11.395h1.53l.543-1.727h2.5zm-1.81-5.757H3.7l.913 2.916H2.748zm5.461-1.362h-1.49v4.6c0 1.569 1.159 2.639 2.985 2.639s2.98-1.071 2.98-2.639v-4.6h-1.49v4.455a1.384 1.384 0 0 1-1.49 1.51 1.386 1.386 0 0 1-1.495-1.51zm8.85 7.119v-5.89h2.062v-1.228h-5.609v1.228h2.057v5.89zm5.7-7.242c-2.111 0-3.434 1.416-3.434 3.685s1.322 3.68 3.434 3.68 3.434-1.416 3.434-3.68-1.324-3.685-3.431-3.685zm0 1.243c1.164 0 1.909.947 1.909 2.442s-.745 2.432-1.909 2.432-1.914-.942-1.914-2.432.753-2.442 1.917-2.442z" transform="translate(-.355 18.637)" style="fill:#00165c"/>
</svg>
