<svg xmlns="http://www.w3.org/2000/svg" width="13" height="14" viewBox="0 0 13 14">
    <path d="M.653 14a.663.663 0 0 1-.467-.194.635.635 0 0 1-.186-.462V2.319a.629.629 0 0 1 .191-.451.657.657 0 0 1 .462-.185H1.78v1.028a.63.63 0 0 0 .191.451.657.657 0 0 0 .462.186h4.89a.657.657 0 0 0 .462-.185.63.63 0 0 0 .191-.451V1.684h1.1a.657.657 0 0 1 .462.185.629.629 0 0 1 .191.451v11.045a.629.629 0 0 1-.191.451.657.657 0 0 1-.462.185zm.607-2.013a.21.21 0 0 0-.067.153.21.21 0 0 0 .067.153l.721.7a.207.207 0 0 0 .158.066.207.207 0 0 0 .158-.066l1.465-1.422a.186.186 0 0 0 .078-.137.185.185 0 0 0-.056-.147.219.219 0 0 0-.158-.066.219.219 0 0 0-.158.066l-1.306 1.269-.586-.569a.225.225 0 0 0-.158-.066.226.226 0 0 0-.156.066zm3.2.394a.223.223 0 0 0 .225.219h3.627a.215.215 0 0 0 .163-.06.2.2 0 0 0 .062-.159.223.223 0 0 0-.225-.219H4.685a.214.214 0 0 0-.162.061.2.2 0 0 0-.062.159zm0-1.116a.223.223 0 0 0 .225.219h3.627a.215.215 0 0 0 .163-.06.2.2 0 0 0 .062-.159.223.223 0 0 0-.225-.219H4.685a.214.214 0 0 0-.162.061.205.205 0 0 0-.062.159zM1.216 7.459v2.013a.223.223 0 0 0 .225.219h2.073a.223.223 0 0 0 .225-.219V7.459a.223.223 0 0 0-.225-.219H1.441a.223.223 0 0 0-.224.219zM4.46 9.012a.223.223 0 0 0 .225.219h3.627a.215.215 0 0 0 .163-.06.2.2 0 0 0 .062-.159.223.223 0 0 0-.225-.219H4.685a.214.214 0 0 0-.162.061.205.205 0 0 0-.062.159zm0-1.094a.223.223 0 0 0 .225.219h3.627a.215.215 0 0 0 .163-.06.2.2 0 0 0 .062-.159.223.223 0 0 0-.225-.219H4.685a.214.214 0 0 0-.162.061.205.205 0 0 0-.062.159zM1.216 4.09v2.013a.223.223 0 0 0 .225.219h2.073a.223.223 0 0 0 .225-.219V4.09a.223.223 0 0 0-.225-.219H1.441a.223.223 0 0 0-.224.219zM4.46 5.643a.223.223 0 0 0 .225.219h3.627a.215.215 0 0 0 .163-.06.2.2 0 0 0 .062-.159.223.223 0 0 0-.225-.219H4.685a.214.214 0 0 0-.161.06.2.2 0 0 0-.062.157zm0-1.094a.223.223 0 0 0 .225.219h3.627a.214.214 0 0 0 .163-.06.2.2 0 0 0 .062-.159.223.223 0 0 0-.225-.219H4.685a.214.214 0 0 0-.162.061.2.2 0 0 0-.062.158zm7.187 8.225l-.879-1.881h2.163l-.878 1.881a.217.217 0 0 1-.2.132.26.26 0 0 1-.2-.132zm-.969-2.319V5.1H13v5.359zm-9.034-1.2V7.681h1.622v1.575zm0-3.369V4.311h1.622v1.575zm9.034-1.2v-.875a.687.687 0 0 1 .21-.5.717.717 0 0 1 .511-.2h.9a.7.7 0 0 1 .5.2.668.668 0 0 1 .2.5v.875zm-8.245-1.75a.188.188 0 0 1-.159-.059.179.179 0 0 1-.043-.16v-1.2a.63.63 0 0 1 .192-.451.657.657 0 0 1 .462-.185h.9A1.126 1.126 0 0 1 4.89.008a1.126 1.126 0 0 1 1.1.875h.9a.657.657 0 0 1 .462.185.629.629 0 0 1 .191.451v1.2a.223.223 0 0 1-.225.219z"/>
</svg>
