<svg xmlns="http://www.w3.org/2000/svg" id="prefix__booking_payment_mode" width="24" height="23.67" viewBox="0 0 24 23.67">
    <defs>
        <style>
            .prefix__cls-2{fill:#fea82f}.prefix__cls-4{fill:#ff8031}.prefix__cls-5{fill:#92e0c0}
        </style>
    </defs>
    <path id="prefix__Path_2339" fill="#ececec" d="M48.416 29H33.909V9.527A1.527 1.527 0 0 0 32.382 8h14.507a1.527 1.527 0 0 1 1.527 1.527z" data-name="Path 2339" transform="translate(-30.473 -7.618)"/>
    <g id="prefix__Group_2537" data-name="Group 2537" transform="translate(.382 .382)">
        <path id="prefix__Path_2340" d="M72 387.054h16.034a1.527 1.527 0 0 0 1.527-1.527V384H75.054v1.527a1.527 1.527 0 0 1-1.527 1.527z" class="prefix__cls-2" data-name="Path 2340" transform="translate(-68.946 -366.057)"/>
        <path id="prefix__Path_2341" d="M11.054 12.581H8V9.527A1.527 1.527 0 0 1 9.527 8a1.527 1.527 0 0 1 1.527 1.527z" class="prefix__cls-2" data-name="Path 2341" transform="translate(-8 -8)"/>
    </g>
    <path id="prefix__Path_2342" fill="#b6c1ce" d="M322.672 155.672a3.819 3.819 0 0 0 0 7.285z" data-name="Path 2342" transform="translate(-304.729 -148.243)"/>
    <circle id="prefix__Ellipse_139" cx="4" cy="4" r="4" class="prefix__cls-2" data-name="Ellipse 139" transform="translate(16 5.67)"/>
    <path id="prefix__Path_2343" d="M331.818 203.436a3.818 3.818 0 0 1-3.8-3.436c-.012.126-.019.253-.019.382a3.818 3.818 0 1 0 7.635 0c0-.129-.007-.256-.019-.382a3.818 3.818 0 0 1-3.797 3.436z" class="prefix__cls-4" data-name="Path 2343" transform="translate(-312.347 -190.456)"/>
    <g id="prefix__Group_2538" data-name="Group 2538" transform="translate(0 1.754)">
        <path id="prefix__Rectangle_893" d="M0 0H5V4H0z" class="prefix__cls-5" data-name="Rectangle 893" transform="translate(0 17.916)"/>
        <path id="prefix__Rectangle_894" d="M0 0H11V4H0z" class="prefix__cls-5" data-name="Rectangle 894" transform="translate(5 -.084)"/>
    </g>
    <path id="prefix__Rectangle_895" d="M0 0H4V2H0z" class="prefix__cls-4" data-name="Rectangle 895" transform="translate(0 3.67)"/>
    <path id="prefix__Rectangle_896" fill="#48c397" d="M0 0H5V1H0z" data-name="Rectangle 896" transform="translate(0 22.67)"/>
    <path id="prefix__Path_2344" fill="#f9e0a6" d="M32.382 164.98l-.37-2.96a1.493 1.493 0 0 1-.012-.189v-3.246a1.493 1.493 0 0 1 .012-.189l.318-2.543a1.013 1.013 0 0 1 .31-.663l2.183-2.808a.664.664 0 0 1 .607-.382.769.769 0 0 1 .769.769v.13a.769.769 0 0 1-.143.447l-1.481 2.074a1.523 1.523 0 0 0-.284.887v2.2a1.531 1.531 0 0 0 .161.683l.6 1.2 1.672-1.672a.809.809 0 0 1 .573-.237.81.81 0 0 1 .81.81.809.809 0 0 1-.237.573l-2.817 2.817v2.291z" data-name="Path 2344" transform="translate(-30.473 -144.746)"/>
    <path id="prefix__Path_2345" d="M104 36.963h11.453V32H104zm.764-4.2h9.926V36.2h-9.926z" data-name="Path 2345" transform="translate(-99.037 -30.473)"/>
    <rect id="prefix__Rectangle_897" width="8" data-name="Rectangle 897" transform="translate(7 12.67)"/>
    <path id="prefix__Rectangle_898" d="M0 0H2V1H0z" data-name="Rectangle 898" transform="translate(8 8.67)"/>
    <path id="prefix__Rectangle_899" d="M0 0H3V1H0z" data-name="Rectangle 899" transform="translate(11 8.67)"/>
    <rect id="prefix__Rectangle_900" width="2" data-name="Rectangle 900" transform="translate(8 10.67)"/>
    <rect id="prefix__Rectangle_901" width="3" data-name="Rectangle 901" transform="translate(11 10.67)"/>
    <path id="prefix__Rectangle_902" d="M0 0H6V1H0z" data-name="Rectangle 902" transform="translate(11 14.67)"/>
    <rect id="prefix__Rectangle_903" width="3" data-name="Rectangle 903" transform="translate(14 16.67)"/>
    <rect id="prefix__Rectangle_904" width="2" data-name="Rectangle 904" transform="translate(11 16.67)"/>
    <path id="prefix__Path_2346" d="M385.145 153.527a.382.382 0 0 1 .382.382h.764a1.144 1.144 0 0 0-.764-1.075V152h-.764v.834a1.143 1.143 0 0 0 .382 2.22.382.382 0 1 1-.382.382H384a1.144 1.144 0 0 0 .764 1.075v.834h.764v-.834a1.143 1.143 0 0 0-.382-2.22.382.382 0 0 1 0-.764z" data-name="Path 2346" transform="translate(-365.675 -144.746)"/>
    <path id="prefix__Rectangle_905" d="M0 0H2V1H0z" data-name="Rectangle 905" transform="translate(21 9.67)"/>
    <path id="prefix__Rectangle_906" d="M0 0H1V1H0z" data-name="Rectangle 906" transform="translate(17 9.67)"/>
    <path id="prefix__Path_2347" d="M22.983 12.229a4.194 4.194 0 0 0-4.658-6.339V1.909A1.911 1.911 0 0 0 16.416 0H1.909A1.911 1.911 0 0 0 0 1.909v3.436h3.054v2.844l-1.546 1.988a1.411 1.411 0 0 0-.412.882L.778 13.6a1.965 1.965 0 0 0-.015.237v3.246a1.96 1.96 0 0 0 .015.237l.316 2.531H0v3.819h5.345v-1.909H19.47a1.911 1.911 0 0 0 1.909-1.909v-1.909h-3.054v-3.98a4.178 4.178 0 0 0 4.119-1.072l-.541-.539a3.429 3.429 0 1 1 .441-.542zM.764 4.581V1.909a1.145 1.145 0 0 1 2.291 0v2.672zm.772 12.646a1.188 1.188 0 0 1-.009-.142v-3.246a1.177 1.177 0 0 1 .009-.142l.318-2.543a.671.671 0 0 1 .167-.41L4.27 7.87l.036-.055a.284.284 0 0 1 .27-.18.388.388 0 0 1 .387.387v.13a.387.387 0 0 1-.072.225L3.41 10.452a1.9 1.9 0 0 0-.356 1.109v2.2a1.927 1.927 0 0 0 .2.854l.326.652h-.144v.764h.922l1.784-1.784a.428.428 0 0 1 .731.3.425.425 0 0 1-.125.3l-2.93 2.938v2.067H1.864zm3.045 5.679H.764v-2.29h3.817zm16.034-3.054A1.147 1.147 0 0 1 19.47 21H6.489a1.9 1.9 0 0 0 .383-1.145v-1.148h13.744zm-5.344-9.926a4.2 4.2 0 0 0 2.291 3.736v4.281H6.108v1.909a1.144 1.144 0 0 1-.764 1.075v-1.075h-.763V18.1l2.706-2.7a1.192 1.192 0 0 0-.843-2.034 1.2 1.2 0 0 0-.843.349l-1.3 1.3-.366-.731a1.154 1.154 0 0 1-.121-.512v-2.2a1.139 1.139 0 0 1 .213-.666l1.485-2.085a1.143 1.143 0 0 0 .214-.669v-.13a1.153 1.153 0 0 0-1.15-1.15 1.024 1.024 0 0 0-.758.326V1.909A1.889 1.889 0 0 0 3.426.764h12.99a1.147 1.147 0 0 1 1.145 1.145V6.19a4.2 4.2 0 0 0-2.29 3.736z" data-name="Path 2347"/>
</svg>
