<svg xmlns="http://www.w3.org/2000/svg" id="prefix__checked" width="14.103" height="15.211" viewBox="0 0 14.103 15.211">
    <defs>
        <style>
            .prefix__cls-1{fill:#18a835}
        </style>
    </defs>
    <path id="prefix__Path_1453" d="M29.049 27.568a.5.5 0 0 0-.744-.038.6.6 0 0 0-.035.8l2.675 3.134a.515.515 0 0 0 .372.191h.018a.467.467 0 0 0 .372-.172l6.768-7.283a.585.585 0 0 0 0-.8.5.5 0 0 0-.744 0l-6.378 6.86z" class="prefix__cls-1" data-name="Path 1453" transform="translate(-24.779 -21.319)"/>
    <path id="prefix__Path_1454" d="M22.771 20.232a.544.544 0 0 0-.532.573 6.253 6.253 0 0 1-5.988 6.459 6.253 6.253 0 0 1-5.988-6.459 6.253 6.253 0 0 1 5.988-6.459.575.575 0 0 0 0-1.147A7.364 7.364 0 0 0 9.2 20.806a7.364 7.364 0 0 0 7.051 7.606 7.364 7.364 0 0 0 7.049-7.606.544.544 0 0 0-.529-.574z" class="prefix__cls-1" data-name="Path 1454" transform="translate(-9.2 -13.2)"/>
</svg>
