<svg xmlns="http://www.w3.org/2000/svg" id="prefix__communocation" width="24.998" height="24.998" viewBox="0 0 24.998 24.998">
    <defs>
        <style>
            .prefix__cls-2{fill:#fff}.prefix__cls-5{fill:#fdd38d}
        </style>
    </defs>
    <path id="prefix__Path_1141" fill="#aaa3a3" d="M78.842 9.953A8.643 8.643 0 0 0 73.374 8a9.093 9.093 0 0 0-5.468 1.953A9.808 9.808 0 0 0 64 17.765c0 5.061 5.983 14.43 9.35 14.43 3.263 0 9.4-9.369 9.4-14.43a9.808 9.808 0 0 0-3.908-7.812z" data-name="Path 1141" transform="translate(-60.875 -7.609)"/>
    <ellipse id="prefix__Ellipse_11" cx="7.5" cy="7" class="prefix__cls-2" data-name="Ellipse 11" rx="7.5" ry="7" transform="translate(4.442 2.958)"/>
    <path id="prefix__Path_1142" fill="#fef0d9" d="M234.344 203.906H232v-3.125a.781.781 0 0 1 .781-.781h.781a.781.781 0 0 1 .781.781z" data-name="Path 1142" transform="translate(-220.673 -190.235)"/>
    <path id="prefix__Path_1143" fill="#fcb641" d="M183.812 122.344L179.906 120 176 122.344v.781h1.172v4.687h1.562v-3.125a.781.781 0 0 1 .781-.781h.781a.781.781 0 0 1 .781.781v3.125h1.562v-4.687h1.172z" data-name="Path 1143" transform="translate(-167.407 -114.141)"/>
    <circle id="prefix__Ellipse_12" cx="1" cy="1" r="1" class="prefix__cls-2" data-name="Ellipse 12" transform="translate(11.442 18.958)"/>
    <g id="prefix__Group_401" data-name="Group 401" transform="translate(2.344 19.53)">
        <path id="prefix__Path_1144" d="M432.781 400c.432 0 .781.787.781 1.758s-.35 1.758-.781 1.758-.781-.787-.781-1.758.35-1.758.781-1.758" class="prefix__cls-5" data-name="Path 1144" transform="translate(-413.252 -400)"/>
        <path id="prefix__Path_1145" d="M48.781 400c.432 0 .781.787.781 1.758s-.35 1.758-.781 1.758-.781-.788-.781-1.758.35-1.758.781-1.758" class="prefix__cls-5" data-name="Path 1145" transform="translate(-48 -400)"/>
    </g>
    <path id="prefix__Path_1146" d="M24.607 24.217h-2.343v-.887a2.426 2.426 0 0 0 .781-2.043c0-1.067-.4-2.148-1.172-2.148S20.7 20.22 20.7 21.287a2.427 2.427 0 0 0 .781 2.043v.886h-7.042c3.468-2.357 7.825-9.689 7.825-14.061a10.248 10.248 0 0 0-4.053-8.117A9.005 9.005 0 0 0 12.5 0a9.445 9.445 0 0 0-5.7 2.032 10.25 10.25 0 0 0-4.061 8.124c0 2.9 1.795 6.717 3.475 9.324a16.518 16.518 0 0 0 4.23 4.737H3.515v-.887a2.426 2.426 0 0 0 .785-2.043c0-1.067-.4-2.148-1.172-2.148s-1.175 1.081-1.175 2.148a2.427 2.427 0 0 0 .781 2.043v.886H.391a.391.391 0 0 0 0 .781h24.216a.391.391 0 1 0 0-.781zm-2.734-4.294a1.843 1.843 0 0 1 .391 1.365 1.887 1.887 0 0 1-.382 1.368c-.11-.036-.4-.511-.4-1.368a1.841 1.841 0 0 1 .391-1.366zM3.515 10.155a9.463 9.463 0 0 1 3.751-7.5A8.668 8.668 0 0 1 12.5.781a8.21 8.21 0 0 1 5.217 1.862l.016.012a9.462 9.462 0 0 1 3.751 7.5c0 4.35-5.747 14.039-9.008 14.039-3.099 0-8.961-9.184-8.961-14.039zm-.391 9.767a1.843 1.843 0 0 1 .391 1.365 1.887 1.887 0 0 1-.382 1.368c-.11-.036-.4-.511-.4-1.368a1.841 1.841 0 0 1 .392-1.365z" data-name="Path 1146"/>
    <path id="prefix__Path_1147" d="M118.842 55.421a7.421 7.421 0 1 0-7.421 7.421 7.429 7.429 0 0 0 7.421-7.421zm-14.061 0a6.64 6.64 0 1 1 6.64 6.64 6.647 6.647 0 0 1-6.64-6.64z" data-name="Path 1147" transform="translate(-98.922 -45.656)"/>
    <path id="prefix__Path_1148" d="M168.391 115.915a.39.39 0 0 0 .391-.391v-.56l3.515-2.109 3.515 2.109v.56a.391.391 0 1 0 .781 0v-.781a.39.39 0 0 0-.189-.335l-3.906-2.344a.392.392 0 0 0-.4 0l-3.906 2.344a.39.39 0 0 0-.19.335v.781a.39.39 0 0 0 .389.391z" data-name="Path 1148" transform="translate(-159.798 -106.541)"/>
    <path id="prefix__Path_1149" d="M175.031 189.078h1.169a.391.391 0 0 0 0-.781h-.781v-3.906a.391.391 0 0 0-.781 0v3.909h-.781v-2.734a1.173 1.173 0 0 0-1.172-1.172h-.781a1.173 1.173 0 0 0-1.172 1.172v2.734h-.781v-3.906a.391.391 0 1 0-.781 0v3.906h-.781a.391.391 0 0 0 0 .781h6.64zm-3.515-3.515a.391.391 0 0 1 .391-.391h.781a.391.391 0 0 1 .391.391v2.737h-1.562z" data-name="Path 1149" transform="translate(-159.798 -175.016)"/>
    <path id="prefix__Path_1150" d="M240.391 160a.391.391 0 0 0 0 .781h.781a.391.391 0 1 0 0-.781z" data-name="Path 1150" transform="translate(-228.282 -152.188)"/>
    <path id="prefix__Path_1151" d="M225.953 380.3v-.446a1.555 1.555 0 0 0 0-3.014v-.446a.391.391 0 1 0-.781 0v.446a1.555 1.555 0 0 0 0 3.014v.446a.391.391 0 0 0 .781 0zm-1.172-1.953a.781.781 0 1 1 .781.781.782.782 0 0 1-.781-.784z" data-name="Path 1151" transform="translate(-213.063 -357.642)"/>
</svg>
