<svg xmlns="http://www.w3.org/2000/svg" width="24.853" height="23.369" viewBox="0 0 24.853 23.369">
    <defs>
        <style>
            .prefix__cls-1{fill:#c7d2e5}.prefix__cls-3{fill:#e4eaf8}
        </style>
    </defs>
    <g id="prefix__commitment" transform="translate(0 -.501)">
        <path id="prefix__Path_2350" d="M416.3 167.324a5.139 5.139 0 0 1-.857.411v13.821a.675.675 0 0 1-.675.675h2.9a.791.791 0 0 0 .782-.911zm0 0" class="prefix__cls-1" data-name="Path 2350" transform="translate(-394.637 -158.726)"/>
        <path id="prefix__Path_2351" fill="#bac7db" d="M416.945 181.557V171.51l-.644-4.185a5.136 5.136 0 0 1-.857.411v13.821a.675.675 0 0 1-.675.675h1.5a.675.675 0 0 0 .676-.675zm0 0" data-name="Path 2351" transform="translate(-394.637 -158.726)"/>
        <path id="prefix__Path_2352" d="M26.771 57.99a4.233 4.233 0 0 1-3.667-6.35H8.547a.675.675 0 0 0-.675.675v19.174a.675.675 0 0 0 .675.675H27.72a.675.675 0 0 0 .675-.675V57.667a4.222 4.222 0 0 1-1.624.323zm0 0" class="prefix__cls-3" data-name="Path 2352" transform="translate(-7.49 -48.658)"/>
        <path id="prefix__Path_2353" d="M9.327 71.489V52.316a.675.675 0 0 1 .673-.675H8.546a.675.675 0 0 0-.675.675v19.173a.675.675 0 0 0 .675.675H10a.675.675 0 0 1-.673-.675zm0 0" class="prefix__cls-1" data-name="Path 2353" transform="translate(-7.489 -48.658)"/>
        <path id="prefix__Path_2354" fill="#ff6b6b" d="M22.537 53.757a4.213 4.213 0 0 1 .567-2.116H8.546a.675.675 0 0 0-.675.675v3.557H23.1a4.213 4.213 0 0 1-.567-2.116zm0 0" data-name="Path 2354" transform="translate(-7.489 -48.658)"/>
        <path id="prefix__Path_2355" fill="#ee5253" d="M7.871 55.872h1.456v-3.556A.675.675 0 0 1 10 51.64H8.546a.675.675 0 0 0-.675.675zm0 0" data-name="Path 2355" transform="translate(-7.489 -48.657)"/>
        <path id="prefix__Path_2356" fill="#54a0ff" d="M317.315 11.115l-.807-1.554a4.257 4.257 0 1 0 .807 1.554zm0 0" data-name="Path 2356" transform="translate(-293.961 -7.135)"/>
        <path id="prefix__Path_2357" fill="#338def" d="M310.366 12.257a4.258 4.258 0 0 1 3.554-4.2 4.257 4.257 0 1 0 0 8.4 4.258 4.258 0 0 1-3.555-4.2zm0 0" data-name="Path 2357" transform="translate(-293.964 -7.135)"/>
        <path id="prefix__Path_2358" d="M345.107 24.37a.834.834 0 0 0-1.181 0l-3.4 3.4a.226.226 0 0 1-.319 0l-1.572-1.572a.835.835 0 1 0-1.181 1.181l2.326 2.321a.835.835 0 0 0 1.181 0l4.146-4.146a.835.835 0 0 0 0-1.181zm0 0" class="prefix__cls-3" data-name="Path 2358" transform="translate(-320.845 -22.478)"/>
        <path id="prefix__Path_2359" d="M338.9 63.132a.835.835 0 0 1-.117-1.034l-.147-.147a.835.835 0 1 0-1.181 1.181l2.322 2.322a.835.835 0 0 0 1.181 0l.132-.132zm0 0" class="prefix__cls-1" data-name="Path 2359" transform="translate(-320.843 -58.235)"/>
        <path id="prefix__Path_2360" d="M22.813 1.628l-.259.259a4.6 4.6 0 0 0-7.161.731h-1.275v-.524a.364.364 0 0 0-.728 0v.525h-1.357v-.525a.364.364 0 0 0-.728 0v.525H9.947v-.525a.364.364 0 0 0-.728 0v.525H7.861v-.525a.364.364 0 1 0-.728 0v.525H5.776v-.525a.364.364 0 0 0-.728 0v.525H3.69v-.525a.364.364 0 0 0-.728 0v.525H1.039A1.04 1.04 0 0 0 0 3.657v19.174a1.04 1.04 0 0 0 1.039 1.039h7.694a.364.364 0 1 0 0-.728H1.039a.311.311 0 0 1-.311-.311V7.578h14.665a4.6 4.6 0 0 0 5.13 1.943v13.31a.311.311 0 0 1-.311.311h-9.78a.364.364 0 1 0 0 .728h12.586a1.155 1.155 0 0 0 1.142-1.33l-.891-5.8a.364.364 0 1 0-.72.111l.891 5.8a.426.426 0 0 1-.422.492H21.2a1.1 1.1 0 0 0 .047-.311V9.245l.118-.059.918 5.969a.364.364 0 0 0 .72-.111l-.963-6.283a4.589 4.589 0 0 0 1.7-4.686l.757-.757a1.194 1.194 0 1 0-1.689-1.689zm-7.8 5.221H.728V3.657a.311.311 0 0 1 .311-.311h1.923V4.7a.364.364 0 0 0 .728 0V3.346h1.357V4.7a.364.364 0 0 0 .728 0V3.346h1.358V4.7a.364.364 0 0 0 .728 0V3.346h1.358V4.7a.364.364 0 0 0 .728 0V3.346H11.3V4.7a.364.364 0 0 0 .728 0V3.346h1.362V4.7a.364.364 0 1 0 .728 0V3.346h.894a4.595 4.595 0 0 0 0 3.5zm4.251 2.118A3.87 3.87 0 1 1 22.039 2.4l-2.506 2.508-1.464-1.465a1.194 1.194 0 0 0-1.689 1.689l2.309 2.309a1.194 1.194 0 0 0 1.689 0l2.736-2.735a3.874 3.874 0 0 1-3.85 4.262zM23.987 2.8l-4.124 4.127a.466.466 0 0 1-.659 0l-2.31-2.31a.466.466 0 0 1 .659-.659l1.564 1.564a.59.59 0 0 0 .833 0l3.378-3.378a.466.466 0 0 1 .659 0 .466.466 0 0 1 0 .659zm0 0" data-name="Path 2360"/>
        <path id="prefix__Path_2361" d="M60.184 210.783H74.9a.364.364 0 1 0 0-.728H60.184a.364.364 0 1 0 0 .728zm0 0" data-name="Path 2361" transform="translate(-56.917 -199.383)"/>
        <path id="prefix__Path_2362" d="M60.184 255.376H74.9a.364.364 0 1 0 0-.728H60.184a.364.364 0 1 0 0 .728zm0 0" data-name="Path 2362" transform="translate(-56.917 -241.811)"/>
        <path id="prefix__Path_2363" d="M60.184 299.974H74.9a.364.364 0 1 0 0-.728H60.184a.364.364 0 0 0 0 .728zm0 0" data-name="Path 2363" transform="translate(-56.917 -284.244)"/>
        <path id="prefix__Path_2364" d="M60.184 344.568H74.9a.364.364 0 1 0 0-.728H60.184a.364.364 0 0 0 0 .728zm0 0" data-name="Path 2364" transform="translate(-56.917 -326.674)"/>
        <path id="prefix__Path_2365" d="M60.184 389.166H74.9a.364.364 0 1 0 0-.728H60.184a.364.364 0 1 0 0 .728zm0 0" data-name="Path 2365" transform="translate(-56.917 -369.107)"/>
    </g>
</svg>
