<svg xmlns="http://www.w3.org/2000/svg" width="19.691" height="17.826" viewBox="0 0 19.691 17.826">
    <defs>
        <style>
            .prefix__cls-1{fill:#24c2bd;stroke:#24c2bd;stroke-width:.5px}
        </style>
    </defs>
    <g id="prefix__contract_1_" data-name="contract (1)" transform="translate(.251 .25)">
        <path id="prefix__Path_1831" d="M17.167 0H4.757A1.946 1.946 0 0 0 2.8 1.932l-.08 10.927H.3a.315.315 0 0 0-.3.323v1.5a2.635 2.635 0 0 0 2.486 2.622v.018h10.45v-.02c.078 0 .125.02.178.02h.007a2.627 2.627 0 0 0 2.612-2.641V5.128h3.155a.318.318 0 0 0 .3-.327V2.042A2.038 2.038 0 0 0 17.167 0zM2.622 16.7a2.014 2.014 0 0 1-2-2.019V13.48h9.868v1.2a2.63 2.63 0 0 0 .768 1.867 1.116 1.116 0 0 1 .164.158zm12.49-2.019a2.007 2.007 0 0 1-1.99 2.019h-.006a2.019 2.019 0 0 1-2-2.024v-1.5a.322.322 0 0 0-.311-.323H3.346l.08-10.925A1.324 1.324 0 0 1 4.757.622H15.7a2.121 2.121 0 0 0-.588 1.429zm3.457-12.634v2.459h-2.836V2.05A1.439 1.439 0 0 1 17.158.622h.009a1.417 1.417 0 0 1 1.4 1.423zm0 0" class="prefix__cls-1" data-name="Path 1831"/>
        <path id="prefix__Path_1832" d="M163.962 59.143l1.6 1.1a.306.306 0 0 0 .347 0l1.6-1.1a2.414 2.414 0 0 0 .965-1.841v-2.217a.3.3 0 0 0-.166-.279l-2.44-1.2a.305.305 0 0 0-.272 0l-2.435 1.2a.3.3 0 0 0-.165.279V57.3a2.414 2.414 0 0 0 .966 1.843zm-.344-3.867l2.117-1.045 2.117 1.048V57.3a1.791 1.791 0 0 1-.694 1.328l-1.427.976-1.421-.976a1.79 1.79 0 0 1-.692-1.328zm0 0" class="prefix__cls-1" data-name="Path 1832" transform="translate(-156.664 -51.493)"/>
        <path id="prefix__Path_1833" d="M202.257 117.9a.31.31 0 0 0 .22.093.311.311 0 0 0 .22-.092l1.236-1.237a.311.311 0 0 0-.439-.44l-1.016 1.015-.406-.41a.311.311 0 0 0-.442.438zm0 0" class="prefix__cls-1" data-name="Path 1833" transform="translate(-193.712 -111.618)"/>
        <path id="prefix__Path_1834" d="M140.77 248h-7.459a.311.311 0 1 0 0 .622h7.459a.311.311 0 1 0 0-.622zm0 0" class="prefix__cls-1" data-name="Path 1834" transform="translate(-127.834 -238.366)"/>
        <path id="prefix__Path_1835" d="M140.77 285h-7.459a.311.311 0 0 0 0 .622h7.459a.311.311 0 0 0 0-.622zm0 0" class="prefix__cls-1" data-name="Path 1835" transform="translate(-127.834 -273.928)"/>
    </g>
</svg>
