<svg xmlns="http://www.w3.org/2000/svg" width="71" height="71" viewBox="0 0 71 71">
    <defs>
        <linearGradient id="prefix__linear-gradient" x1=".5" x2=".5" y2="1" gradientUnits="objectBoundingBox">
            <stop offset="0" stop-color="#6100ed"/>
            <stop offset="1" stop-color="#310077"/>
        </linearGradient>
        <filter id="prefix__Ellipse_36" width="71" height="71" x="0" y="0" filterUnits="userSpaceOnUse">
            <feOffset dy="4"/>
            <feGaussianBlur result="blur" stdDeviation="2.5"/>
            <feFlood flood-opacity=".2"/>
            <feComposite in2="blur" operator="in"/>
            <feComposite in="SourceGraphic"/>
        </filter>
    </defs>
    <g id="prefix__create_new_FAB" transform="translate(-4322.5 -1017.5)">
        <g filter="url(#prefix__Ellipse_36)" transform="translate(4322.5 1017.5)">
            <circle id="prefix__Ellipse_36-2" cx="28" cy="28" r="28" fill="#fff" data-name="Ellipse 36" transform="translate(7.5 3.5)"/>
        </g>
        <path id="prefix__more_4_" fill="url(#prefix__linear-gradient)" d="M28 0a28 28 0 1 0 28 28A28.031 28.031 0 0 0 28 0zm12.25 30.333h-9.917v9.917a2.333 2.333 0 1 1-4.666 0v-9.917H15.75a2.333 2.333 0 1 1 0-4.666h9.917V15.75a2.333 2.333 0 1 1 4.666 0v9.917h9.917a2.333 2.333 0 1 1 0 4.666zm0 0" data-name="more (4)" transform="translate(4330 1021)"/>
    </g>
</svg>
