<svg xmlns="http://www.w3.org/2000/svg" width="26" height="26" viewBox="0 0 26 26">
    <defs>
        <style>
            .prefix__cls-1{fill:#edf4fc}.prefix__cls-3{fill:#f9d0b4}.prefix__cls-4{fill:#70d6f9}.prefix__cls-5{fill:#f5c84c}.prefix__cls-6{fill:#87d147}
        </style>
    </defs>
    <g id="prefix__customer_profile" transform="translate(-28 -351)">
        <path id="prefix__Path_1976" d="M130.064 27.548a2.952 2.952 0 0 1-2.955-2.955 2.984 2.984 0 0 1 .112-.792h-7.3a.52.52 0 0 0-.518.518v16.432a.52.52 0 0 0 .518.518h11.223a.52.52 0 0 0 .518-.518V27.08a2.953 2.953 0 0 1-1.598.468z" class="prefix__cls-1" data-name="Path 1976" transform="translate(-79.273 329.617)"/>
        <path id="prefix__Path_1977" fill="#818182" d="M46.537 27.162h-.112a2.221 2.221 0 0 0-1.127.315 2.195 2.195 0 0 0-1.889-1.077h-1.128a4 4 0 0 0-3.981 3.981v1.777a1.588 1.588 0 0 1 1.249-.335v-.183a.2.2 0 0 1 .2-.2h.041a4.193 4.193 0 0 0 4.184-1.371.209.209 0 0 1 .295-.03c.01 0 .01.01.02.01a3.774 3.774 0 0 0 2.245.965z" data-name="Path 1977" transform="translate(-6.41 327.281)"/>
        <path id="prefix__Path_1978" d="M57.677 62.726a3.741 3.741 0 0 1-2.245-.965.208.208 0 0 0-.295 0c-.01.01-.01.01-.01.02a4.171 4.171 0 0 1-4.184 1.371.208.208 0 0 0-.244.162v3.138a3.845 3.845 0 0 0 6.977 2.234z" class="prefix__cls-3" data-name="Path 1978" transform="translate(-17.551 295.566)"/>
        <path id="prefix__Path_1979" d="M193.961 207.538h-.223v-.238a.3.3 0 1 0-.609 0v.223h-.229a.3.3 0 1 0 0 .609h.223v.223a.3.3 0 1 0 .609 0v-.223h.223a.306.306 0 0 0 .3-.3.291.291 0 0 0-.294-.294z" class="prefix__cls-4" data-name="Path 1979" transform="translate(-145.039 165.023)"/>
        <circle id="prefix__Ellipse_71" cx=".325" cy=".325" r=".325" class="prefix__cls-4" data-name="Ellipse 71" transform="translate(33.383 351.427)"/>
        <circle id="prefix__Ellipse_72" cx=".325" cy=".325" r=".325" class="prefix__cls-5" data-name="Ellipse 72" transform="translate(52.172 372.45)"/>
        <circle id="prefix__Ellipse_73" cx=".325" cy=".325" r=".325" class="prefix__cls-6" data-name="Ellipse 73" transform="translate(46.992 374.685)"/>
        <path id="prefix__Path_1980" d="M29.655 19.855a1 1 0 0 1-.8-.782c0-.01-.01-.02-.02-.01a.01.01 0 0 0-.01.01.984.984 0 0 1-.8.782.022.022 0 0 0-.02.02c0 .01.01.01.02.02a1 1 0 0 1 .8.782c0 .01.01.02.02.01a.01.01 0 0 0 .01-.01.984.984 0 0 1 .8-.782.02.02 0 0 0 0-.041z" class="prefix__cls-5" data-name="Path 1980" transform="translate(2.844 333.877)"/>
        <path id="prefix__Path_1981" fill="#fc657e" d="M36.648 132.548a.707.707 0 0 1-.559-.538.01.01 0 0 0-.01-.01c-.01 0-.01 0-.01.01a.694.694 0 0 1-.559.538.01.01 0 0 0-.01.01c0 .01 0 .01.01.01a.707.707 0 0 1 .559.538.01.01 0 0 0 .01.01c.01 0 .01 0 .01-.01a.694.694 0 0 1 .559-.538c.01 0 0-.01 0-.02z" data-name="Path 1981" transform="translate(-3.895 232.406)"/>
        <path id="prefix__Path_1982" d="M34.164 82.53v-2.915a1.61 1.61 0 0 0-.518 3.179 1.537 1.537 0 0 0 .528 0 2.3 2.3 0 0 1-.01-.264z" class="prefix__cls-3" data-name="Path 1982" transform="translate(-1.015 279.489)"/>
        <path id="prefix__Path_1983" fill="#ffb300" d="M19.563 146.915h-4.692a.52.52 0 0 1-.518-.518v-3.067l-.538-.264a1.24 1.24 0 0 1-.691-1.117v-.549a3.805 3.805 0 0 1-3.8 0v.548a1.24 1.24 0 0 1-.691 1.117l-.9.447a3.4 3.4 0 0 1-.7.254l-2.844.711a1.635 1.635 0 0 0-1.229 1.493l-.477 6.063a.692.692 0 0 0 .63.741h16.176a.691.691 0 0 0 .691-.691v-.051z" data-name="Path 1983" transform="translate(25.774 223.961)"/>
        <path id="prefix__Path_1984" d="M62.978 143.43l-.538-.264a1.24 1.24 0 0 1-.691-1.117v-.549a3.805 3.805 0 0 1-3.8 0v.548a1.24 1.24 0 0 1-.691 1.117l-.66.325a3.837 3.837 0 0 0 6.378.183z" class="prefix__cls-3" data-name="Path 1984" transform="translate(-22.852 223.871)"/>
        <path id="prefix__Path_1985" d="M73.082 116.426a2.015 2.015 0 0 1-1.716-.945.262.262 0 0 1 .081-.355.253.253 0 0 1 .355.081 1.517 1.517 0 0 0 2.57 0 .258.258 0 0 1 .437.274 2.069 2.069 0 0 1-1.727.945z" data-name="Path 1985" transform="translate(-36.084 247.604)"/>
        <circle id="prefix__Ellipse_74" cx=".457" cy=".457" r=".457" data-name="Ellipse 74" transform="translate(34.886 360.404)"/>
        <circle id="prefix__Ellipse_75" cx=".457" cy=".457" r=".457" data-name="Ellipse 75" transform="translate(38.278 360.404)"/>
        <path id="prefix__Path_1986" d="M31.669 80.827a1.864 1.864 0 0 1-.01-3.727c.1 0 .2.01.3.02a.253.253 0 0 1 .213.254v2.915a2.125 2.125 0 0 0 .01.244.246.246 0 0 1-.213.264 1.55 1.55 0 0 1-.3.03zm0-3.22a1.351 1.351 0 1 0 0 2.7v-2.7z" data-name="Path 1986" transform="translate(1.227 281.73)"/>
        <path id="prefix__Path_1987" d="M17.063 150.933H.945a.943.943 0 0 1-.945-.945v-.071l.477-6.063a1.871 1.871 0 0 1 1.423-1.717l2.844-.711a3.825 3.825 0 0 0 .65-.234l.9-.447a.964.964 0 0 0 .548-.884v-.548a.251.251 0 0 1 .254-.254.241.241 0 0 1 .122.03 3.562 3.562 0 0 0 3.545 0 .251.251 0 0 1 .345.091.27.27 0 0 1 .03.122v.548a.982.982 0 0 0 .548.884l.538.264a.244.244 0 0 1 .142.223v3.067a.262.262 0 0 0 .264.264h4.692a.255.255 0 0 1 .254.234l.406 5.129a.944.944 0 0 1-.863 1.016h-.061zm-9.71-11.213v.132a1.49 1.49 0 0 1-.833 1.341l-.9.447a3.165 3.165 0 0 1-.752.274l-2.844.711a1.354 1.354 0 0 0-1.036 1.259l-.477 6.073a.439.439 0 0 0 .4.467h16.152a.433.433 0 0 0 .437-.437v-.03l-.386-4.9h-4.459a.772.772 0 0 1-.772-.772v-2.9l-.4-.193a1.483 1.483 0 0 1-.833-1.341v-.132a4.145 4.145 0 0 1-3.297.001z" data-name="Path 1987" transform="translate(28 226.067)"/>
        <path id="prefix__Path_1988" d="M57.629 143.346a4.077 4.077 0 0 1-3.463-1.909.262.262 0 0 1 .081-.355.035.035 0 0 0 .02-.01l.66-.325a.964.964 0 0 0 .548-.884v-.548a.251.251 0 0 1 .254-.254.241.241 0 0 1 .122.03 3.562 3.562 0 0 0 3.545 0 .251.251 0 0 1 .345.091.271.271 0 0 1 .03.122v.548a.982.982 0 0 0 .548.884l.538.264a.243.243 0 0 1 .142.223v.234a.3.3 0 0 1-.051.152 4.06 4.06 0 0 1-3.319 1.737zm-2.874-1.96a3.585 3.585 0 0 0 5.748 0l-.4-.193a1.483 1.483 0 0 1-.833-1.341v-.132a4.038 4.038 0 0 1-3.291 0v.132a1.49 1.49 0 0 1-.833 1.341z" data-name="Path 1988" transform="translate(-20.631 226.067)"/>
        <circle id="prefix__Ellipse_76" cx="2.955" cy="2.955" r="2.955" class="prefix__cls-6" data-name="Ellipse 76" transform="translate(47.835 351.254)"/>
        <path id="prefix__Path_1989" d="M208.645 22.465l-.9-.9a.51.51 0 1 1 .711-.731l.01.01.548.548 1.148-1.148a.51.51 0 0 1 .731.711l-.01.01-1.5 1.5a.515.515 0 0 1-.738 0z" class="prefix__cls-1" data-name="Path 1989" transform="translate(-158.504 332.953)"/>
        <path id="prefix__Path_1990" d="M196.009 6.419a3.209 3.209 0 1 1 3.209-3.209 3.21 3.21 0 0 1-3.209 3.209zm0-5.911a2.7 2.7 0 1 0 2.7 2.7 2.7 2.7 0 0 0-2.7-2.7z" data-name="Path 1990" transform="translate(-145.219 351)"/>
        <path id="prefix__Path_1991" d="M206.763 20.624a.761.761 0 0 1-.538-.223l-.9-.9a.761.761 0 0 1 1.056-1.1l.02.02.366.366.965-.965a.761.761 0 1 1 1.1 1.056l-.02.02-1.5 1.5a.761.761 0 0 1-.549.226zm-.183-.579a.245.245 0 0 0 .183.071.292.292 0 0 0 .183-.071l1.5-1.5a.245.245 0 0 0 0-.355.265.265 0 0 0-.355 0l-1.148 1.148a.245.245 0 0 1-.355 0l-.548-.548a.265.265 0 0 0-.355 0 .245.245 0 0 0 0 .355z" data-name="Path 1991" transform="translate(-156.257 335.2)"/>
        <path id="prefix__Path_1992" d="M128.895 39.266h-11.223a.772.772 0 0 1-.772-.772V22.072a.772.772 0 0 1 .772-.772h7.3a.251.251 0 0 1 .254.254.173.173 0 0 1-.01.071 2.7 2.7 0 0 0 4.063 3 .262.262 0 0 1 .355.081.223.223 0 0 1 .041.132V38.5a.785.785 0 0 1-.78.766zm-11.223-17.458a.262.262 0 0 0-.264.264V38.5a.262.262 0 0 0 .264.264h11.223a.262.262 0 0 0 .264-.264V25.261a3.205 3.205 0 0 1-4.255-1.574 3.147 3.147 0 0 1-.244-1.879z" data-name="Path 1992" transform="translate(-77.027 331.863)"/>
        <path id="prefix__Path_1993" d="M36.054 30.166a.251.251 0 0 1-.254-.254v-1.777a4.246 4.246 0 0 1 4.235-4.235h1.127a2.468 2.468 0 0 1 1.97 1 2.459 2.459 0 0 1 1.168-.234.264.264 0 0 1 .244.254v3.839a.251.251 0 0 1-.254.254h-.03a4.022 4.022 0 0 1-2.356-1 4.423 4.423 0 0 1-4.337 1.442v.122a.251.251 0 0 1-.254.254h-.041a1.515 1.515 0 0 0-.213-.02 1.331 1.331 0 0 0-.843.295.231.231 0 0 1-.162.061zm3.981-5.759a3.736 3.736 0 0 0-3.727 3.727v1.33a1.718 1.718 0 0 1 .752-.152.452.452 0 0 1 .538-.355 3.949 3.949 0 0 0 3.941-1.29.456.456 0 0 1 .65-.071.14.14 0 0 0 .041.03 3.314 3.314 0 0 0 1.818.843V25.18a1.8 1.8 0 0 0-.853.274.251.251 0 0 1-.345-.091 1.975 1.975 0 0 0-1.666-.955z" data-name="Path 1993" transform="translate(-4.164 329.527)"/>
        <path id="prefix__Path_1994" d="M52.3 68.387a4.1 4.1 0 0 1-4.1-4.1v-3.111a.433.433 0 0 1 .173-.355.448.448 0 0 1 .386-.091 3.9 3.9 0 0 0 3.92-1.28.456.456 0 0 1 .65-.071.14.14 0 0 0 .041.03 3.489 3.489 0 0 0 2.1.894.253.253 0 0 1 .223.254v5.972a.3.3 0 0 1-.051.152 4.194 4.194 0 0 1-3.342 1.706zm-3.6-7.15v3.037a3.6 3.6 0 0 0 6.48 2.153v-5.668a3.908 3.908 0 0 1-2.133-.965 4.444 4.444 0 0 1-4.347 1.442z" data-name="Path 1994" transform="translate(-15.305 297.746)"/>
        <path id="prefix__Path_1995" d="M163.809 68.808h-3.555a.254.254 0 0 1 0-.508h3.555a.254.254 0 0 1 0 .508z" data-name="Path 1995" transform="translate(-115.75 289.637)"/>
        <path id="prefix__Path_1996" d="M157.435 88.808h-6.581a.254.254 0 0 1 0-.508h6.581a.254.254 0 0 1 0 .508z" data-name="Path 1996" transform="translate(-107.305 271.668)"/>
        <path id="prefix__Path_1997" d="M157.435 101.508h-6.581a.254.254 0 0 1 0-.508h6.581a.254.254 0 0 1 0 .508z" data-name="Path 1997" transform="translate(-107.305 260.258)"/>
        <path id="prefix__Path_1998" d="M157.435 114.208h-6.581a.254.254 0 0 1 0-.508h6.581a.254.254 0 0 1 0 .508z" data-name="Path 1998" transform="translate(-107.305 248.848)"/>
        <path id="prefix__Path_1999" d="M157.435 126.908h-6.581a.254.254 0 0 1 0-.508h6.581a.251.251 0 0 1 .254.254.258.258 0 0 1-.254.254z" data-name="Path 1999" transform="translate(-107.305 237.438)"/>
        <path id="prefix__Path_2000" d="M157.435 139.508h-6.581a.254.254 0 1 1 0-.508h6.581a.254.254 0 0 1 0 .508z" data-name="Path 2000" transform="translate(-107.305 226.117)"/>
        <path id="prefix__Path_2001" d="M157.435 152.208h-6.581a.254.254 0 0 1 0-.508h6.581a.254.254 0 0 1 0 .508z" data-name="Path 2001" transform="translate(-107.305 214.707)"/>
        <path id="prefix__Path_2002" d="M137.947 88.808h-.193a.254.254 0 0 1 0-.508h.193a.254.254 0 0 1 0 .508z" data-name="Path 2002" transform="translate(-95.535 271.668)"/>
        <path id="prefix__Path_2003" d="M137.947 101.508h-.193a.254.254 0 0 1 0-.508h.193a.254.254 0 0 1 0 .508z" data-name="Path 2003" transform="translate(-95.535 260.258)"/>
        <path id="prefix__Path_2004" d="M137.947 114.208h-.193a.254.254 0 0 1 0-.508h.193a.254.254 0 0 1 0 .508z" data-name="Path 2004" transform="translate(-95.535 248.848)"/>
        <path id="prefix__Path_2005" d="M137.947 126.908h-.193a.254.254 0 0 1 0-.508h.193a.251.251 0 0 1 .254.254.258.258 0 0 1-.254.254z" data-name="Path 2005" transform="translate(-95.535 237.438)"/>
        <path id="prefix__Path_2006" d="M137.947 139.508h-.193a.254.254 0 0 1 0-.508h.193a.254.254 0 0 1 0 .508z" data-name="Path 2006" transform="translate(-95.535 226.117)"/>
        <path id="prefix__Path_2007" d="M137.947 152.208h-.193a.254.254 0 0 1 0-.508h.193a.254.254 0 0 1 0 .508z" data-name="Path 2007" transform="translate(-95.535 214.707)"/>
        <path id="prefix__Path_2008" d="M30.754 213.918a.251.251 0 0 1-.254-.254v-3.91a.254.254 0 0 1 .508 0v3.91a.251.251 0 0 1-.254.254z" data-name="Path 2008" transform="translate(.598 162.777)"/>
        <path id="prefix__Path_2009" d="M142.754 213.918a.251.251 0 0 1-.254-.254v-3.91a.254.254 0 0 1 .508 0v3.91a.251.251 0 0 1-.254.254z" data-name="Path 2009" transform="translate(-100.027 162.777)"/>
    </g>
</svg>
