<svg xmlns="http://www.w3.org/2000/svg" width="28.957" height="28.957" viewBox="0 0 28.957 28.957">
    <defs>
        <style>
            .prefix__cls-3{fill:#f0d0b4}.prefix__cls-7{fill:#3bafda}.prefix__cls-8{fill:#ffcd04}
        </style>
    </defs>
    <g id="prefix__customer_need_analysis_" data-name="customer_need_analysis" transform="translate(-27 -414)">
        <g id="prefix__Group_1826" data-name="Group 1826" transform="translate(27.467 414.467)">
            <g id="prefix__Group_1810" data-name="Group 1810">
                <path id="prefix__Path_2010" fill="#e6e9ed" d="M14.143 2.467v13.544a.941.941 0 0 0-.934.934v-.934a.941.941 0 0 0-.934-.934.937.937 0 0 0-.934.934.937.937 0 0 0-.934-.934.941.941 0 0 0-.934.934v-3.736a.937.937 0 0 0-.934-.934.941.941 0 0 0-.934.934v5.465a1.074 1.074 0 0 1-1.075 1.074 1.049 1.049 0 0 1-.6-.182l-.556-.369a2.3 2.3 0 0 0-1.266-.383 1.164 1.164 0 0 0-.831.346 1.2 1.2 0 0 0-.322.588h-.49A.468.468 0 0 1 2 18.347V2.467A.468.468 0 0 1 2.467 2h11.209a.468.468 0 0 1 .467.467z" data-name="Path 2010" transform="translate(-2 -2)"/>
            </g>
            <g id="prefix__Group_1811" data-name="Group 1811" transform="translate(3.736 4.67)">
                <path id="prefix__Path_2011" fill="#ff826e" d="M14.67 14.335v.465H10v-.467a2.335 2.335 0 1 1 4.67 0z" data-name="Path 2011" transform="translate(-10 -12)"/>
            </g>
            <g id="prefix__Group_1812" data-name="Group 1812" transform="translate(4.67 1.868)">
                <circle id="prefix__Ellipse_77" cx="1.5" cy="1.5" r="1.5" class="prefix__cls-3" data-name="Ellipse 77" transform="translate(-.138 -.335)"/>
            </g>
            <g id="prefix__Group_1813" data-name="Group 1813" transform="translate(14.946 6.539)">
                <path id="prefix__Path_2012" fill="#656d78" d="M44.854 23.015a1.368 1.368 0 0 0-1.046-.476h-.467V21.6a.937.937 0 0 0-.934-.934H38.67a.937.937 0 0 1-.934-.934 1.868 1.868 0 0 0-1.868 1.868v.934H35.4a1.368 1.368 0 0 0-1.046.476l-.023-.1A10.766 10.766 0 0 1 34 20.259a2.465 2.465 0 0 1 1.868-2.391A2.465 2.465 0 0 1 38.259 16h6.016a.937.937 0 0 1 .934.934v3.325a10.766 10.766 0 0 1-.327 2.648l-.023.1z" data-name="Path 2012" transform="translate(-34 -16)"/>
            </g>
            <g id="prefix__Group_1814" data-name="Group 1814" transform="translate(18.682 22.418)">
                <path id="prefix__Path_2013" fill="#fcd770" d="M44.335 50l1.4 5.6H42l1.4-5.6z" data-name="Path 2013" transform="translate(-42 -50)"/>
            </g>
            <g id="prefix__Group_1815" data-name="Group 1815" transform="translate(19.644 20.55)">
                <path id="prefix__Path_2014" fill="#ffc729" d="M45.872 46.546l-.439 1.322H44.5l-.439-1.322.905-.546z" data-name="Path 2014" transform="translate(-44.06 -46)"/>
            </g>
            <g id="prefix__Group_1816" data-name="Group 1816" transform="translate(20.55 19.616)">
                <path id="prefix__Path_2015" d="M48.76 44.21l-.425 2.125-1.429-.855-.906-.546L47.868 44a7.081 7.081 0 0 1 .892.21z" class="prefix__cls-7" data-name="Path 2015" transform="translate(-46 -44)"/>
            </g>
            <g id="prefix__Group_1817" data-name="Group 1817" transform="translate(17.79 19.616)">
                <path id="prefix__Path_2016" d="M42.85 44.934l-.906.546-1.429.855-.425-2.125a7.081 7.081 0 0 1 .892-.21z" class="prefix__cls-7" data-name="Path 2016" transform="translate(-40.09 -44)"/>
            </g>
            <g id="prefix__Group_1818" data-name="Group 1818" transform="translate(13.077 19.826)">
                <path id="prefix__Path_2017" d="M35.138 46.575l1.429-.855.439 1.322-1.4 5.6H30v-1.784a6.715 6.715 0 0 1 4.713-6.408z" class="prefix__cls-8" data-name="Path 2017" transform="translate(-30 -44.45)"/>
            </g>
            <g id="prefix__Group_1819" data-name="Group 1819" transform="translate(21.017 19.826)">
                <path id="prefix__Path_2018" d="M51.2 52.647h-2.8l-1.4-5.6.439-1.322 1.429.855.425-2.125a6.715 6.715 0 0 1 4.713 6.408v1.789z" class="prefix__cls-8" data-name="Path 2018" transform="translate(-47 -44.45)"/>
            </g>
            <g id="prefix__Group_1820" data-name="Group 1820" transform="translate(4.67 22.418)">
                <path id="prefix__Path_2019" d="M19.473 50l.934 5.6H12l.934-5.6z" class="prefix__cls-8" data-name="Path 2019" transform="translate(-12 -50)"/>
            </g>
            <g id="prefix__Group_1821" data-name="Group 1821" transform="translate(.934 9.341)">
                <path id="prefix__Path_2020" d="M14.275 27.6a.941.941 0 0 1 .934-.934.937.937 0 0 1 .934.934v4.39a5.578 5.578 0 0 1-.934 3.087H8.67a5.425 5.425 0 0 1-2.027-2.5l-.079-.2a2.308 2.308 0 0 0-.71-.953L4.177 30.08A.467.467 0 0 1 4 29.716a1.381 1.381 0 0 1 .023-.243 1.2 1.2 0 0 1 .322-.588 1.164 1.164 0 0 1 .831-.346 2.3 2.3 0 0 1 1.266.383l.558.369a1.049 1.049 0 0 0 .6.182A1.074 1.074 0 0 0 8.67 28.4v-5.466A.941.941 0 0 1 9.6 22a.937.937 0 0 1 .934.934v3.736a.941.941 0 0 1 .934-.934.937.937 0 0 1 .934.934.937.937 0 0 1 .934-.934.941.941 0 0 1 .934.934z" class="prefix__cls-3" data-name="Path 2020" transform="translate(-4 -22)"/>
            </g>
            <g id="prefix__Group_1822" data-name="Group 1822" transform="translate(24.287 13.077)">
                <path id="prefix__Path_2021" d="M55.513 30.476a1.4 1.4 0 0 1-1.046 2.324H54V30h.467a1.368 1.368 0 0 1 1.046.476z" class="prefix__cls-3" data-name="Path 2021" transform="translate(-54 -30)"/>
            </g>
            <g id="prefix__Group_1823" data-name="Group 1823" transform="translate(18.682 18.617)">
                <path id="prefix__Path_2022" d="M44.8 41.925a2.835 2.835 0 0 0 .6-.065l.332 1-1.868.934L42 42.859l.332-1a2.835 2.835 0 0 0 .6.065z" class="prefix__cls-3" data-name="Path 2022" transform="translate(-42 -41.86)"/>
            </g>
            <g id="prefix__Group_1824" data-name="Group 1824" transform="translate(16.814 10.275)">
                <path id="prefix__Path_2023" d="M45.473 26.8v2.8a2.8 2.8 0 0 1-2.2 2.737 2.835 2.835 0 0 1-.6.065H40.8a2.835 2.835 0 0 1-.6-.065A2.8 2.8 0 0 1 38 29.6v-3.732A1.868 1.868 0 0 1 39.868 24a.937.937 0 0 0 .934.934h3.736a.937.937 0 0 1 .934.934z" class="prefix__cls-3" data-name="Path 2023" transform="translate(-38 -24)"/>
            </g>
            <g id="prefix__Group_1825" data-name="Group 1825" transform="translate(14.946 13.077)">
                <path id="prefix__Path_2024" d="M35.868 30v2.8H35.4a1.4 1.4 0 0 1-1.046-2.326A1.368 1.368 0 0 1 35.4 30z" class="prefix__cls-3" data-name="Path 2024" transform="translate(-34 -30)"/>
            </g>
        </g>
        <g id="prefix__Group_1827" data-name="Group 1827" transform="translate(27 414)">
            <circle id="prefix__Ellipse_78" cx=".5" cy=".5" r=".5" data-name="Ellipse 78" transform="translate(19 13)"/>
            <circle id="prefix__Ellipse_79" cx=".5" cy=".5" r=".5" data-name="Ellipse 79" transform="translate(22 13)"/>
            <path id="prefix__Path_2025" d="M46.736 35H45.8a.935.935 0 0 1-.934.934H43v.934h1.868A1.87 1.87 0 0 0 46.736 35z" data-name="Path 2025" transform="translate(-23.384 -19.12)"/>
            <path id="prefix__Path_2026" d="M24.244 20.682l-.1-.3a3.274 3.274 0 0 0 2.038-2.573h.037a1.866 1.866 0 0 0 1.554-2.9 11.383 11.383 0 0 0 .314-2.644V8.94a1.4 1.4 0 0 0-1.4-1.4h-6.013a2.93 2.93 0 0 0-2.768 1.96 2.929 2.929 0 0 0-1.96 2.767 11.392 11.392 0 0 0 .314 2.644 1.866 1.866 0 0 0 1.554 2.9h.037a3.275 3.275 0 0 0 2.038 2.573l-.1.3a7.14 7.14 0 0 0-5.413 4.967l-.276-1.67a6.011 6.011 0 0 0 .912-3.181v-4.387a1.4 1.4 0 0 0-.934-1.315V1.934A.935.935 0 0 0 13.143 1H1.934A.935.935 0 0 0 1 1.934v15.88a.935.935 0 0 0 .934.934h.029a.929.929 0 0 0 .321.5l1.68 1.352a1.875 1.875 0 0 1 .567.765l.08.2a5.861 5.861 0 0 0 1.952 2.533l-.822 4.929H1v.934h28.957V27.7a7.146 7.146 0 0 0-5.713-7.017zm-4.158.891l.962.481-1.037.623-.211-1.043q.14-.034.284-.061zm1.829 2.779h.2l1.168 4.67h-2.54zm.233-.934h-.261l-.216-.648.347-.208.347.208zm.84-1.364l.962-.481q.144.027.284.061l-.208 1.043zm3.233-5.175v-1.868a.934.934 0 0 1 0 1.868zm-9.341-.934a.935.935 0 0 1 .934-.934v1.869a.935.935 0 0 1-.934-.934zm.934-2.335v.467a1.855 1.855 0 0 0-.745.157 10.47 10.47 0 0 1-.189-1.968 2 2 0 0 1 1.514-1.94l.272-.068.068-.272a2 2 0 0 1 1.94-1.514h6.014a.468.468 0 0 1 .467.467v3.327a10.463 10.463 0 0 1-.189 1.968 1.856 1.856 0 0 0-.745-.157v-.467a1.4 1.4 0 0 0-1.4-1.4h-3.738a.468.468 0 0 1-.467-.467v-1.4h-.934v.981a2.339 2.339 0 0 0-1.868 2.288zm.934 3.736V13.61a1.4 1.4 0 0 1 1.033-1.352 1.4 1.4 0 0 0 1.3.885h3.736a.468.468 0 0 1 .467.467v3.736a2.338 2.338 0 0 1-2.335 2.335h-1.866a2.338 2.338 0 0 1-2.335-2.334zm2.335 3.269h1.868c.095 0 .189-.006.282-.014l.082.245-1.3.649-1.3-.648.085-.247c.094.01.188.016.283.016zm-2.177 1.3l.448 2.239 1.5-.9.214.642-1.279 5.118h-1.975v-2.8h-.934v2.8h-1.869V27.7a6.214 6.214 0 0 1 3.895-5.779zM1.934 1.934h11.209V15.1c-.018.007-.037.01-.054.017a1.389 1.389 0 0 0-2.281-.673 1.358 1.358 0 0 0-1.4-.278v-1.02h2.8v-.934h-2.8v-.467a1.385 1.385 0 0 0-.086-.467h2.888v-.934H5.67v.934h1.02a1.385 1.385 0 0 0-.086.467v.467H2.868v.934H6.6v.934H2.868v.934H6.6v2.194a.609.609 0 0 1-.946.506l-.555-.37a2.74 2.74 0 0 0-1.526-.462 1.641 1.641 0 0 0-1.476.934h-.163zm3.544 19.28l-.08-.2a2.809 2.809 0 0 0-.851-1.148l-1.68-1.344a.71.71 0 0 1 .71-.709 1.81 1.81 0 0 1 1.007.3l.555.37a1.542 1.542 0 0 0 2.4-1.283v-5.458a.467.467 0 0 1 .934 0v7.006h.934v-3.269a.467.467 0 0 1 .934 0v3.269h.934v-3.269a.467.467 0 1 1 .934 0v3.269h.934v-2.335a.467.467 0 0 1 .934 0V20.8a5.072 5.072 0 0 1-.724 2.618H7.217a4.937 4.937 0 0 1-1.738-2.2zm1.989 3.139h5.748l.779 4.67h-7.3zm21.556 4.67h-1.868v-2.8h-.934v2.8H24.25L22.97 23.9l.214-.642 1.5.9.448-2.24a6.215 6.215 0 0 1 3.891 5.782z" data-name="Path 2026" transform="translate(-1 -1)"/>
            <path id="prefix__Path_2027" d="M14.6 10.6a2.8 2.8 0 0 0-1.451-2.453 1.868 1.868 0 1 0-2.7 0A2.8 2.8 0 0 0 9 10.6v.934h5.6zm-3.732-3.732a.934.934 0 1 1 .932.932.935.935 0 0 1-.932-.932zM9.934 10.6a1.868 1.868 0 1 1 3.736 0z" data-name="Path 2027" transform="translate(-5.264 -3.132)"/>
            <path id="prefix__Path_2028" d="M5 21h1.868v.934H5z" data-name="Path 2028" transform="translate(-3.132 -11.659)"/>
        </g>
    </g>
</svg>
