<svg xmlns="http://www.w3.org/2000/svg" width="16" height="16.001" viewBox="0 0 16 16.001">
    <path id="prefix__date_range" fill="red" d="M-3994.667-4105a1.334 1.334 0 0 1-1.333-1.334v-11.833a1.332 1.332 0 0 1 1.333-1.333h2.167v-1a.5.5 0 0 1 .5-.5.5.5 0 0 1 .5.5v1h3v-1a.5.5 0 0 1 .5-.5.5.5 0 0 1 .5.5v1h3v-1a.5.5 0 0 1 .5-.5.5.5 0 0 1 .5.5v1h2.167a1.332 1.332 0 0 1 1.333 1.333v11.833a1.334 1.334 0 0 1-1.333 1.334zm-.334-13.167v11.833a.334.334 0 0 0 .334.334h13.333a.333.333 0 0 0 .333-.334v-11.833a.333.333 0 0 0-.333-.333h-2.167v1a.5.5 0 0 1-.5.5.5.5 0 0 1-.5-.5v-1h-3v1a.5.5 0 0 1-.5.5.5.5 0 0 1-.5-.5v-1h-3v1a.5.5 0 0 1-.5.5.5.5 0 0 1-.5-.5v-1h-2.167a.334.334 0 0 0-.332.333zm9.177 9.342v-1.339h2.007v1.339zm-3.18 0v-1.339h2.004v1.339zm-3.18 0v-1.339h2.008v1.339zm6.361-2.348v-1.338h2.007v1.338zm-3.18 0v-1.338h2.003v1.338zm-3.18 0v-1.338h2.008v1.338zm6.361-2.115v-1.338h2.007v1.338zm-3.18 0v-1.338h2.002v1.338zm-3.18 0v-1.338h2.008v1.338z" transform="translate(3996 4121)"/>
</svg>
