<svg xmlns="http://www.w3.org/2000/svg" width="24" height="14" viewBox="0 0 24 14">
    <path d="M8.893 9.829a2.087 2.087 0 1 0 2 2.087 2.046 2.046 0 0 0-2-2.087zm0 3.129a1.043 1.043 0 1 1 1-1.042 1.023 1.023 0 0 1-1 1.042zM24 8.288v2.225a.986.986 0 0 1-.966 1.005H22a2.638 2.638 0 0 0-5.246 0h-5.239a2.69 2.69 0 0 0-2.621-2.359 2.69 2.69 0 0 0-2.621 2.359H4.977a.986.986 0 0 1-.966-1.005V8.288zM19.378 9.83a2.087 2.087 0 1 0 2 2.087 2.048 2.048 0 0 0-2-2.088zm0 3.129a1.043 1.043 0 1 1 1-1.042 1.023 1.023 0 0 1-1 1.041zm4.241-6.911l-3.8-3.906a1.265 1.265 0 0 0-.9-.389H17v-.747a.985.985 0 0 0-.966-1.005H4.977a.987.987 0 0 0-.966 1.005v.157l-3.92.47 6.947.941L0 3.301l7.012 1.037L0 4.97l4.011.787v1.975H24v-.734a1.375 1.375 0 0 0-.381-.951zm-1.655.131H18.29a.154.154 0 0 1-.151-.157V3.071a.154.154 0 0 1 .151-.157h.7a.16.16 0 0 1 .106.044l2.972 2.951a.158.158 0 0 1-.104.268z"/>
</svg>
