<svg xmlns="http://www.w3.org/2000/svg" width="20.565" height="27" viewBox="0 0 20.565 27">
    <defs>
        <style>
            .prefix__cls-5{fill:#060606}
        </style>
    </defs>
    <g id="prefix__document_upload" transform="translate(-31 -548)">
        <g id="prefix__Group_1837" data-name="Group 1837" transform="translate(31.396 548.396)">
            <g id="prefix__Group_1834" data-name="Group 1834">
                <g id="prefix__Group_1828" data-name="Group 1828" transform="translate(1.618)">
                    <path id="prefix__Path_2029" fill="#fae19e" d="M38.637 31.292l15.6 1.043a.528.528 0 0 0 .562-.492L56.3 9.429a.528.528 0 0 0-.492-.562l-15.6-1.043a.528.528 0 0 0-.562.492l-1.5 22.415a.528.528 0 0 0 .491.561z" data-name="Path 2029" transform="translate(-38.144 -7.822)"/>
                </g>
                <g id="prefix__Group_1833" data-name="Group 1833" transform="translate(0 2.687)">
                    <g id="prefix__Group_1832" data-name="Group 1832">
                        <g id="prefix__Group_1831" data-name="Group 1831">
                            <g id="prefix__Group_1830" data-name="Group 1830">
                                <g id="prefix__Group_1829" data-name="Group 1829">
                                    <path id="prefix__Path_2030" fill="#fff9e9" d="M8.028 82.233h11.94l4.222-4.2V59.24a.528.528 0 0 0-.528-.528H8.028a.528.528 0 0 0-.528.528V81.7a.528.528 0 0 0 .528.533z" data-name="Path 2030" transform="translate(-7.5 -58.712)"/>
                                </g>
                                <path id="prefix__Path_2031" fill="#fff4d6" d="M275.713 58.712H273.6a.528.528 0 0 1 .528.528v18.79l-.014 2.116 2.126-2.116V59.24a.528.528 0 0 0-.528-.528z" data-name="Path 2031" transform="translate(-259.551 -58.712)"/>
                            </g>
                        </g>
                    </g>
                    <path id="prefix__Path_2032" fill="#ffeec2" d="M243.64 428.161v-3.709a.528.528 0 0 1 .528-.528h3.694z" data-name="Path 2032" transform="translate(-231.172 -404.641)"/>
                </g>
            </g>
        </g>
        <g id="prefix__Group_1838" data-name="Group 1838" transform="translate(31 548)">
            <path id="prefix__Path_2039" d="M19.7 1.368L4.1.324a.925.925 0 0 0-.984.86L3 3.009H.924A.925.925 0 0 0 0 3.933V26.4a.925.925 0 0 0 .924.924h11.94a.4.4 0 0 0 .279-.115l1.8-1.795a.393.393 0 0 0 .056.008l3.077.206a.947.947 0 0 0 .984-.86l1.5-22.415a.932.932 0 0 0-.86-.984zm-6.442 24.6v-2.751a.132.132 0 0 1 .132-.132h2.74zm5.013-1.254a.132.132 0 0 1-.14.123l-2.444-.163L17.366 23a.4.4 0 0 0 .117-.281V3.933a.925.925 0 0 0-.924-.924H12.44a.4.4 0 0 0 0 .792h4.118a.132.132 0 0 1 .132.132v18.36h-3.3a.925.925 0 0 0-.924.924v3.313H.924a.132.132 0 0 1-.132-.13V3.933A.132.132 0 0 1 .924 3.8h9.407a.4.4 0 0 0 0-.792h-6.54l.119-1.771a.132.132 0 0 1 .141-.123l15.6 1.043a.132.132 0 0 1 .123.141z" class="prefix__cls-5" data-name="Path 2039" transform="translate(0 -.322)"/>
            <path id="prefix__Path_2040" d="M66.971 237.047H56.17a.4.4 0 0 0 0 .792h10.8a.4.4 0 0 0 0-.792z" class="prefix__cls-5" data-name="Path 2040" transform="translate(-52.829 -224.548)"/>
            <path id="prefix__Path_2041" d="M66.971 289.332H56.17a.4.4 0 0 0 0 .792h10.8a.4.4 0 0 0 0-.792z" class="prefix__cls-5" data-name="Path 2041" transform="translate(-52.829 -274.072)"/>
            <path id="prefix__Path_2042" d="M55.774 185.158a.4.4 0 0 0 .4.4h10.8a.4.4 0 1 0 0-.792H56.17a.4.4 0 0 0-.396.392z" class="prefix__cls-5" data-name="Path 2042" transform="translate(-52.829 -175.023)"/>
            <path id="prefix__Path_2043" d="M91.807 132.873a.4.4 0 0 0 .4.4h7a.4.4 0 0 0 0-.792h-7a.4.4 0 0 0-.4.392z" class="prefix__cls-5" data-name="Path 2043" transform="translate(-86.96 -125.499)"/>
            <path id="prefix__Path_2044" d="M60.827 389.612h-2.855c-.434 0-.726-.087-.823-.564-.082-.4-.653-.349-.764 0-.274.863-.727.525-.981-.056a8.124 8.124 0 0 1-.429-1.843c-.081-.453-.766-.326-.778.105a7.379 7.379 0 0 1-.213 1.677 13.452 13.452 0 0 1-.593 1.657c-.193.473.574.677.764.211a15.3 15.3 0 0 0 .538-1.463c.271.653.833 1.391 1.633.956a1.6 1.6 0 0 0 .41-.33 1.936 1.936 0 0 0 1.615.442l2.475-.005a.4.4 0 0 0 .001-.787z" class="prefix__cls-5" data-name="Path 2044" transform="translate(-50.543 -366.461)"/>
        </g>
    </g>
</svg>
