<svg xmlns="http://www.w3.org/2000/svg" width="16" height="20" viewBox="0 0 16 20">
    <path d="M2.654 20A2.652 2.652 0 0 1 0 17.377V2.623A2.652 2.652 0 0 1 2.654 0h7.878a.492.492 0 0 1 .351.155l4.976 5.169a.519.519 0 0 1 .141.338v11.715A2.652 2.652 0 0 1 13.346 20zM.975 2.624v14.754a1.682 1.682 0 0 0 1.679 1.657h10.692a1.679 1.679 0 0 0 1.678-1.657V6.135H12.19a2.124 2.124 0 0 1-2.142-2.116V.966H2.654A1.682 1.682 0 0 0 .975 2.623zm10.049 1.4a1.156 1.156 0 0 0 1.166 1.15h2.165L11.023 1.71zM3.958 16.672a.489.489 0 0 1-.491-.483.489.489 0 0 1 .491-.484h8.084a.49.49 0 0 1 .5.484.489.489 0 0 1-.491.483zm3.689-2.7L4.818 10.93a.481.481 0 0 1 .024-.681.481.481 0 0 1 .681.024l1.993 2.142v-5.28a.485.485 0 0 1 .483-.484.485.485 0 0 1 .483.484v5.28l2-2.142a.482.482 0 0 1 .682-.024.481.481 0 0 1 .024.681l-2.834 3.042a.487.487 0 0 1-.353.155.489.489 0 0 1-.354-.157z"/>
</svg>
