<svg xmlns="http://www.w3.org/2000/svg" width="19.343" height="23.838" viewBox="0 0 19.343 23.838">
    <g id="prefix__draft" transform="translate(-48.272)">
        <g id="prefix__Group_2562" data-name="Group 2562" transform="translate(48.621 .349)">
            <g id="prefix__Group_2560" data-name="Group 2560">
                <g id="prefix__Group_2559" data-name="Group 2559">
                    <path id="prefix__Path_2479" fill="#ffe07d" d="M71.355 28.6h-14.56a1.024 1.024 0 0 1-1.024-1.024V8.523A1.024 1.024 0 0 1 56.795 7.5h14.56a1.024 1.024 0 0 1 1.024 1.024v19.053a1.024 1.024 0 0 1-1.024 1.023z" data-name="Path 2479" transform="translate(-55.771 -7.499)"/>
                    <path id="prefix__Path_2480" fill="#ffd064" d="M330.107 7.5h-2.948a1.024 1.024 0 0 1 1.024 1.024v19.054a1.024 1.024 0 0 1-1.024 1.024h2.948a1.024 1.024 0 0 0 1.024-1.024V8.524a1.024 1.024 0 0 0-1.024-1.024z" data-name="Path 2480" transform="translate(-314.524 -7.5)"/>
                    <path id="prefix__Path_2481" fill="#f4fbff" d="M115.111 72.357h-14.56a1.024 1.024 0 0 1-1.024-1.024V52.279a1.024 1.024 0 0 1 1.024-1.024h14.56a1.024 1.024 0 0 1 1.024 1.024v19.054a1.024 1.024 0 0 1-1.024 1.024z" data-name="Path 2481" transform="translate(-97.49 -49.218)"/>
                    <path id="prefix__Path_2482" fill="#e4f6ff" d="M373.788 51.255h-2.952a1.024 1.024 0 0 1 1.024 1.024v19.054a1.024 1.024 0 0 1-1.024 1.024h2.952a1.024 1.024 0 0 0 1.024-1.024V52.279a1.024 1.024 0 0 0-1.024-1.024z" data-name="Path 2482" transform="translate(-356.167 -49.218)"/>
                </g>
            </g>
            <g id="prefix__Group_2561" data-name="Group 2561" transform="translate(4.061 4.261)">
                <path id="prefix__Path_2483" fill="#bed8fb" d="M147.388 105.007h-3.673a.72.72 0 0 1-.72-.72v-4.554a.72.72 0 0 1 .72-.72h3.673a.72.72 0 0 1 .72.72v4.554a.72.72 0 0 1-.72.72z" data-name="Path 2483" transform="translate(-142.996 -99.013)"/>
                <path id="prefix__Path_2484" fill="#407093" d="M146.124 178.361a2.687 2.687 0 0 0-2.528 1.776.72.72 0 0 0 .692.523h3.673a.72.72 0 0 0 .692-.523 2.688 2.688 0 0 0-2.529-1.776z" data-name="Path 2484" transform="translate(-143.568 -174.667)"/>
                <circle id="prefix__Ellipse_141" cx="1.147" cy="1.147" r="1.147" fill="#365e7d" data-name="Ellipse 141" transform="translate(1.41 1.671)"/>
            </g>
        </g>
        <g id="prefix__Group_2563" data-name="Group 2563" transform="translate(48.272)">
            <path id="prefix__Path_2485" d="M148.585 274.636h-12.138a.349.349 0 1 0 0 .7h12.137a.349.349 0 1 0 0-.7z" data-name="Path 2485" transform="translate(-132.009 -261.849)"/>
            <path id="prefix__Path_2486" d="M148.585 322.961h-12.138a.349.349 0 1 0 0 .7h12.137a.349.349 0 1 0 0-.7z" data-name="Path 2486" transform="translate(-132.009 -307.924)"/>
            <path id="prefix__Path_2487" d="M148.585 371.286h-12.138a.349.349 0 0 0 0 .7h12.137a.349.349 0 0 0 0-.7z" data-name="Path 2487" transform="translate(-132.009 -353.999)"/>
            <path id="prefix__Path_2488" d="M148.585 419.611h-12.138a.349.349 0 0 0 0 .7h12.137a.349.349 0 0 0 0-.7z" data-name="Path 2488" transform="translate(-132.009 -400.074)"/>
            <path id="prefix__Path_2489" d="M305.805 175.7h-4.46a.349.349 0 1 0 0 .7h4.46a.349.349 0 1 0 0-.7z" data-name="Path 2489" transform="translate(-289.23 -167.522)"/>
            <path id="prefix__Path_2490" d="M305.805 136.06h-4.46a.349.349 0 1 0 0 .7h4.46a.349.349 0 1 0 0-.7z" data-name="Path 2490" transform="translate(-289.23 -129.725)"/>
            <path id="prefix__Path_2491" d="M67.266 19.419a.349.349 0 0 0 .349-.349V3.41a1.375 1.375 0 0 0-1.373-1.373h-.664v-.664A1.375 1.375 0 0 0 64.2 0H49.645a1.375 1.375 0 0 0-1.373 1.373v19.055a1.375 1.375 0 0 0 1.373 1.372h.664v.664a1.375 1.375 0 0 0 1.373 1.373h14.56a1.375 1.375 0 0 0 1.373-1.373V20.7a.349.349 0 1 0-.7 0v1.763a.676.676 0 0 1-.675.675H51.682a.676.676 0 0 1-.675-.675V3.41a.676.676 0 0 1 .675-.675h14.56a.676.676 0 0 1 .675.675v15.659a.349.349 0 0 0 .349.35zM50.309 3.41V21.1h-.664a.676.676 0 0 1-.675-.675V1.373A.676.676 0 0 1 49.645.7H64.2a.676.676 0 0 1 .675.675v.664h-13.2a1.375 1.375 0 0 0-1.366 1.371z" data-name="Path 2491" transform="translate(-48.272)"/>
            <path id="prefix__Path_2492" d="M135.845 94.15a.349.349 0 0 0-.349.349v2.637a1.066 1.066 0 0 0 .953 1.063c.132.014 3.9 0 3.9 0a1.066 1.066 0 0 0 .953-1.063v-4.554a1.07 1.07 0 0 0-1.069-1.069h-3.673a1.07 1.07 0 0 0-1.069 1.069v.273a.349.349 0 0 0 .7 0v-.273a.371.371 0 0 1 .371-.371h3.673a.371.371 0 0 1 .371.371v3.575a3.022 3.022 0 0 0-.944-.676 1.5 1.5 0 1 0-2.526 0 3.021 3.021 0 0 0-.944.676V94.5a.349.349 0 0 0-.347-.35zm2.556-.267a.8.8 0 1 1-.8.8.8.8 0 0 1 .799-.8zm-.686 2.126a1.489 1.489 0 0 0 1.372 0 2.329 2.329 0 0 1 1.466 1.323.369.369 0 0 1-.276.174c-.023 0-3.691.005-3.744 0h-.008a.369.369 0 0 1-.276-.174 2.329 2.329 0 0 1 1.466-1.324z" data-name="Path 2492" transform="translate(-131.435 -87.252)"/>
        </g>
    </g>
</svg>
