<svg xmlns="http://www.w3.org/2000/svg" width="23.53" height="21.391" viewBox="0 0 23.53 21.391">
    <defs>
        <style>
            .prefix__cls-1{fill:#0e9347}.prefix__cls-6{fill:#f6b545}.prefix__cls-7{fill:#ffcb5b}.prefix__cls-8{fill:#ffe27a}.prefix__cls-9{fill:#f19920}.prefix__cls-10{fill:#e78825}
        </style>
    </defs>
    <g id="prefix__earned_incentive" transform="translate(-242.224 -156)">
        <g id="prefix__money_4_" data-name="money (4)" transform="translate(242.224 132.728)">
            <path id="prefix__Path_1896" d="M22.46 37.176H1.07A1.073 1.073 0 0 1 0 36.107V24.342a1.073 1.073 0 0 1 1.07-1.07h21.39a1.073 1.073 0 0 1 1.07 1.07v11.765a1.073 1.073 0 0 1-1.07 1.069z" class="prefix__cls-1" data-name="Path 1896"/>
            <path id="prefix__Path_1897" fill="#0d8944" d="M254.03 232.727a3.579 3.579 0 0 0-2.995 1.551 3.989 3.989 0 0 0-1.818-.481 3.742 3.742 0 0 0-3.69 3.209H256.7a1.088 1.088 0 0 0 1.07-.909 3.809 3.809 0 0 0-3.74-3.37z" data-name="Path 1897" transform="translate(-234.243 -199.829)"/>
            <path id="prefix__Path_1898" fill="#3bb54a" d="M42.525 58.311H25.412a2.145 2.145 0 0 0-2.139-2.139v-7.487a2.145 2.145 0 0 0 2.139-2.139h17.113a2.145 2.145 0 0 0 2.139 2.139v7.487a2.145 2.145 0 0 0-2.139 2.139z" data-name="Path 1898" transform="translate(-22.203 -22.204)"/>
            <g id="prefix__Group_1620" data-name="Group 1620" transform="translate(4.278 25.411)">
                <path id="prefix__Path_1899" d="M260.691 232.727a3.579 3.579 0 0 0-2.995 1.551 3.989 3.989 0 0 0-1.818-.481 3.674 3.674 0 0 0-3.369 2.139h8.717a2.134 2.134 0 0 1 2.086-2.139 3.866 3.866 0 0 0-2.621-1.07z" class="prefix__cls-1" data-name="Path 1899" transform="translate(-245.183 -225.24)"/>
                <ellipse id="prefix__Ellipse_51" cx="4.278" cy="4.813" class="prefix__cls-1" data-name="Ellipse 51" rx="4.278" ry="4.813" transform="translate(3.209)"/>
                <circle id="prefix__Ellipse_52" cx="1.07" cy="1.07" r="1.07" class="prefix__cls-1" data-name="Ellipse 52" transform="translate(0 3.743)"/>
                <circle id="prefix__Ellipse_53" cx="1.07" cy="1.07" r="1.07" class="prefix__cls-1" data-name="Ellipse 53" transform="translate(12.834 3.743)"/>
            </g>
            <path id="prefix__Path_1900" fill="#89c763" d="M212.129 107.4h-1.07a.535.535 0 1 1 0-1.07h1.6a.535.535 0 0 0 0-1.07h-.535a.535.535 0 1 0-1.07 0 1.6 1.6 0 1 0 0 3.209h1.07a.535.535 0 0 1 0 1.07h-1.6a.535.535 0 0 0 0 1.07h.535a.535.535 0 1 0 1.07 0 1.6 1.6 0 0 0 0-3.209z" data-name="Path 1900" transform="translate(-199.829 -77.713)"/>
            <circle id="prefix__Ellipse_54" cx="3.743" cy="3.743" r="3.743" fill="#ffca5d" data-name="Ellipse 54" transform="translate(10.161 33.967)"/>
            <circle id="prefix__Ellipse_55" cx="3.743" cy="3.743" r="3.743" class="prefix__cls-6" data-name="Ellipse 55" transform="translate(14.974 32.898)"/>
            <path id="prefix__Path_1901" d="M329.561 232.727a3.743 3.743 0 1 0 3.743 3.743 3.72 3.72 0 0 0-3.743-3.743zm0 6.417a2.674 2.674 0 1 1 2.674-2.674 2.648 2.648 0 0 1-2.674 2.674z" class="prefix__cls-7" data-name="Path 1901" transform="translate(-310.844 -199.829)"/>
            <path id="prefix__Path_1902" d="M407.273 317.872a3.675 3.675 0 0 0 3.743-3.69h-.053a.569.569 0 0 0-.535.481 3.233 3.233 0 0 1-1.016 1.925 3.03 3.03 0 0 1-1.658.8.479.479 0 0 0-.481.484z" class="prefix__cls-6" data-name="Path 1902" transform="translate(-388.556 -277.541)"/>
            <path id="prefix__Path_1903" d="M329.561 233.866a3.675 3.675 0 0 0-3.743 3.69h.053a.569.569 0 0 0 .535-.481 3.233 3.233 0 0 1 1.016-1.925 3.03 3.03 0 0 1 1.658-.8.479.479 0 0 0 .481-.484z" class="prefix__cls-8" data-name="Path 1903" transform="translate(-310.844 -200.914)"/>
            <path id="prefix__Path_1904" d="M349.465 259.048a2.648 2.648 0 0 1 2.674-2.674 2.522 2.522 0 0 1 1.711.642 2.666 2.666 0 0 0-4.759 1.658 2.564 2.564 0 0 0 .963 2.032 2.508 2.508 0 0 1-.589-1.658z" class="prefix__cls-9" data-name="Path 1904" transform="translate(-333.048 -222.033)"/>
            <path id="prefix__Path_1905" d="M437.186 310.289a.2.2 0 0 1-.16-.053.258.258 0 0 1 0-.374 1.785 1.785 0 0 0 .481-1.23.267.267 0 1 1 .535 0 2.47 2.47 0 0 1-.588 1.6.582.582 0 0 1-.268.057z" class="prefix__cls-7" data-name="Path 1905" transform="translate(-416.865 -271.99)"/>
            <g id="prefix__Group_1621" data-name="Group 1621" transform="translate(15.027 33.967)">
                <path id="prefix__Path_1906" d="M396.172 282.483a.505.505 0 0 1-.535-.535v-2.139a.535.535 0 0 1 1.07 0v2.139a.505.505 0 0 1-.535.535z" class="prefix__cls-9" data-name="Path 1906" transform="translate(-392.482 -278.204)"/>
                <path id="prefix__Path_1907" d="M332.65 261.829a4.345 4.345 0 0 0-2.567-2.888 4.471 4.471 0 0 0-2.032-2.941 3.866 3.866 0 0 0-1.07 2.62 3.72 3.72 0 0 0 3.743 3.743 3.1 3.1 0 0 0 1.926-.534z" class="prefix__cls-9" data-name="Path 1907" transform="translate(-326.981 -256)"/>
            </g>
            <g id="prefix__Group_1622" data-name="Group 1622" transform="translate(16.043 34.663)">
                <path id="prefix__Path_1908" d="M350.053 275.139a2.813 2.813 0 0 1-.642-1.711 2.589 2.589 0 0 1 .856-1.925 2.325 2.325 0 0 0-.321-.374 2.62 2.62 0 0 0-.856 1.979 2.564 2.564 0 0 0 .963 2.031z" class="prefix__cls-10" data-name="Path 1908" transform="translate(-349.09 -271.128)"/>
                <path id="prefix__Path_1909" d="M395.636 321.164v.749a.535.535 0 1 0 1.069 0v-.107a4.37 4.37 0 0 0-1.069-.642z" class="prefix__cls-10" data-name="Path 1909" transform="translate(-393.497 -318.865)"/>
            </g>
            <path id="prefix__Path_1910" d="M331.54 262.938a3.417 3.417 0 0 0-.428-1.016 2.588 2.588 0 0 1-1.551.535 2.648 2.648 0 0 1-2.674-2.674 2.62 2.62 0 0 1 .856-1.979 3.262 3.262 0 0 0-.856-.642 3.866 3.866 0 0 0-1.07 2.62 3.72 3.72 0 0 0 3.743 3.743 3.585 3.585 0 0 0 1.98-.587z" class="prefix__cls-6" data-name="Path 1910" transform="translate(-310.844 -223.141)"/>
            <path id="prefix__Path_1911" d="M409.09 372.364a3.7 3.7 0 0 1-1.337.535.569.569 0 0 0-.481.535 3.586 3.586 0 0 0 1.979-.588z" class="prefix__cls-9" data-name="Path 1911" transform="translate(-388.555 -333.049)"/>
            <path id="prefix__Path_1912" d="M326.888 257.164a3.866 3.866 0 0 0-1.07 2.62h.053a.569.569 0 0 0 .535-.481 3.328 3.328 0 0 1 .963-1.872 2.17 2.17 0 0 1-.481-.267z" class="prefix__cls-7" data-name="Path 1912" transform="translate(-310.844 -223.143)"/>
            <circle id="prefix__Ellipse_56" cx="3.743" cy="3.743" r="3.743" class="prefix__cls-6" data-name="Ellipse 56" transform="translate(10.161 33.967)"/>
            <path id="prefix__Path_1913" d="M290.909 317.924a3.706 3.706 0 0 0 .16 1.07h.374a3.731 3.731 0 0 0 3.583-4.813h-.374a3.72 3.72 0 0 0-3.743 3.743z" class="prefix__cls-9" data-name="Path 1913" transform="translate(-277.54 -277.54)"/>
            <path id="prefix__Path_1914" d="M224.833 256a3.743 3.743 0 1 0 3.743 3.743 3.72 3.72 0 0 0-3.743-3.743zm0 6.417a2.674 2.674 0 1 1 2.674-2.674 2.648 2.648 0 0 1-2.674 2.674z" class="prefix__cls-7" data-name="Path 1914" transform="translate(-210.929 -222.033)"/>
            <path id="prefix__Path_1915" d="M302.545 341.145a3.675 3.675 0 0 0 3.743-3.69h-.053a.569.569 0 0 0-.535.481 3.233 3.233 0 0 1-1.016 1.925 3.03 3.03 0 0 1-1.658.8.479.479 0 0 0-.481.484z" class="prefix__cls-6" data-name="Path 1915" transform="translate(-288.641 -299.744)"/>
            <path id="prefix__Path_1916" d="M224.833 257.139a3.675 3.675 0 0 0-3.743 3.69h.053a.569.569 0 0 0 .535-.481 3.233 3.233 0 0 1 1.016-1.925 3.03 3.03 0 0 1 1.658-.8.479.479 0 0 0 .481-.484z" class="prefix__cls-8" data-name="Path 1916" transform="translate(-210.929 -223.118)"/>
            <path id="prefix__Path_1917" d="M244.737 282.321a2.648 2.648 0 0 1 2.674-2.674 2.522 2.522 0 0 1 1.711.642 2.666 2.666 0 0 0-4.759 1.658 2.564 2.564 0 0 0 .963 2.032 2.508 2.508 0 0 1-.589-1.658z" class="prefix__cls-9" data-name="Path 1917" transform="translate(-233.133 -244.236)"/>
            <path id="prefix__Path_1918" d="M332.459 333.561a.2.2 0 0 1-.16-.054.258.258 0 0 1 0-.374 1.785 1.785 0 0 0 .481-1.23.267.267 0 1 1 .535 0 2.469 2.469 0 0 1-.588 1.6.581.581 0 0 1-.268.058z" class="prefix__cls-7" data-name="Path 1918" transform="translate(-316.951 -294.193)"/>
            <path id="prefix__Path_1919" d="M291.444 305.756a.505.505 0 0 1-.535-.535v-2.139a.535.535 0 0 1 1.07 0v2.139a.505.505 0 0 1-.535.535z" class="prefix__cls-9" data-name="Path 1919" transform="translate(-277.54 -266.44)"/>
            <g id="prefix__Group_1623" data-name="Group 1623" transform="translate(12.834 36.641)">
                <path id="prefix__Path_1920" d="M293.9 314.235a3.128 3.128 0 0 1 .214 1.016 2.648 2.648 0 0 1-2.674 2.674 1.819 1.819 0 0 1-.535-.053v.053a3.707 3.707 0 0 0 .16 1.07h.374a3.731 3.731 0 0 0 3.583-4.813h-.374a3.537 3.537 0 0 0-.748.053z" class="prefix__cls-6" data-name="Path 1920" transform="translate(-290.375 -314.181)"/>
                <circle id="prefix__Ellipse_57" cx="3.743" cy="3.743" r="3.743" class="prefix__cls-6" data-name="Ellipse 57" transform="translate(0 .535)"/>
            </g>
            <path id="prefix__Path_1921" d="M283.015 325.818a3.743 3.743 0 1 0 3.743 3.743 3.72 3.72 0 0 0-3.743-3.743zm0 6.417a2.674 2.674 0 1 1 2.674-2.674 2.648 2.648 0 0 1-2.674 2.674z" class="prefix__cls-7" data-name="Path 1921" transform="translate(-266.438 -288.642)"/>
            <path id="prefix__Path_1922" d="M360.727 410.963a3.675 3.675 0 0 0 3.743-3.69h-.053a.569.569 0 0 0-.535.481 3.233 3.233 0 0 1-1.016 1.925 3.03 3.03 0 0 1-1.658.8.479.479 0 0 0-.481.484z" class="prefix__cls-6" data-name="Path 1922" transform="translate(-344.149 -366.354)"/>
            <path id="prefix__Path_1923" d="M283.015 326.957a3.675 3.675 0 0 0-3.743 3.69h.053a.569.569 0 0 0 .535-.481 3.233 3.233 0 0 1 1.016-1.925 3.03 3.03 0 0 1 1.658-.8.479.479 0 0 0 .481-.484z" class="prefix__cls-8" data-name="Path 1923" transform="translate(-266.438 -289.727)"/>
            <path id="prefix__Path_1924" d="M302.919 352.139a2.648 2.648 0 0 1 2.674-2.674 2.522 2.522 0 0 1 1.711.642 2.666 2.666 0 0 0-4.759 1.658 2.564 2.564 0 0 0 .963 2.032 2.508 2.508 0 0 1-.589-1.658z" class="prefix__cls-9" data-name="Path 1924" transform="translate(-288.641 -310.845)"/>
            <path id="prefix__Path_1925" d="M390.64 403.379a.2.2 0 0 1-.16-.053.258.258 0 0 1 0-.374 1.785 1.785 0 0 0 .481-1.23.267.267 0 0 1 .535 0 2.469 2.469 0 0 1-.588 1.6.581.581 0 0 1-.268.057z" class="prefix__cls-7" data-name="Path 1925" transform="translate(-372.458 -360.802)"/>
            <path id="prefix__Path_1926" d="M349.626 375.573a.505.505 0 0 1-.535-.535V372.9a.535.535 0 0 1 1.07 0v2.139a.505.505 0 0 1-.535.534z" class="prefix__cls-9" data-name="Path 1926" transform="translate(-333.048 -333.049)"/>
        </g>
    </g>
</svg>
