<svg xmlns="http://www.w3.org/2000/svg" width="19.509" height="19.411" viewBox="0 0 19.509 19.411">
    <g data-name="edit (2)">
        <path d="M18.006 12.442a.486.486 0 0 0-.486.486v4.314a1.459 1.459 0 0 1-1.458 1.458H2.429a1.459 1.459 0 0 1-1.457-1.458V4.579A1.459 1.459 0 0 1 2.43 3.121h4.313a.486.486 0 1 0 0-.972H2.429A2.432 2.432 0 0 0 0 4.579v12.663a2.432 2.432 0 0 0 2.429 2.429h13.634a2.432 2.432 0 0 0 2.429-2.429v-4.314a.486.486 0 0 0-.486-.486zm0 0" data-name="Path 1444" transform="translate(0 -.261)"/>
        <path d="M18.3.9a2.186 2.186 0 0 0-3.092 0L6.54 9.57a.486.486 0 0 0-.125.214l-1.14 4.115a.486.486 0 0 0 .6.6l4.115-1.14a.486.486 0 0 0 .214-.125l8.663-8.671a2.189 2.189 0 0 0 0-3.092zM7.6 9.884l7.094-7.095 2.288 2.288-7.095 7.095zm-.457.917l1.828 1.828-2.528.7zm11.042-6.926l-.515.515-2.29-2.29.515-.515a1.215 1.215 0 0 1 1.718 0l.57.57a1.216 1.216 0 0 1 0 1.721zm0 0" data-name="Path 1445" transform="translate(0 -.261)"/>
    </g>
</svg>
