<svg xmlns="http://www.w3.org/2000/svg" width="16.607" height="16.527" viewBox="0 0 16.607 16.527">
    <defs>
        <style>
            .prefix__cls-1{stroke:#000;stroke-width:.5px}
        </style>
    </defs>
    <g id="prefix__edit" transform="translate(.25 .13)">
        <path id="prefix__Path_1745" d="M14.752 45.016a.4.4 0 0 0-.4.4v3.535a1.2 1.2 0 0 1-1.194 1.194H1.99A1.2 1.2 0 0 1 .8 48.949V38.575a1.2 1.2 0 0 1 1.19-1.194h3.535a.4.4 0 0 0 0-.8H1.99A1.993 1.993 0 0 0 0 38.575v10.374a1.993 1.993 0 0 0 1.99 1.99h11.17a1.993 1.993 0 0 0 1.99-1.99v-3.535a.4.4 0 0 0-.4-.4zm0 0" class="prefix__cls-1" data-name="Path 1745" transform="translate(0 -34.792)"/>
        <path id="prefix__Path_1746" d="M111.729.768a1.791 1.791 0 0 0-2.533 0l-7.1 7.1a.4.4 0 0 0-.1.175l-.934 3.372a.4.4 0 0 0 .49.49l3.372-.934a.4.4 0 0 0 .175-.1l7.1-7.1a1.793 1.793 0 0 0 0-2.533zm-8.768 7.361l5.812-5.813 1.875 1.875L104.836 10zm-.374.751l1.5 1.5-2.072.574zm9.047-5.675l-.422.422-1.875-1.875.422-.422a1 1 0 0 1 1.407 0l.467.467a1 1 0 0 1 .001 1.409zm0 0" class="prefix__cls-1" data-name="Path 1746" transform="translate(-96.737)"/>
    </g>
</svg>
