<svg xmlns="http://www.w3.org/2000/svg" width="24.3" height="24.3" viewBox="0 0 24.3 24.3">
    <defs>
        <style>
            .prefix__cls-1{stroke:#000;stroke-width:.3px}
        </style>
    </defs>
    <g id="prefix__ems_line" transform="translate(.15 .15)">
        <path id="prefix__Path_1783" d="M266 0h-7.6a1.178 1.178 0 0 0-1.2 1.2v3.68a.363.363 0 0 1-.12.28L256 6.24v.96h10a1.178 1.178 0 0 0 1.2-1.2V1.2A1.178 1.178 0 0 0 266 0zm.4 6a.378.378 0 0 1-.4.4h-9.04l.68-.68a1.151 1.151 0 0 0 .36-.84V1.2a.378.378 0 0 1 .4-.4h7.6a.378.378 0 0 1 .4.4zm0 0" class="prefix__cls-1" data-name="Path 1783" transform="translate(-243.2)"/>
        <path id="prefix__Path_1784" d="M22.36 39.964L20 38.884a3.408 3.408 0 0 0 1.2-2.6v-4.92h-4.8a1.981 1.981 0 0 0-2 2v2.92a3.408 3.408 0 0 0 1.2 2.6l-2 .92v-2.32a2.748 2.748 0 0 0-1.92-2.64l-2.88-.96v-.92h1.24a1.981 1.981 0 0 0 2-2 1.359 1.359 0 0 0-.04-.4l-.52-2.52a4.354 4.354 0 0 0-8.52 0l-.56 2.52a1.979 1.979 0 0 0 1.56 2.36 1.36 1.36 0 0 0 .4.04H5.6v.92l-2.88.96a2.785 2.785 0 0 0-1.92 2.64v5.08H0v4.8h10.8v-.8H.8v-3.2h10.8v4H24v-4.84a2.775 2.775 0 0 0-1.64-2.56zm-7.16-3.68v-2.92a1.178 1.178 0 0 1 1.2-1.2h4v4.12a2.6 2.6 0 1 1-5.2 0zM5.88 31.2l-.48-.32a.364.364 0 0 1-.16-.32v-2.24a1.786 1.786 0 0 1 1.68.04 2.55 2.55 0 0 0 2.28.16h.04v2.04a.494.494 0 0 1-.16.32l-.48.32a1.251 1.251 0 0 0-.52 1v1.56h-1.6V32.2a1.526 1.526 0 0 0-.6-1zm.92 3.36v.6l-1.16.88-1-1 1.44-.48zm.8 0h.72l1.44.48-1 1-1.16-.88zm3.36-2.84a1.2 1.2 0 0 1-.92.44H8.8a.494.494 0 0 1 .16-.32l.48-.32a1.251 1.251 0 0 0 .52-1v-2.4l.6-.24c.04.08.04.2.08.28l.52 2.52a1.063 1.063 0 0 1-.2 1.04zM7.2 25.364a3.531 3.531 0 0 1 3.08 1.8l-1.44.6a1.785 1.785 0 0 1-1.56-.12 2.548 2.548 0 0 0-2.56-.04l-1 .56v-.04a3.56 3.56 0 0 1 3.48-2.76zm-3.76 6.36a1.13 1.13 0 0 1-.24-1l.32-1.48.88-.52v1.8a1.251 1.251 0 0 0 .52 1l.48.32a.364.364 0 0 1 .16.32H4.32a1.179 1.179 0 0 1-.88-.44zm-1.84 5.76A1.945 1.945 0 0 1 2.96 35.6l.84-.28 1.76 1.76 1.24-.92v6.4H4.4v-4.8h-.8v4.8h-2zm9.2 5.08v-3.2H10v3.2H7.6v-6.4l1.24.92 1.76-1.76.84.28a2.021 2.021 0 0 1 1.36 1.88V40.2a2.737 2.737 0 0 0-1.2 2.28v.08zm12.4 4H12.4v-4.04a2.028 2.028 0 0 1 1.16-1.84L16.4 39.4a3.232 3.232 0 0 0 2.72 0l2.84 1.28a1.985 1.985 0 0 1 1.16 1.84v4.04zm0 0" class="prefix__cls-1" data-name="Path 1784" transform="translate(0 -23.364)"/>
        <path id="prefix__Path_1785" d="M104 424h4v.8h-4zm0 0" class="prefix__cls-1" data-name="Path 1785" transform="translate(-98.8 -402.8)"/>
        <path id="prefix__Path_1786" d="M312 32h6.8v.8H312zm0 0" class="prefix__cls-1" data-name="Path 1786" transform="translate(-296.4 -30.4)"/>
        <path id="prefix__Path_1787" d="M312 64h6.8v.8H312zm0 0" class="prefix__cls-1" data-name="Path 1787" transform="translate(-296.4 -60.8)"/>
        <path id="prefix__Path_1788" d="M312 96h5.2v.8H312zm0 0" class="prefix__cls-1" data-name="Path 1788" transform="translate(-296.4 -91.2)"/>
        <path id="prefix__Path_1789" d="M168 288h2.4v.8H168zm0 0" class="prefix__cls-1" data-name="Path 1789" transform="translate(-159.6 -273.6)"/>
    </g>
</svg>
