<svg xmlns="http://www.w3.org/2000/svg" width="16.708" height="11.667" viewBox="0 0 16.708 11.667">
    <g id="prefix__end" transform="translate(0 -65.769)">
        <path id="prefix__Path_1494" d="M10.98 73.945a.133.133 0 0 1 0 .162l-2.52 3.276a.133.133 0 0 1-.212 0l-2.519-3.276a.134.134 0 0 1 .155-.205l1.668.658V70.7a.133.133 0 0 1 .134-.133h1.337a.134.134 0 0 1 .134.133v3.86l1.668-.658a.133.133 0 0 1 .155.043zm-3.432-8.17c-8.636.166-7.6 4.442-7.406 5.069.212 1.067 1.029 1.6 1.858 1.3l1.578-.494a2.347 2.347 0 0 0 1.2-2.584l-.035-.212a13.284 13.284 0 0 1 7.273-.066l-.015.09a2.348 2.348 0 0 0 1.2 2.584l1.578.658a1.43 1.43 0 0 0 1.735-1.041l.007.006a2.246 2.246 0 0 0 .088-.292c0-.014.006-.03.01-.044l.022-.107c0-.021.009-.042.014-.064.235-1.364-.003-4.978-9.107-4.803z" data-name="Path 1494" style="fill:#fff"/>
    </g>
</svg>
