<svg xmlns="http://www.w3.org/2000/svg" width="17.18" height="17.18" viewBox="0 0 17.18 17.18">
    <g data-name="enquiry (1)">
        <path d="M16.222 0h-6.068a.941.941 0 0 0-.958.958V3.9a.29.29 0 0 1-.1.223l-.858.859v.766h7.984a.941.941 0 0 0 .958-.958V.958A.941.941 0 0 0 16.222 0zm.319 4.79a.3.3 0 0 1-.319.319H9.004l.543-.543a.919.919 0 0 0 .291-.666V.958a.3.3 0 0 1 .319-.319h6.068a.3.3 0 0 1 .319.319zm0 0" data-name="Path 1642"/>
        <path d="M16.006 11.916l-1.689-.768a2.418 2.418 0 0 0 .859-1.85v-3.5H11.74a1.413 1.413 0 0 0-1.432 1.423v2.077a2.418 2.418 0 0 0 .859 1.85l-1.432.655v-1.651a1.956 1.956 0 0 0-1.374-1.878L6.3 7.588v-.654h.888A1.413 1.413 0 0 0 8.62 5.511a.961.961 0 0 0-.029-.285l-.372-1.793a3.121 3.121 0 0 0-6.1 0l-.4 1.793a1.408 1.408 0 0 0 1.116 1.682.98.98 0 0 0 .286.028h.888v.652l-2.062.683a1.983 1.983 0 0 0-1.374 1.881v3.614H0v3.415h7.731v-.569H.573v-2.277H8.3v2.846h8.88v-3.443a1.974 1.974 0 0 0-1.174-1.821zm-5.125-2.618V7.221a.841.841 0 0 1 .859-.854h2.86v2.931a1.861 1.861 0 0 1-3.722 0zm-6.672-3.61l-.344-.228a.258.258 0 0 1-.115-.228V3.636a1.286 1.286 0 0 1 1.2.028 1.836 1.836 0 0 0 1.632.114h.029v1.451a.351.351 0 0 1-.115.228l-.344.228a.888.888 0 0 0-.372.711v1.11H4.639v-1.11a1.084 1.084 0 0 0-.43-.711zm.659 2.39v.427l-.83.626-.716-.711 1.031-.342zm.573 0h.515l1.031.342-.716.711-.83-.626zm2.405-2.02a.858.858 0 0 1-.659.313H6.3a.351.351 0 0 1 .115-.228l.344-.228a.888.888 0 0 0 .372-.711V3.493l.43-.171c.029.057.029.142.057.2l.372 1.793a.753.753 0 0 1-.143.74zM5.154 1.53a2.53 2.53 0 0 1 2.2 1.281l-1.031.427a1.285 1.285 0 0 1-1.117-.085 1.834 1.834 0 0 0-1.833-.028l-.716.4v-.028a2.545 2.545 0 0 1 2.491-1.963zM2.463 6.054a.8.8 0 0 1-.172-.711l.229-1.055.63-.37v1.281a.888.888 0 0 0 .372.711l.344.228a.258.258 0 0 1 .115.228h-.889a.846.846 0 0 1-.63-.313zm-1.317 4.1a1.385 1.385 0 0 1 .974-1.337l.6-.2 1.26 1.251.888-.654v4.553H3.15v-3.416h-.573v3.415H1.145zm6.586 3.614v-2.28h-.573v2.276H5.44V9.213l.888.654 1.26-1.252.6.2a1.438 1.438 0 0 1 .974 1.337v1.936a1.944 1.944 0 0 0-.862 1.621v.057zm8.877 2.846H8.877v-2.876a1.442 1.442 0 0 1 .83-1.309l2.033-.91a2.327 2.327 0 0 0 1.947 0l2.033.91a1.412 1.412 0 0 1 .83 1.309v2.874zm0 0" data-name="Path 1643"/>
        <path d="M3.637 14.945h3.194v.639H3.637zm0 0" data-name="Path 1644"/>
        <path d="M10.474 1.277h5.429v.639h-5.429zm0 0" data-name="Path 1645"/>
        <path d="M10.474 2.555h5.429v.639h-5.429zm0 0" data-name="Path 1646"/>
        <path d="M10.474 3.422h4.152v.639h-4.152zm0 0" data-name="Path 1647"/>
        <path d="M5.936 10.267h1.916v.639H5.936zm0 0" data-name="Path 1648"/>
    </g>
</svg>
