<svg xmlns="http://www.w3.org/2000/svg" width="20.51" height="20.5" viewBox="0 0 20.51 20.5">
    <defs>
        <style>
            .prefix__cls-1{stroke:#000;stroke-width:.5px}
        </style>
    </defs>
    <g id="prefix__event_management" transform="translate(.255 -19.634)">
        <path id="prefix__Path_1754" d="M341.05 83.024a1.57 1.57 0 1 0-1.57-1.57 1.572 1.572 0 0 0 1.57 1.57zm0-2.355a.785.785 0 1 1-.785.785.786.786 0 0 1 .785-.784z" class="prefix__cls-1" data-name="Path 1754" transform="translate(-326.23 -57.646)"/>
        <path id="prefix__Path_1755" d="M99.139 81.455a1.57 1.57 0 1 0-1.57 1.57 1.572 1.572 0 0 0 1.57-1.57zm-1.57.785a.785.785 0 1 1 .785-.785.786.786 0 0 1-.784.785z" class="prefix__cls-1" data-name="Path 1755" transform="translate(-92.253 -57.646)"/>
        <path id="prefix__Path_1756" d="M19.942 30.249a.385.385 0 0 0-.332-.2h-2.266a.425.425 0 0 0 0 .847h1.634l-.889 1.928a.456.456 0 0 0 0 .379l.889 1.928h-7.415v-.847a.392.392 0 1 0-.781 0v.847H8.334l3.277-4.231h2.217a.425.425 0 0 0 0-.847h-1.561l1.446-1.869a3.613 3.613 0 0 0 1.111.175 4.085 4.085 0 0 0 3.906-4.235 4.085 4.085 0 0 0-3.906-4.235 4.085 4.085 0 0 0-3.906 4.235A4.532 4.532 0 0 0 11.323 26l-1.264 1.634-1.252-1.62a4.527 4.527 0 0 0 .413-1.9 4.085 4.085 0 0 0-3.906-4.235 4.085 4.085 0 0 0-3.906 4.235 4.085 4.085 0 0 0 3.906 4.235 3.619 3.619 0 0 0 1.094-.169l1.442 1.863H.391a.385.385 0 0 0-.332.2.455.455 0 0 0-.017.412l1.085 2.352-1.085 2.358a.455.455 0 0 0 .017.412.384.384 0 0 0 .332.2H3.64a3.146 3.146 0 0 0 .582 3.808.371.371 0 0 0 .251.1.378.378 0 0 0 .3-.151l2.906-3.755h4.76l2.906 3.755a.37.37 0 0 0 .55.052 3.146 3.146 0 0 0 .582-3.807h3.133a.385.385 0 0 0 .332-.2.455.455 0 0 0 .017-.412l-1.085-2.352 1.085-2.352a.455.455 0 0 0-.017-.412zm-5.118-9.518a3.268 3.268 0 0 1 3.125 3.388 3.268 3.268 0 0 1-3.125 3.388 3.264 3.264 0 0 1-3.124-3.388 3.268 3.268 0 0 1 3.124-3.388zm-6.3 8.878l-1.359-1.761a4.024 4.024 0 0 0 1.2-1.086l1.183 1.528zm-6.34-5.489a3.268 3.268 0 0 1 3.125-3.388 3.268 3.268 0 0 1 3.125 3.388 3.264 3.264 0 0 1-3.125 3.388 3.268 3.268 0 0 1-3.121-3.389zm-.272 9.08a.455.455 0 0 0 0-.379L1.023 30.9h6.509l-3.277 4.231H1.023zm2.538 5.631a2.261 2.261 0 0 1 .033-2.679l7.279-9.4a4.029 4.029 0 0 0 1.2 1.091zm11.183-2.679a2.261 2.261 0 0 1 .033 2.679l-2.208-2.853H15.5z" class="prefix__cls-1" data-name="Path 1756"/>
    </g>
</svg>
