<svg xmlns="http://www.w3.org/2000/svg" id="prefix__Exel_download" width="25.197" height="27.849" viewBox="0 0 25.197 27.849">
    <defs>
        <style>
            .prefix__cls-1{fill:#007732}.prefix__cls-2{fill:#ff9a30}
        </style>
    </defs>
    <g id="prefix__Group_1332" data-name="Group 1332">
        <g id="prefix__Group_1324" data-name="Group 1324" transform="translate(7.515 13.203)">
            <path id="prefix__Path_1593" d="M55.076 69.308h-1.833l-1.761-2.865-1.762 2.865H48l2.512-3.908-2.352-3.668h1.772l1.632 2.725 1.6-2.725H54.9l-2.383 3.758z" class="prefix__cls-1" data-name="Path 1593" transform="translate(-48 -61.734)"/>
        </g>
        <g id="prefix__Group_1331" data-name="Group 1331">
            <g id="prefix__Group_1325" data-name="Group 1325" transform="translate(14.588 17.24)">
                <path id="prefix__Path_1594" d="M85.3 80a5.3 5.3 0 1 0 5.3 5.3 5.3 5.3 0 0 0-5.3-5.3zm2.405 3.755l-.025.039-1.819 2.528a.663.663 0 0 1-1.121 0l-1.84-2.567a.663.663 0 0 1 .576-.992h.945v-1.437a.664.664 0 0 1 .663-.663h.442a.664.664 0 0 1 .663.663v1.437h.945a.663.663 0 0 1 .576.992z" class="prefix__cls-1" data-name="Path 1594" transform="translate(-80 -80)"/>
            </g>
            <g id="prefix__Group_1330" data-name="Group 1330">
                <g id="prefix__Group_1326" data-name="Group 1326" transform="translate(15.461 27.396)">
                    <path id="prefix__Path_1595" d="M83.961 125.95l-.011.011h.011z" class="prefix__cls-2" data-name="Path 1595" transform="translate(-83.95 -125.95)"/>
                </g>
                <g id="prefix__Group_1327" data-name="Group 1327" transform="translate(22.092 16.566)">
                    <path id="prefix__Path_1596" d="M113.961 76.961v-.011l-.011.011z" class="prefix__cls-2" data-name="Path 1596" transform="translate(-113.95 -76.95)"/>
                </g>
                <g id="prefix__Group_1328" data-name="Group 1328">
                    <path id="prefix__Path_1597" d="M35.455 11.337l-8.689-8.69A2.2 2.2 0 0 0 25.2 2h-8.99A2.213 2.213 0 0 0 14 4.21V27.2a2.213 2.213 0 0 0 2.21 2.21h13.251l-.884-.884H16.21a1.327 1.327 0 0 1-1.326-1.326V4.21a1.328 1.328 0 0 1 1.326-1.326h8.99a1.317 1.317 0 0 1 .938.388l8.689 8.689a1.336 1.336 0 0 1 .388.938v4.782l.884.884V12.9a2.2 2.2 0 0 0-.644-1.563z" class="prefix__cls-1" data-name="Path 1597" transform="translate(-14 -2)"/>
                </g>
                <g id="prefix__Group_1329" data-name="Group 1329" transform="translate(21.219 15.682)">
                    <path id="prefix__Path_1598" fill="#fff" d="M110.873 73.845l.011-.011-.884-.884" data-name="Path 1598" transform="translate(-110 -72.95)"/>
                </g>
            </g>
        </g>
    </g>
</svg>
