<svg xmlns="http://www.w3.org/2000/svg" width="18.667" height="14" viewBox="0 0 18.667 14">
    <g>
        <path d="M16.917 3v.583a.584.584 0 1 1-1.167 0V3h-1.361a.389.389 0 0 0-.389.389V6.5a.389.389 0 0 0 .389.389h3.889a.389.389 0 0 0 .389-.389V3.389A.389.389 0 0 0 18.278 3z" data-name="Path 1336" transform="translate(0 -3)"/>
        <path d="M18.083 8.056h-5.25V3.583a.584.584 0 0 0-1.167 0v6.806h-.8L9.037 5.2A2.141 2.141 0 0 0 7.02 3.778H4.472a.584.584 0 0 0-.583.583v4.083h-1.75A2.141 2.141 0 0 0 0 10.583v3.5a1.363 1.363 0 0 0 1.361 1.361H1.6a1.944 1.944 0 0 0 3.81 0h1.629a1.944 1.944 0 0 0 3.81 0h1.4a.584.584 0 0 0 .583-.583V9.222h5.25a.584.584 0 0 0 0-1.167zM5.056 4.944H7.02a.974.974 0 0 1 .917.649l1.692 4.8h-3.6a.974.974 0 0 1-.972-.972V4.944zM3.5 15.833a.778.778 0 1 1 .778-.778.779.779 0 0 1-.778.778zm5.444 0a.778.778 0 1 1 .778-.778.779.779 0 0 1-.778.778z" data-name="Path 1337" transform="translate(0 -3)"/>
    </g>
</svg>
