<svg xmlns="http://www.w3.org/2000/svg" width="58" height="58" viewBox="0 0 58 58">
    <defs>
        <filter id="prefix__Ellipse_30" width="58" height="58" x="0" y="0" filterUnits="userSpaceOnUse">
            <feOffset dy="3"/>
            <feGaussianBlur result="blur" stdDeviation="3"/>
            <feFlood flood-opacity=".161"/>
            <feComposite in2="blur" operator="in"/>
            <feComposite in="SourceGraphic"/>
        </filter>
    </defs>
    <g id="prefix__Group_2570" data-name="Group 2570" transform="translate(-118 -810)">
        <g filter="url(#prefix__Ellipse_30)" transform="translate(118 810)">
            <circle id="prefix__Ellipse_30-2" cx="20" cy="20" r="20" fill="#fff" data-name="Ellipse 30" transform="translate(9 6)"/>
        </g>
        <path id="prefix__compare_model" fill="#14ce40" stroke="#14ce40" stroke-width="0.5px" d="M13.772 22.991a1.287 1.287 0 0 1-1.286-1.286V5.3a1.287 1.287 0 0 1 1.286-1.286h8.995A1.287 1.287 0 0 1 24.053 5.3v16.4a1.287 1.287 0 0 1-1.286 1.286zm-.581-1.286a.582.582 0 0 0 .581.581h9a.582.582 0 0 0 .581-.581V20.7H13.191zm0-16.4V19.99h10.157V5.3a.582.582 0 0 0-.581-.581h-1.829l-.17.75a.812.812 0 0 1-.8.636H18.62a.352.352 0 0 1 0-.7h1.352a.111.111 0 0 0 .109-.087l.135-.595h-3.892l.135.595a.111.111 0 0 0 .109.087h.392a.352.352 0 1 1 0 .7h-.392a.812.812 0 0 1-.8-.636l-.17-.75h-1.826a.582.582 0 0 0-.581.581zM1.286 22.991A1.287 1.287 0 0 1 0 21.705V5.3a1.287 1.287 0 0 1 1.286-1.283h8.995A1.287 1.287 0 0 1 11.566 5.3v16.4a1.287 1.287 0 0 1-1.286 1.286zM.7 21.705a.582.582 0 0 0 .581.581h9a.582.582 0 0 0 .581-.581V20.7H.7zM.7 5.3v14.69h10.162V5.3a.582.582 0 0 0-.581-.581h-1.83l-.17.75a.812.812 0 0 1-.8.636h-3.4a.812.812 0 0 1-.8-.636l-.17-.75H1.286A.582.582 0 0 0 .7 5.3zm3.268.014a.111.111 0 0 0 .109.087h3.4a.111.111 0 0 0 .109-.087l.135-.595H3.838zm10.078 7.04a4.219 4.219 0 1 1 4.219 4.219 4.224 4.224 0 0 1-4.215-4.217zm.7 0a3.515 3.515 0 1 0 3.524-3.513 3.519 3.519 0 0 0-3.515 3.515zm-12.912 0a4.219 4.219 0 0 1 8.439 0 4.177 4.177 0 0 1-.448 1.894.352.352 0 0 1-.63-.317 3.478 3.478 0 0 0 .373-1.577 3.515 3.515 0 1 0-3.515 3.515 3.476 3.476 0 0 0 2.2-.776.352.352 0 1 1 .442.549 4.22 4.22 0 0 1-6.865-3.287zm14.44 1.976a1.066 1.066 0 0 1 .005-1.5l.466-.465-.46-.45a1.081 1.081 0 1 1 1.526-1.532l.458.458.458-.458a1.081 1.081 0 1 1 1.529 1.529l-.462.453.466.465a1.064 1.064 0 0 1-1.5 1.513l-.5-.485-.5.485a1.066 1.066 0 0 1-1.5-.012zm.507-3.45a.377.377 0 0 0 0 .532l.712.7a.352.352 0 0 1 0 .5l-.719.717a.359.359 0 0 0 .5.511l.742-.726a.352.352 0 0 1 .493 0l.742.726a.359.359 0 0 0 .5-.511l-.556-.554-.163-.162a.352.352 0 0 1 0-.5l.714-.7a.377.377 0 0 0-.535-.53l-.707.707a.352.352 0 0 1-.5 0l-.707-.707a.377.377 0 0 0-.532 0zM4.929 14.328l-1.166-1.167A1.013 1.013 0 0 1 5.2 11.728l.238.238 1.494-1.494A1.013 1.013 0 1 1 8.361 11.9l-2.422 2.428a.714.714 0 0 1-1.009 0zm-.668-2.1a.309.309 0 0 0 0 .436l1.166 1.166a.009.009 0 0 0 .013 0l2.423-2.423a.309.309 0 1 0-.436-.436L5.71 12.687a.39.39 0 0 1-.552 0l-.46-.46a.309.309 0 0 0-.436 0zm14.008-8.845a.352.352 0 0 1-.352-.353V1.768l-.8-1.222a.352.352 0 0 1 .59-.385l.56.857.553-.85a.352.352 0 1 1 .591.384l-.792 1.216v1.264a.352.352 0 0 1-.352.351zM6.5 3.233l-.716-1.025-.722 1.025a.352.352 0 1 1-.576-.406L5.353 1.6 4.621.555A.352.352 0 1 1 5.2.15l.587.834.585-.835a.352.352 0 1 1 .576.406L6.215 1.6l.866 1.231a.352.352 0 1 1-.576.406z" transform="translate(135 825)"/>
    </g>
</svg>
