<svg xmlns="http://www.w3.org/2000/svg" width="58" height="58" viewBox="0 0 58 58">
    <defs>
        <filter id="prefix__Ellipse_30" width="58" height="58" x="0" y="0" filterUnits="userSpaceOnUse">
            <feOffset dy="3"/>
            <feGaussianBlur result="blur" stdDeviation="3"/>
            <feFlood flood-opacity=".161"/>
            <feComposite in2="blur" operator="in"/>
            <feComposite in="SourceGraphic"/>
        </filter>
    </defs>
    <g id="prefix__Group_2567" data-name="Group 2567" transform="translate(-118 -940)">
        <g filter="url(#prefix__Ellipse_30)" transform="translate(118 940)">
            <circle id="prefix__Ellipse_30-2" cx="20" cy="20" r="20" fill="#fff" data-name="Ellipse 30" transform="translate(9 6)"/>
        </g>
        <path id="prefix__emi_calculator" fill="#d12a78" stroke="#d12a78" stroke-width="0.5px" d="M1.295 21.868A1.3 1.3 0 0 1 0 20.573V1.295A1.3 1.3 0 0 1 1.295 0h16.52a1.3 1.3 0 0 1 1.294 1.295v19.278a1.3 1.3 0 0 1-1.294 1.295zm11.79-1.036h4.73a.259.259 0 0 0 .259-.259V6.819h-4.99zm-6.024 0h4.989v-6.49H7.06zm-6.024-.259a.259.259 0 0 0 .259.259h4.73v-6.49h-4.99zm6.023-7.267h4.989V6.819H7.06zm-6.024 0h4.988V6.819H1.036zm0-12.012v4.489h17.037V1.295a.259.259 0 0 0-.259-.259H1.295a.259.259 0 0 0-.259.259zM8.2 18.946a.518.518 0 0 1 0-.732l1.982-1.982a.518.518 0 0 1 .732.732l-1.985 1.982a.518.518 0 0 1-.732 0zm-4.042 0l-.625-.625-.625.625a.518.518 0 0 1-.732-.732l.625-.625-.625-.625a.518.518 0 0 1 .732-.732l.625.625.625-.625a.518.518 0 0 1 .732.732l-.625.625.625.625a.518.518 0 1 1-.732.732zm5.942-.366a.442.442 0 1 1 .442.442.442.442 0 0 1-.442-.442zM8.121 16.6a.442.442 0 1 1 .442.442.442.442 0 0 1-.442-.442zm6.119-1.35a.518.518 0 1 1 0-1.036h2.647a.518.518 0 0 1 0 1.036zm0-1.807a.518.518 0 1 1 0-1.036h2.647a.518.518 0 0 1 0 1.036zm-11.228-2.1v-.762H2.25a.518.518 0 1 1 0-1.036h.762v-.762a.518.518 0 1 1 1.036 0v.762h.762a.518.518 0 1 1 0 1.036h-.762v.762a.518.518 0 1 1-1.036 0zm5.236-.762a.518.518 0 1 1 0-1.036h2.612a.518.518 0 1 1 0 1.036z" transform="translate(137 955)"/>
    </g>
</svg>
