<svg width="24" height="22" viewBox="0 0 24 22" fill="none" xmlns="http://www.w3.org/2000/svg">
<path d="M23.5688 21.4642V20.197C23.5688 19.9302 23.4561 19.6737 23.2601 19.5044C22.1674 18.5655 20.9914 17.9395 20.7513 17.8164C20.7219 17.801 20.7072 17.7754 20.7072 17.7446V15.9643C20.9228 15.8155 21.06 15.559 21.06 15.2716V13.4246C21.06 12.5063 20.3496 11.7623 19.4725 11.7623H19.2814H19.0903C18.2132 11.7623 17.5027 12.5063 17.5027 13.4246V15.2716C17.5027 15.559 17.6448 15.8155 17.8555 15.9643V17.7446C17.8555 17.7754 17.8408 17.8061 17.8114 17.8164C17.5713 17.9395 16.3953 18.5603 15.3026 19.5044C15.1066 19.6737 14.9939 19.9302 14.9939 20.197V21.4642" fill="black"/>
<path d="M4.74326 10.2115C4.49826 10.2115 4.29736 10.4124 4.29736 10.6574V12.4214C4.29736 14.5235 6.00745 16.2335 8.10953 16.2335H13.7151L12.9801 16.9685C12.8086 17.14 12.8086 17.4242 12.9801 17.5957C13.0683 17.6839 13.181 17.728 13.2937 17.728C13.4064 17.728 13.5191 17.6839 13.6073 17.5957L15.0969 16.1061C15.1802 16.0228 15.2292 15.9101 15.2292 15.7925C15.2292 15.6749 15.1802 15.5622 15.0969 15.4789L13.6073 13.9894C13.4358 13.8179 13.1516 13.8179 12.9801 13.9894C12.8086 14.1609 12.8086 14.4451 12.9801 14.6165L13.7151 15.3515H8.10953C6.49745 15.3515 5.18426 14.0384 5.18426 12.4263V10.6623C5.18426 10.4075 4.98826 10.2115 4.74326 10.2115Z" fill="black"/>
<path d="M10.3731 5.93386C10.4613 6.02206 10.574 6.06616 10.6867 6.06616C10.7994 6.06616 10.9121 6.02206 11.0003 5.93386C11.1718 5.76237 11.1718 5.47817 11.0003 5.30667L10.2653 4.57168H15.8953C17.5074 4.57168 18.8206 5.88486 18.8206 7.49695V9.26094C18.8206 9.50593 19.0215 9.70683 19.2665 9.70683C19.5115 9.70683 19.7124 9.50593 19.7124 9.26094V7.49695C19.7124 5.39487 18.0023 3.68478 15.9002 3.68478H10.2702L11.0052 2.94979C11.1767 2.77829 11.1767 2.49409 11.0052 2.32259C10.8337 2.1511 10.5495 2.1511 10.378 2.32259L8.8884 3.81218C8.8051 3.89548 8.7561 4.00818 8.7561 4.12578C8.7561 4.24338 8.8051 4.35608 8.8884 4.43938L10.3731 5.93386Z" fill="black"/>
<path d="M0.455696 10.1576C0.700694 10.1576 0.901592 9.95672 0.901592 9.71172V8.50143C0.901592 8.37893 0.955492 8.26133 1.04859 8.18293C2.10698 7.31564 3.25357 6.73744 3.46917 6.62964C3.64557 6.54145 3.76317 6.36015 3.76317 6.15925V4.45896C3.76317 4.31196 3.68967 4.16987 3.56717 4.09147C3.46917 4.02777 3.41037 3.91507 3.41037 3.79747V2.03348C3.41037 1.40139 3.92487 0.886893 4.55206 0.886893H4.92936C5.56145 0.886893 6.07105 1.40139 6.07105 2.03348V3.79747C6.07105 3.91507 6.01225 4.02287 5.91425 4.09147C5.79175 4.17477 5.71825 4.31196 5.71825 4.45896V6.15925C5.71825 6.35525 5.83095 6.54145 6.01225 6.62964C6.23275 6.73744 7.37934 7.31564 8.43283 8.18293C8.52593 8.26133 8.57983 8.37403 8.57983 8.50143V9.71172C8.57983 9.95672 8.78073 10.1576 9.02572 10.1576C9.27072 10.1576 9.47162 9.95672 9.47162 9.71172V8.50143C9.47162 8.10943 9.30012 7.74684 8.99633 7.49694C8.06043 6.72764 7.05594 6.16905 6.60515 5.93385V4.66476C6.83054 4.43446 6.95794 4.12577 6.95794 3.79747V2.03348C6.95794 0.911392 6.04655 0 4.92446 0H4.54716C3.42507 0 2.51368 0.911392 2.51368 2.03348V3.79747C2.51368 4.12577 2.64108 4.43446 2.86648 4.66476V5.93385C2.41568 6.16905 1.41119 6.72764 0.475296 7.49694C0.176399 7.74194 0 8.10943 0 8.50143V9.71172C0.00979992 9.96162 0.210698 10.1576 0.455696 10.1576Z" fill="black"/>
<path d="M15.0085 18.7963C14.7096 19.0413 14.5332 19.4087 14.5332 19.8007V21.011C14.5332 21.256 14.7341 21.4569 14.9791 21.4569C15.2241 21.4569 15.425 21.256 15.425 21.011V19.8007C15.425 19.6782 15.4789 19.5606 15.572 19.4822C16.6304 18.615 17.777 18.0368 17.9926 17.929C18.169 17.8408 18.2866 17.6595 18.2866 17.4586V15.7583C18.2866 15.6113 18.2131 15.4692 18.0906 15.3908C17.9926 15.3271 17.9338 15.2144 17.9338 15.0968V13.3328C17.9338 12.7007 18.4483 12.1862 19.0755 12.1862H19.4528C20.0849 12.1862 20.5994 12.7007 20.5994 13.3328V15.0968C20.5994 15.2144 20.5406 15.3222 20.4426 15.3908C20.3201 15.4741 20.2466 15.6113 20.2466 15.7583V17.4586C20.2466 17.6546 20.3593 17.8408 20.5406 17.929C20.7611 18.0368 21.9076 18.615 22.9611 19.4822C23.0542 19.5606 23.1081 19.6733 23.1081 19.8007V21.011C23.1081 21.256 23.309 21.4569 23.554 21.4569C23.799 21.4569 23.9999 21.256 23.9999 21.011V19.8007C23.9999 19.4087 23.8284 19.0462 23.5246 18.7963C22.5887 18.027 21.5842 17.4684 21.1334 17.2332V15.9641C21.3588 15.7338 21.4862 15.4251 21.4862 15.0968V13.3328C21.4862 12.2107 20.5749 11.2993 19.4528 11.2993H19.0755C17.9534 11.2993 17.042 12.2107 17.042 13.3328V15.0968C17.042 15.4251 17.1694 15.7338 17.3948 15.9641V17.2332C16.9489 17.4684 15.9493 18.027 15.0085 18.7963Z" fill="black"/>
</svg>
