<svg xmlns="http://www.w3.org/2000/svg" width="20" height="22.655" viewBox="0 0 20 22.655">
    <path d="M20.001 10A10 10 0 0 0 2.929 2.929 9.934 9.934 0 0 0 .001 10v7.345H2.65v1.327h1.327a2.658 2.658 0 0 0 2.655-2.655v-4.646a2.658 2.658 0 0 0-2.655-2.654H2.65v1.327H1.328V10a8.622 8.622 0 0 1 .762-3.553 3.338 3.338 0 0 0 3.656-.7 6.017 6.017 0 0 1 8.51 0 3.337 3.337 0 0 0 3.656.7A8.622 8.622 0 0 1 18.673 10v.044h-1.328V8.717h-1.322a2.658 2.658 0 0 0-2.655 2.655v4.646a2.658 2.658 0 0 0 2.649 2.655v.664a1.993 1.993 0 0 1-1.991 1.991h-.825a1.991 1.991 0 0 0-1.877-2.655H8.673a1.991 1.991 0 1 0 0 3.982h5.354a3.322 3.322 0 0 0 3.319-3.319v-1.991h2.655zm-16.023.044a1.329 1.329 0 0 1 1.323 1.327v4.646a1.329 1.329 0 0 1-1.327 1.327zM2.65 11.371v4.646H1.328v-4.646zm12.544-6.565a7.345 7.345 0 0 0-10.388 0 2 2 0 0 1-2.074.467 8.666 8.666 0 0 1 14.536 0 2 2 0 0 1-2.074-.467zM8.673 21.327a.664.664 0 1 1 0-1.327h2.655a.664.664 0 1 1 0 1.327zm7.345-3.982a1.329 1.329 0 0 1-1.322-1.327v-4.647a1.329 1.329 0 0 1 1.322-1.327zm1.327-1.327v-4.647h1.327v4.646zm0 0"/>
</svg>
