<svg xmlns="http://www.w3.org/2000/svg" width="22.127" height="22.129" viewBox="0 0 22.127 22.129">
    <path d="M21.533 9.626L12.5.601a2.037 2.037 0 0 0-2.881 0L.6 9.619l-.009.009a2.036 2.036 0 0 0 1.356 3.473h.423v6.643a2.387 2.387 0 0 0 2.384 2.384h3.532a.648.648 0 0 0 .648-.648v-5.207a1.089 1.089 0 0 1 1.088-1.088h2.083a1.089 1.089 0 0 1 1.088 1.088v5.208a.648.648 0 0 0 .648.648h3.532a2.387 2.387 0 0 0 2.384-2.384v-6.644h.334a2.038 2.038 0 0 0 1.442-3.477zm-.918 1.963a.736.736 0 0 1-.524.217h-.982a.648.648 0 0 0-.648.648v7.291a1.089 1.089 0 0 1-1.088 1.088h-2.884v-4.56a2.387 2.387 0 0 0-2.384-2.384h-2.083a2.387 2.387 0 0 0-2.385 2.384v4.56H4.754a1.089 1.089 0 0 1-1.088-1.088v-7.291a.648.648 0 0 0-.648-.648h-1a.74.74 0 0 1-.51-1.263l9.032-9.029a.74.74 0 0 1 1.047 0l9.025 9.024a.742.742 0 0 1 0 1.046zm0 0" data-name="home-run (1)"/>
</svg>
