<svg xmlns="http://www.w3.org/2000/svg" width="24.532" height="24.534" viewBox="0 0 24.532 24.534">
    <path d="M23.873 10.672L13.863.662a2.258 2.258 0 0 0-3.194 0l-10 10-.01.01a2.258 2.258 0 0 0 1.5 3.848H2.629v7.371a2.647 2.647 0 0 0 2.644 2.643h3.913a.719.719 0 0 0 .719-.719v-5.773a1.207 1.207 0 0 1 1.206-1.206h2.309a1.207 1.207 0 0 1 1.206 1.206v5.774a.719.719 0 0 0 .719.719h3.915a2.646 2.646 0 0 0 2.64-2.644v-7.365h.37a2.259 2.259 0 0 0 1.6-3.855zm-1.018 2.177a.816.816 0 0 1-.581.241h-1.088a.719.719 0 0 0-.719.719v8.082a1.207 1.207 0 0 1-1.206 1.21h-3.2v-5.059a2.647 2.647 0 0 0-2.64-2.641h-2.31a2.647 2.647 0 0 0-2.644 2.644v5.056h-3.2a1.207 1.207 0 0 1-1.202-1.21v-8.083a.719.719 0 0 0-.719-.719h-1.1a.82.82 0 0 1-.565-1.4L11.685 1.678a.821.821 0 0 1 1.161 0l10.006 10.006a.823.823 0 0 1 0 1.16zm0 0"/>
</svg>
