<svg width="24" height="25" viewBox="0 0 24 25" fill="none" xmlns="http://www.w3.org/2000/svg">
<path d="M23.8679 11.0203L20.2757 7.68463V2.22002H16.1378V3.84252L11.9998 0L0.132082 11.0203C-0.0350925 11.1758 -0.0450237 11.4378 0.110564 11.6054C0.265738 11.7725 0.527672 11.7821 0.695674 11.6269L2.06907 10.3516V24.1513H8.68983H15.3106H21.9313V10.3511L23.3047 11.6265C23.3842 11.7005 23.4856 11.737 23.5865 11.737C23.6978 11.737 23.8083 11.6927 23.8894 11.6049C24.045 11.4378 24.0351 11.1758 23.8679 11.0203ZM16.9654 3.04762H19.4481V6.91621L16.9654 4.61094V3.04762ZM9.51701 23.3237V14.6079C9.51701 14.3939 9.6908 14.2201 9.90474 14.2201H14.0948C14.3088 14.2201 14.4826 14.3939 14.4826 14.6079V23.3237H9.51701ZM21.1033 23.3237H15.3102V14.6079C15.3102 13.9375 14.7652 13.3926 14.0948 13.3926H9.90474C9.23438 13.3926 8.68941 13.9375 8.68941 14.6079V23.3237H2.89625V9.58272L11.9998 1.12925L17.9088 6.61621L20.2757 8.81388L21.1033 9.58231V23.3237Z" fill="black"/>
</svg>
