<svg xmlns="http://www.w3.org/2000/svg" width="14" height="18" viewBox="0 0 14 18">
    <path d="M13.886 3.859L10 .11A.4.4 0 0 0 9.722 0H1.556A1.53 1.53 0 0 0 0 1.5v15A1.53 1.53 0 0 0 1.556 18h10.888A1.53 1.53 0 0 0 14 16.5V4.125a.367.367 0 0 0-.114-.266zM3.5 5.25a1.148 1.148 0 0 1-1.167-1.125 1.127 1.127 0 0 1 .778-1.056V3a.389.389 0 0 1 .778 0h.389a.375.375 0 1 1 0 .75H3.5a.375.375 0 1 0 0 .75 1.148 1.148 0 0 1 1.167 1.125 1.127 1.127 0 0 1-.778 1.056v.069a.389.389 0 0 1-.778 0h-.389a.375.375 0 1 1 0-.75H3.5a.375.375 0 1 0 0-.75zm3.889 10.5H2.722a.375.375 0 1 1 0-.75h4.667a.375.375 0 1 1 0 .75zm3.889-2.25H2.722a.375.375 0 1 1 0-.75h8.556a.375.375 0 1 1 0 .75zm0-2.25H2.722a.375.375 0 1 1 0-.75h8.556a.375.375 0 1 1 0 .75zm0-2.25H2.722a.375.375 0 1 1 0-.75h8.556a.375.375 0 1 1 0 .75zm0-2.25H6.611a.375.375 0 1 1 0-.75h4.667a.375.375 0 1 1 0 .75zm-.389-3a.765.765 0 0 1-.778-.75V1.28l2.561 2.47z"/>
</svg>
