<svg xmlns="http://www.w3.org/2000/svg" width="16" height="19" viewBox="0 0 16 19">
    <g>
        <g data-name="Group 995">
            <g data-name="Group 994">
                <path d="M0 0H3V3H0z" data-name="Rectangle 261" transform="translate(-32 -.062) translate(32 .062)"/>
            </g>
        </g>
        <g data-name="Group 997">
            <g data-name="Group 996">
                <path d="M0 0H3V3H0z" data-name="Rectangle 262" transform="translate(-32 -.062) translate(38.306 .062) translate(-.306)"/>
            </g>
        </g>
        <g data-name="Group 999">
            <g data-name="Group 998">
                <path d="M0 0H3V3H0z" data-name="Rectangle 263" transform="translate(-32 -.062) translate(44.613 .062) translate(.387)"/>
            </g>
        </g>
        <g data-name="Group 1001">
            <g data-name="Group 1000">
                <path d="M0 0H3.14V3.14H0z" data-name="Rectangle 264" transform="translate(-32 -.062) translate(32 5.262)"/>
            </g>
        </g>
        <g data-name="Group 1003">
            <g data-name="Group 1002">
                <path d="M0 0H3.14V3.14H0z" data-name="Rectangle 265" transform="translate(-32 -.062) translate(38.281 5.262)"/>
            </g>
        </g>
        <g data-name="Group 1005">
            <g data-name="Group 1004">
                <path d="M0 0H3.14V3.14H0z" data-name="Rectangle 266" transform="translate(-32 -.062) translate(44.561 5.262)"/>
            </g>
        </g>
        <g data-name="Group 1007">
            <g data-name="Group 1006">
                <path d="M0 0H3.14V3.14H0z" data-name="Rectangle 267" transform="translate(-32 -.062) translate(32 10.495)"/>
            </g>
        </g>
        <g data-name="Group 1009">
            <g data-name="Group 1008">
                <path d="M0 0H3.14V3.14H0z" data-name="Rectangle 268" transform="translate(-32 -.062) translate(38.281 10.495)"/>
            </g>
        </g>
        <g data-name="Group 1011">
            <g data-name="Group 1010">
                <path d="M0 0H3V3H0z" data-name="Rectangle 269" transform="translate(-32 -.062) translate(38.306 15.828) translate(-.306 .234)"/>
            </g>
        </g>
        <g data-name="Group 1013">
            <g data-name="Group 1012">
                <path d="M0 0H3.14V3.14H0z" data-name="Rectangle 270" transform="translate(-32 -.062) translate(44.561 10.495)"/>
            </g>
        </g>
    </g>
</svg>
