<svg xmlns="http://www.w3.org/2000/svg" width="71" height="71" viewBox="0 0 71 71">
    <defs>
        <linearGradient id="prefix__linear-gradient" x1=".5" x2=".5" y2="1" gradientUnits="objectBoundingBox">
            <stop offset="0" stop-color="#6100ed"/>
            <stop offset="1" stop-color="#310077"/>
        </linearGradient>
        <filter id="prefix__Ellipse_34" width="71" height="71" x="0" y="0" filterUnits="userSpaceOnUse">
            <feOffset dy="4"/>
            <feGaussianBlur result="blur" stdDeviation="2.5"/>
            <feFlood flood-opacity=".2"/>
            <feComposite in2="blur" operator="in"/>
            <feComposite in="SourceGraphic"/>
        </filter>
    </defs>
    <g id="prefix__knowledge_FAB" transform="translate(-4277.5 -1127.5)">
        <g id="prefix__Group_1544" data-name="Group 1544">
            <g filter="url(#prefix__Ellipse_34)" transform="translate(4277.5 1127.5)">
                <circle id="prefix__Ellipse_34-2" cx="28" cy="28" r="28" fill="#fff" data-name="Ellipse 34" transform="translate(7.5 3.5)"/>
            </g>
            <path id="prefix__Subtraction_9" fill="url(#prefix__linear-gradient)" d="M28 56A28.007 28.007 0 0 1 17.1 2.2a28.007 28.007 0 0 1 21.8 51.6A27.824 27.824 0 0 1 28 56zm-9.276-21.332a11.647 11.647 0 0 0 5.41 1.6 9.857 9.857 0 0 0 14.512 5.846l4.8 1.327-1.327-4.8a9.857 9.857 0 0 0-5.849-14.505 11.641 11.641 0 1 0-21.656 6.422l-1.572 5.681 5.682-1.571zM33.632 41.7a8.059 8.059 0 0 1-7.649-5.5 11.728 11.728 0 0 0 10.222-10.22 8.071 8.071 0 0 1 4.2 12.038l-.22.338.7 2.523-2.523-.7-.338.22a8.032 8.032 0 0 1-4.392 1.301zm-8.991-7.2a9.821 9.821 0 0 1-5.3-1.545l-.337-.214-3.4.941.941-3.4-.214-.335a9.856 9.856 0 1 1 8.31 4.555zm-1.032-4.3v2.158h2.158V30.2zm1.262-10.15a2.162 2.162 0 0 1 2.16 2.159 2.139 2.139 0 0 1-.7 1.593l-2.535 2.321v2.634h2.159v-1.683l1.83-1.674a4.317 4.317 0 1 0-7.232-3.186h2.159a2.162 2.162 0 0 1 2.159-2.164z" data-name="Subtraction 9" transform="translate(4285 1131)"/>
        </g>
    </g>
</svg>
