<svg xmlns="http://www.w3.org/2000/svg" width="18.4" height="16.402" viewBox="0 0 18.4 16.402">
    <g data-name="logout">
        <g data-name="Group 1533">
            <g data-name="Group 1532">
                <path d="M18.245 7.95l.018-.024.022-.029.018-.03.016-.028.015-.031.014-.03.011-.031.011-.033.008-.031.008-.034c.002-.012 0-.024.006-.036s0-.02 0-.03a.692.692 0 0 0 0-.135v-.03c0-.01 0-.024-.006-.036s-.005-.023-.008-.034 0-.021-.008-.031-.007-.022-.011-.032l-.011-.031-.014-.03-.015-.031-.016-.028-.018-.03-.022-.029-.018-.024c-.014-.017-.029-.034-.045-.05l-2.05-2.05a.683.683 0 1 0-.966.966l.884.884h-3.817a.683.683 0 1 0 0 1.367h3.817l-.884.884a.683.683 0 0 0 .966.966l2.05-2.05c.016-.015.031-.031.045-.049z" data-name="Path 1776" transform="translate(.989 .994) translate(-.989 -.994)"/>
                <path d="M13.506 9.567a.745.745 0 0 0-.794.683v3.417H9.534V2.734a.705.705 0 0 0-.566-.655l-2.76-.712h6.5v3.417a.8.8 0 0 0 1.589 0v-4.1a.745.745 0 0 0-.794-.683H.725a.743.743 0 0 0-.688.476C.031.492.027.508.022.524v.005l-.011.05v.007c0 .015 0 .031-.006.046a.629.629 0 0 0 0 .076v13.643a.718.718 0 0 0 .639.67l7.944 1.367a.77.77 0 0 0 .95-.67v-.684h3.972a.745.745 0 0 0 .794-.683v-4.1a.745.745 0 0 0-.798-.684zm-5.561 5.318l-6.356-1.091V1.602l6.355 1.64v11.643z" data-name="Path 1777" transform="translate(.989 .994) translate(-.989 -.994)"/>
            </g>
        </g>
    </g>
</svg>
