<svg xmlns="http://www.w3.org/2000/svg" width="13.426" height="10.118" viewBox="0 0 13.426 10.118">
    <g data-name="Group 916">
        <path d="M12.307 0H1.119A1.123 1.123 0 0 0 0 1.124v7.869a1.123 1.123 0 0 0 1.119 1.124h11.188a1.123 1.123 0 0 0 1.119-1.124V1.124A1.123 1.123 0 0 0 12.307 0zM1.119.562h11.188a.531.531 0 0 1 .116.024c-.969.891-4.181 3.843-5.3 4.861a.559.559 0 0 1-.812 0c-1.124-1.017-4.336-3.97-5.3-4.86a.533.533 0 0 1 .108-.025zm-.56 8.431V1.124A.545.545 0 0 1 .59.969c.741.682 2.983 2.742 4.436 4.07-1.448 1.25-3.69 3.386-4.437 4.1a.544.544 0 0 1-.03-.146zm11.748.562H1.119a.533.533 0 0 1-.126-.026c.772-.74 3.028-2.887 4.451-4.111l.489.444a1.114 1.114 0 0 0 1.561 0l.489-.444c1.423 1.223 3.679 3.371 4.451 4.111a.532.532 0 0 1-.127.027zm.559-.562a.545.545 0 0 1-.03.146c-.748-.716-2.989-2.852-4.437-4.1 1.453-1.328 3.694-3.388 4.436-4.07a.545.545 0 0 1 .031.155z" data-name="Path 1465"/>
    </g>
</svg>
