<svg xmlns="http://www.w3.org/2000/svg" width="18.621" height="18.622" viewBox="0 0 18.621 18.622">
    <path d="M8.074 18.622a.728.728 0 0 1-.727-.727v-1.086A7.694 7.694 0 0 1 5.4 16l-.769.769a.728.728 0 0 1-1.029 0L1.853 15.02a.728.728 0 0 1 0-1.029l.769-.769a7.686 7.686 0 0 1-.808-1.948H.729a.728.728 0 0 1-.727-.728V8.073a.728.728 0 0 1 .727-.727h1.084a7.66 7.66 0 0 1 .806-1.951l-.765-.765a.728.728 0 0 1 0-1.029l1.749-1.75a.728.728 0 0 1 1.029 0l.763.763a7.692 7.692 0 0 1 1.954-.812V.726a.727.727 0 0 1 .727-.727h2.473a.727.727 0 0 1 .727.727V1.8a7.645 7.645 0 0 1 1.957.81l.76-.76a.728.728 0 0 1 1.029 0l1.749 1.75a.728.728 0 0 1 0 1.029l-.76.759a7.7 7.7 0 0 1 .811 1.957h1.074a.728.728 0 0 1 .727.727v2.473a.728.728 0 0 1-.727.728H16.82a7.7 7.7 0 0 1-.811 1.954l.762.762a.728.728 0 0 1 0 1.029l-1.749 1.749a.728.728 0 0 1-1.029 0l-.765-.765a7.683 7.683 0 0 1-1.952.807v1.084a.728.728 0 0 1-.727.727zM5.54 15.234a6.968 6.968 0 0 0 2.249.932.364.364 0 0 1 .285.356v1.372h2.473v-1.371a.362.362 0 0 1 .285-.355 7 7 0 0 0 2.253-.931.364.364 0 0 1 .453.049l.967.967 1.749-1.749-.965-.966a.365.365 0 0 1-.049-.454 6.948 6.948 0 0 0 .936-2.255.364.364 0 0 1 .355-.285h1.363V8.071h-1.361a.364.364 0 0 1-.355-.285 6.97 6.97 0 0 0-.934-2.258.364.364 0 0 1 .049-.453l.961-.962-1.749-1.749-.961.962a.365.365 0 0 1-.454.049 6.964 6.964 0 0 0-2.258-.935.364.364 0 0 1-.285-.355V.724H8.074v1.363a.364.364 0 0 1-.285.356 6.986 6.986 0 0 0-2.254.936.362.362 0 0 1-.453-.049l-.966-.966-1.749 1.749.967.968a.364.364 0 0 1 .049.453 6.956 6.956 0 0 0-.931 2.253.364.364 0 0 1-.355.285H.727v2.473H2.1a.364.364 0 0 1 .355.285 6.962 6.962 0 0 0 .933 2.249.365.365 0 0 1-.049.454l-.971.971 1.749 1.749.971-.971a.362.362 0 0 1 .453-.049zm.016-2.169a5.31 5.31 0 0 1 6.35-8.388 11.215 11.215 0 0 1 1.391 1.163 4.119 4.119 0 0 1 .766 1.1 5.311 5.311 0 0 1-8.507 6.127zm.515-6.995a4.583 4.583 0 1 0 7.341 1.193.37.37 0 0 1-.022-.054 2.967 2.967 0 0 0-.578-.822 12.057 12.057 0 0 0-1.262-1.076 4.6 4.6 0 0 0-5.48.76zm7.504.705zM8.54 11.883l-2.3-2.3a.365.365 0 0 1 0-.514l1.3-1.3a.364.364 0 0 1 .514 0l.739.739 1.765-1.765a.363.363 0 0 1 .514 0l1.3 1.3a.364.364 0 0 1 0 .515l-3.326 3.326a.365.365 0 0 1-.515 0zM7.012 9.326l1.786 1.786L11.611 8.3l-.79-.79-1.765 1.765a.365.365 0 0 1-.515 0l-.738-.738z"/>
</svg>
