<svg xmlns="http://www.w3.org/2000/svg" width="21.194" height="6.517" viewBox="0 0 21.194 6.517">
    <path id="prefix__mate" d="M1.358-10.1h1.066v-3.2A1.085 1.085 0 0 1 3.5-14.464a.913.913 0 0 1 .982.977v3.387h1.05v-3.24A1.054 1.054 0 0 1 6.6-14.464a.932.932 0 0 1 .992 1.056v3.31h1.073v-3.567a1.6 1.6 0 0 0-1.7-1.712 1.694 1.694 0 0 0-1.618 1.016h-.022a1.423 1.423 0 0 0-1.45-1.016 1.535 1.535 0 0 0-1.475.962h-.025v-.873H1.358zm10.148-.755c-.572 0-.947-.3-.947-.75s.36-.725 1-.77l1.278-.079v.409a1.244 1.244 0 0 1-1.331 1.192zm-.3.844a1.854 1.854 0 0 0 1.638-.942h.025v.853h1.021v-3.577c0-1.041-.8-1.707-2.062-1.707-1.283 0-2.082.691-2.141 1.628H10.7a.994.994 0 0 1 1.1-.76c.651 0 1.041.345 1.041.923v.4l-1.421.084c-1.233.069-1.929.627-1.929 1.534a1.573 1.573 0 0 0 1.719 1.565zm4.026-6.507v1.228h-.755v.844h.755v2.98c0 1 .409 1.4 1.46 1.4a2.935 2.935 0 0 0 .592-.049v-.844a2.331 2.331 0 0 1-.35.025c-.434 0-.631-.2-.631-.651v-2.861h.987v-.844h-.987v-1.228zm4.978 1.993a1.275 1.275 0 0 1 1.273 1.352h-2.592a1.338 1.338 0 0 1 1.323-1.351zm1.268 2.9a1.176 1.176 0 0 1-1.2.76 1.361 1.361 0 0 1-1.4-1.5v-.064h3.665v-.365a2.307 2.307 0 0 0-2.338-2.59 2.416 2.416 0 0 0-2.4 2.713A2.376 2.376 0 0 0 20.258-10a2.1 2.1 0 0 0 2.235-1.623z" transform="translate(-1.358 16.517)" style="fill:#0743ff"/>
</svg>
