<svg xmlns="http://www.w3.org/2000/svg" id="prefix__model_selection" width="42.16" height="18" viewBox="0 0 42.16 18">
    <defs>
        <style>
            .prefix__cls-1{fill:#fff}.prefix__cls-2{fill:#f4f4f4}.prefix__cls-3{fill:#d50000}.prefix__cls-4{fill:#b71c1c}
        </style>
    </defs>
    <path id="prefix__Path_1152" d="M361.79 285.268a3.6 3.6 0 1 1-3.6 3.6 3.6 3.6 0 0 1 3.6-3.6zm0 5.761a2.16 2.16 0 1 0-2.16-2.16 2.167 2.167 0 0 0 2.16 2.16z" data-name="Path 1152" transform="translate(-352.426 -274.469)"/>
    <path id="prefix__Path_1153" d="M71.323 285.268a3.6 3.6 0 1 1-3.6 3.6 3.6 3.6 0 0 1 3.6-3.6zm0 5.761a2.16 2.16 0 1 0-2.16-2.16 2.167 2.167 0 0 0 2.16 2.16z" data-name="Path 1153" transform="translate(-38.471 -274.469)"/>
    <path id="prefix__Path_1154" d="M.706 150.306v-3.149a1.578 1.578 0 0 1 .042-.192.857.857 0 0 1 .049-.119l2.842-4.023a.714.714 0 0 1 .464-.291c17.629-2.779 22.146-.007 22.35.126l5.466 3.857 8.941.642a.715.715 0 0 1 .584.384c.063.126 1.555 3.229.035 8.4a.7.7 0 0 1-.675.483h-2.11a.685.685 0 0 1-.7-.662 4.934 4.934 0 0 0-9.849 0 .685.685 0 0 1-.7.662H14.776a.685.685 0 0 1-.7-.662 4.79 4.79 0 0 0-4.924-4.631 4.79 4.79 0 0 0-4.924 4.631.685.685 0 0 1-.7.662H1.41a.707.707 0 0 1-.612-.337 6.01 6.01 0 0 1-.092-5.781zm3.932-6.51l-1.913 2.7h7.422l2.209-3.639c-2.216.184-4.77.475-7.717.943zm13.655-1.164c-1.231-.02-2.645.013-4.27.106a.8.8 0 0 1-.042.119l-2.216 3.639h6.528v-3.864zm7.344 1.1c-.021-.013-1.5-.854-5.937-1.065v3.824h9.849zM1.839 155.1h1.02a6.209 6.209 0 0 1 6.289-5.3 6.209 6.209 0 0 1 6.289 5.293h11.34a6.383 6.383 0 0 1 12.578 0h.908a13.863 13.863 0 0 0 .471-3.97H40.1a.663.663 0 1 1 0-1.323h.514a7.817 7.817 0 0 0-.317-1.356l-8.639-.629H2.113v1.323h.7a.663.663 0 1 1 0 1.323h-.7a.6.6 0 0 1-.091.324 4.865 4.865 0 0 0-.183 4.315z" data-name="Path 1154" transform="translate(0 -141.3)"/>
    <path id="prefix__Path_1155" d="M375.276 304.913a1.825 1.825 0 1 1 1.8 2.124 2.164 2.164 0 0 1-1.8-2.124z" class="prefix__cls-1" data-name="Path 1155" transform="translate(-367.552 -290.513)"/>
    <path id="prefix__Path_1156" d="M398.793 302.354a2.138 2.138 0 0 1 .36.037 2.153 2.153 0 0 0 0 4.247 2.139 2.139 0 0 1-.36.037 2.16 2.16 0 0 1 0-4.321z" class="prefix__cls-2" data-name="Path 1156" transform="translate(-389.606 -290.115)"/>
    <path id="prefix__Path_1157" d="M84.808 304.913a1.825 1.825 0 1 1 1.8 2.124 2.164 2.164 0 0 1-1.8-2.124z" class="prefix__cls-1" data-name="Path 1157" transform="translate(-53.217 -290.513)"/>
    <path id="prefix__Path_1158" d="M108.326 302.354a2.138 2.138 0 0 1 .36.037 2.153 2.153 0 0 0 0 4.247 2.141 2.141 0 0 1-.36.037 2.16 2.16 0 0 1 0-4.321z" class="prefix__cls-2" data-name="Path 1158" transform="translate(-75.256 -290.115)"/>
    <path id="prefix__Path_1159" d="M363.469 162.242c2.552-.4 4.82-.674 6.8-.85l-1.788 3.131h-6.537z" class="prefix__cls-1" data-name="Path 1159" transform="translate(-357.625 -159.698)"/>
    <g id="prefix__Group_402" data-name="Group 402" transform="translate(2.79 2.544)">
        <path id="prefix__Path_1160" d="M383.634 198.537l-.473.83z" class="prefix__cls-2" data-name="Path 1160" transform="translate(-375.564 -196.257)"/>
        <path id="prefix__Path_1161" d="M443.76 171.481c-.365.058-.718.109-1.1.172.382-.063.74-.115 1.1-.172z" class="prefix__cls-2" data-name="Path 1161" transform="translate(-440.705 -171.481)"/>
        <path id="prefix__Path_1162" d="M385.12 171.653c.378-.063.731-.115 1.1-.172l-1.521 2.281h6.536l-.473.83h-7.6z" class="prefix__cls-2" data-name="Path 1162" transform="translate(-383.161 -171.481)"/>
    </g>
    <path id="prefix__Path_1163" d="M291.746 158.479c1.2-.055 2.281-.073 3.247-.056v3.377h-5.149z" class="prefix__cls-1" data-name="Path 1163" transform="translate(-276.623 -156.974)"/>
    <g id="prefix__Group_403" data-name="Group 403" transform="translate(11.714 1.505)">
        <path id="prefix__Path_1164" d="M329.489 159.153c-.364.017-.737.036-1.124.059.387-.024.76-.042 1.124-.059z" class="prefix__cls-2" data-name="Path 1164" transform="translate(-326.054 -159.153)"/>
        <path id="prefix__Path_1165" d="M292.112 159.342a.908.908 0 0 0 .043-.13c.387-.024.76-.042 1.124-.059l-1.9 3.32h5.149v.83h-6.682z" class="prefix__cls-2" data-name="Path 1165" transform="translate(-289.844 -159.153)"/>
    </g>
    <g id="prefix__Group_404" data-name="Group 404" transform="translate(20.37 1.542)">
        <path id="prefix__Path_1166" d="M166.277 160.332c3.356.328 4.525 1.034 4.544 1.046l2.9 2.174h-7.442v-3.22z" class="prefix__cls-1" data-name="Path 1166" transform="translate(-165.545 -160.269)"/>
        <path id="prefix__Path_1167" d="M255.395 159.651q-.347-.034-.723-.062c.252.019.493.04.723.062z" class="prefix__cls-1" data-name="Path 1167" transform="translate(-254.672 -159.589)"/>
    </g>
    <g id="prefix__Group_405" data-name="Group 405" transform="translate(19.557 1.492)">
        <path id="prefix__Path_1168" d="M153.154 198.537l1.106.83z" class="prefix__cls-2" data-name="Path 1168" transform="translate(-144.178 -195.204)"/>
        <path id="prefix__Path_1170" d="M264.051 159.05c-.256-.019-.523-.036-.8-.05q.417.022.8.05z" class="prefix__cls-2" data-name="Path 1170" transform="translate(-263.249 -159)"/>
        <path id="prefix__Path_1171" d="M153.964 159.05c.251.019.492.04.723.062h.009v3.22h7.442l1.105.83h-10.081V159q.419.022.802.05z" class="prefix__cls-2" data-name="Path 1171" transform="translate(-153.162 -159)"/>
    </g>
    <g id="prefix__Group_406" data-name="Group 406" transform="translate(1.444 6.264)">
        <path id="prefix__Path_1172" d="M19.658 302.822c.028-.154.057-.31.081-.459-.024.15-.052.303-.081.459z" class="prefix__cls-3" data-name="Path 1172" transform="translate(19.321 -295.88)"/>
        <path id="prefix__Path_1173" d="M35.531 310.214c.005.021.012.042.016.063l-.016-.063z" class="prefix__cls-3" data-name="Path 1173" transform="translate(2.175 -303.071)"/>
        <path id="prefix__Path_1174" d="M185.148 310.27c.005-.022.012-.043.016-.065-.005.022-.012.043-.016.065z" class="prefix__cls-3" data-name="Path 1174" transform="translate(-159.704 -303.062)"/>
        <path id="prefix__Path_1175" d="M475.615 310.27c0-.022.012-.043.017-.065l-.017.065z" class="prefix__cls-3" data-name="Path 1175" transform="translate(-474.009 -303.062)"/>
        <path id="prefix__Path_1176" d="M326 310.214c.005.021.012.042.016.063-.006-.021-.016-.042-.016-.063z" class="prefix__cls-3" data-name="Path 1176" transform="translate(-312.133 -303.071)"/>
        <path id="prefix__Path_1177" d="M17.41 232.628a5.884 5.884 0 0 1 .445-3.927.7.7 0 0 0 .091-.353h.7a.72.72 0 0 0 0-1.44h-.7v-1.44h29.5l8.624.684a9.153 9.153 0 0 1 .316 1.476h-.516a.72.72 0 0 0 0 1.44h.63a15.81 15.81 0 0 1-.192 2.88H54.8a6.259 6.259 0 0 0-11.9 0H30.919a6.259 6.259 0 0 0-11.9 0H17.28a5.324 5.324 0 0 0 .13.68z" class="prefix__cls-3" data-name="Path 1177" transform="translate(-17.245 -225.467)"/>
        <path id="prefix__Path_1178" d="M489.917 311.977a4.8 4.8 0 0 1-.248-.687 4.713 4.713 0 0 0 .248.687z" class="prefix__cls-3" data-name="Path 1178" transform="translate(-489.479 -304.056)"/>
    </g>
    <g id="prefix__Group_407" data-name="Group 407" transform="translate(1.481 12.561)">
        <path id="prefix__Path_1179" d="M492.608 310.419c.006.024.014.049.022.073l-.022-.073z" class="prefix__cls-4" data-name="Path 1179" transform="translate(-492.476 -309.738)"/>
        <path id="prefix__Path_1180" d="M475.812 311.688a6.316 6.316 0 0 1 .124-.714 5.96 5.96 0 0 0-.124.714z" class="prefix__cls-4" data-name="Path 1180" transform="translate(-474.367 -310.247)"/>
        <path id="prefix__Path_1181" d="M473.5 302.354a6.838 6.838 0 0 0-.2.662 6.5 6.5 0 0 1 .2-.662z" class="prefix__cls-4" data-name="Path 1181" transform="translate(-471.715 -302.353)"/>
        <path id="prefix__Path_1182" d="M473.432 303.034a5.168 5.168 0 0 1-.132-.68h1.781a6.4 6.4 0 0 0-.2.662l-.017.065a6.445 6.445 0 0 0-.124.714h-1.04a4.7 4.7 0 0 1-.248-.687l-.02-.074z" class="prefix__cls-4" data-name="Path 1182" transform="translate(-473.3 -302.353)"/>
        <path id="prefix__Path_1184" d="M20.615 308.793c.084-.34.145-.661.2-.98-.053.317-.115.639-.2.98z" class="prefix__cls-4" data-name="Path 1184" transform="translate(18.122 -307.352)"/>
        <path id="prefix__Path_1185" d="M34.063 310.965a6.481 6.481 0 0 1 .124.714 5.963 5.963 0 0 0-.124-.714z" class="prefix__cls-4" data-name="Path 1185" transform="translate(3.621 -310.238)"/>
        <path id="prefix__Path_1186" d="M35.719 302.354a6.372 6.372 0 0 1 .2.663c-.06-.226-.119-.447-.2-.663z" class="prefix__cls-4" data-name="Path 1186" transform="translate(1.753 -302.353)"/>
        <path id="prefix__Path_1187" d="M21.208 302.346c-.024.15-.053.305-.081.459-.06.319-.121.64-.2.98h-.929a6.329 6.329 0 0 0-.124-.714l-.016-.063a6.361 6.361 0 0 0-.2-.663z" class="prefix__cls-4" data-name="Path 1187" transform="translate(17.814 -302.345)"/>
        <path id="prefix__Path_1188" d="M185.345 311.688a6.31 6.31 0 0 1 .124-.714 5.975 5.975 0 0 0-.124.714z" class="prefix__cls-4" data-name="Path 1188" transform="translate(-160.064 -310.247)"/>
        <path id="prefix__Path_1189" d="M183.029 302.354a6.872 6.872 0 0 0-.2.662 6.57 6.57 0 0 1 .2-.662z" class="prefix__cls-4" data-name="Path 1189" transform="translate(-157.417 -302.353)"/>
        <path id="prefix__Path_1190" d="M326.187 302.354a6.39 6.39 0 0 1 .2.663c-.059-.226-.124-.447-.2-.663z" class="prefix__cls-4" data-name="Path 1190" transform="translate(-312.552 -302.353)"/>
        <path id="prefix__Path_1191" d="M324.53 310.965a6.494 6.494 0 0 1 .124.714 6.006 6.006 0 0 0-.124-.714z" class="prefix__cls-4" data-name="Path 1191" transform="translate(-310.688 -310.238)"/>
        <path id="prefix__Path_1192" d="M194.917 303.015l-.017.065a6.459 6.459 0 0 0-.124.714h-11.607a6.344 6.344 0 0 0-.124-.714l-.016-.063a6.373 6.373 0 0 0-.2-.663h12.279a6.378 6.378 0 0 0-.191.661z" class="prefix__cls-4" data-name="Path 1192" transform="translate(-169.35 -302.352)"/>
    </g>
</svg>
