<svg xmlns="http://www.w3.org/2000/svg" width="17.084" height="26.786" viewBox="0 0 17.084 26.786">
    <g id="prefix__money_2_" data-name="money (2)" transform="translate(-72.806)">
        <path id="prefix__Path_1640" fill="#fff" d="M89.718 6.069a.592.592 0 0 0-.437-.171h-3.253a6.585 6.585 0 0 0-1.218-2.74h4.432a.585.585 0 0 0 .608-.608V.609A.585.585 0 0 0 89.243 0H73.415a.586.586 0 0 0-.609.609v2.53a.617.617 0 0 0 .609.609h2.759q4.014 0 5.1 2.15h-7.859a.586.586 0 0 0-.609.609v1.939a.586.586 0 0 0 .609.608h8.124a3.717 3.717 0 0 1-1.95 2.378 8.585 8.585 0 0 1-4.043.818h-2.131a.617.617 0 0 0-.609.609v2.416a.569.569 0 0 0 .171.419q3.652 3.881 9.474 10.863a.561.561 0 0 0 .476.228h3.71a.552.552 0 0 0 .552-.343.52.52 0 0 0-.076-.647q-5.554-6.811-8.732-10.2a9.648 9.648 0 0 0 5.251-2.093 7.112 7.112 0 0 0 2.454-4.452h3.2a.586.586 0 0 0 .609-.608V6.506a.592.592 0 0 0-.177-.437z" data-name="Path 1640"/>
    </g>
</svg>
