<svg xmlns="http://www.w3.org/2000/svg" width="12.154" height="12.154" viewBox="0 0 12.154 12.154">
    <path id="prefix__month" fill="red" d="M1.424 12.154A1.426 1.426 0 0 1 0 10.729V2.374A1.426 1.426 0 0 1 1.424.949h.57V0h.95v.949H9.21V0h.95v.949h.57a1.426 1.426 0 0 1 1.424 1.424v8.356a1.426 1.426 0 0 1-1.424 1.424zm-.475-1.425a.475.475 0 0 0 .475.475h9.305a.475.475 0 0 0 .475-.475V4.463H.949zm0-8.356v1.14H11.2V2.374a.475.475 0 0 0-.475-.475h-.57v.949H9.21V1.9H2.943v.949h-.95V1.9h-.57a.475.475 0 0 0-.474.474zM7.5 10.207v-.95h.95v.95zm-1.9 0v-.95h.95v.95zm-1.9 0v-.95h.95v.95zm-1.9 0v-.95h.95v.95zm7.6-1.9v-.95h.949v.95zm-1.9 0v-.95h.95v.95zm-1.9 0v-.95h.95v.95zm-1.9 0v-.95h.95v.95zm-1.9 0v-.95h.95v.95zm7.6-1.9V5.46h.949v.949zm-1.9 0V5.46h.95v.949zm-1.9 0V5.46h.95v.949zm-1.9 0V5.46h.95v.949zm-1.9 0V5.46h.95v.949z"/>
</svg>
