<svg xmlns="http://www.w3.org/2000/svg" width="20.5" height="20.5" viewBox="0 0 20.5 20.5">
    <defs>
        <style>
            .prefix__cls-1{stroke:#000;stroke-width:.5px}
        </style>
    </defs>
    <g id="prefix__my_attendance" transform="translate(.25 .25)">
        <path id="prefix__Path_1609" d="M246.4 352.79h2.213a.4.4 0 1 0 0-.79H246.4a.4.4 0 1 0 0 .79zm0 0" class="prefix__cls-1" data-name="Path 1609" transform="translate(-236.41 -338.257)"/>
        <path id="prefix__Path_1610" d="M246 392.4a.4.4 0 0 0 .4.4h5.77a.4.4 0 0 0 0-.79h-5.77a.4.4 0 0 0-.4.39zm0 0" class="prefix__cls-1" data-name="Path 1610" transform="translate(-236.445 -376.695)"/>
        <path id="prefix__Path_1611" d="M366.4 432a.4.4 0 1 0 .4.4.4.4 0 0 0-.4-.4zm0 0" class="prefix__cls-1" data-name="Path 1611" transform="translate(-351.71 -415.162)"/>
        <path id="prefix__Path_1612" d="M249.557 432H246.4a.4.4 0 1 0 0 .79h3.162a.4.4 0 0 0 0-.79zm0 0" class="prefix__cls-1" data-name="Path 1612" transform="translate(-236.418 -415.162)"/>
        <path id="prefix__Path_1613" d="M406 432.4a.4.4 0 0 0 .4.4h1.024a.4.4 0 0 0 0-.79H406.4a.4.4 0 0 0-.4.39zm0 0" class="prefix__cls-1" data-name="Path 1613" transform="translate(-390.189 -415.162)"/>
        <path id="prefix__Path_1614" d="M60.505 322.034a.4.4 0 0 0-.523.2l-1.613 3.555-1.616-3.555a.4.4 0 0 0-.72.327l1.977 4.339a.4.4 0 0 0 .36.232.4.4 0 0 0 .36-.232l1.973-4.347a.4.4 0 0 0-.198-.519zm0 0" class="prefix__cls-1" data-name="Path 1614" transform="translate(-53.785 -309.508)"/>
        <path id="prefix__Path_1615" stroke="#fff" stroke-width="0.5px" d="M246.79 172.4a.4.4 0 1 1-.4-.4.4.4 0 0 1 .4.4zm0 0" data-name="Path 1615" transform="translate(-236.395 -165.285)"/>
        <path id="prefix__Path_1616" d="M19.609 6.328h-7.265v-.673l3.03-5.064A.391.391 0 0 0 15.039 0h-3.828a.391.391 0 0 0-.333.186L10 1.617 9.122.186A.391.391 0 0 0 8.789 0H4.961a.391.391 0 0 0-.335.591l3.03 5.064v.673H.391A.391.391 0 0 0 0 6.719v12.89A.391.391 0 0 0 .391 20h19.218a.391.391 0 0 0 .391-.391V6.719a.391.391 0 0 0-.391-.391zM7.9 9.191l1.953.781a.391.391 0 0 0 .29 0l1.957-.781a.391.391 0 0 0 .246-.363v-.12a1.055 1.055 0 0 1-.273 2.073H7.93a1.055 1.055 0 0 1-.273-2.073v.12a.391.391 0 0 0 .246.363zm.536-.627V5.937h3.125v2.627L10 9.189zM11.429.781h2.92l-2.4 4.012-1.491-2.429zm-5.78 0H8.57l2.685 4.375H8.268zm13.57 18.438H.781V7.109h6.875v.8a1.836 1.836 0 0 0 .273 3.651h4.141a1.836 1.836 0 0 0 .273-3.651v-.8h6.875zm0 0" class="prefix__cls-1" data-name="Path 1616"/>
    </g>
</svg>
