<svg xmlns="http://www.w3.org/2000/svg" width="24" height="24" data-name="my schedule" viewBox="0 0 24 24">
    <g data-name="Group 1537">
        <g data-name="Group 1536">
            <path d="M6.181 4.652a2.755 2.755 0 0 0-2-4.652 2.794 2.794 0 0 0-2.8 2.757 2.7 2.7 0 0 0 .781 1.9 4.239 4.239 0 0 0-.921.686A4.079 4.079 0 0 0 0 8.271v.689a.689.689 0 0 0 .689.689h6.938a.689.689 0 0 0 .689-.689v-.689a4.138 4.138 0 0 0-2.135-3.619zm-2-3.273a1.378 1.378 0 0 1 0 2.757 1.379 1.379 0 1 1 0-2.757zm-2.8 6.892a2.78 2.78 0 0 1 5.56 0z" data-name="Path 1778" transform="translate(8.529 5.75)"/>
        </g>
    </g>
    <g data-name="Group 1539">
        <g data-name="Group 1538">
            <path d="M21.891 2.813h-.7v-.7A2.112 2.112 0 0 0 19.078 0H2.109A2.112 2.112 0 0 0 0 2.109v19.782A2.112 2.112 0 0 0 2.109 24h16.969a2.112 2.112 0 0 0 2.109-2.109v-.7h.7A2.112 2.112 0 0 0 24 19.078V4.922a2.112 2.112 0 0 0-2.109-2.109zm-17.672 0h-.7a.7.7 0 1 0 0 1.406h.7v4.265h-.7a.7.7 0 0 0 0 1.406h.7v4.219h-.7a.7.7 0 1 0 0 1.406h.7v4.266h-.7a.7.7 0 1 0 0 1.406h.7v1.406h-2.11a.7.7 0 0 1-.7-.7V2.109a.7.7 0 0 1 .7-.7h2.11zm15.562 19.078a.7.7 0 0 1-.7.7H5.625v-1.403h.7a.7.7 0 1 0 0-1.406h-.7v-4.266h.7a.7.7 0 1 0 0-1.406h-.7V9.891h.7a.7.7 0 1 0 0-1.406h-.7V4.219h.7a.7.7 0 1 0 0-1.406h-.7V1.406h13.453a.7.7 0 0 1 .7.7zm2.813-2.812a.7.7 0 0 1-.7.7h-.7v-4.263H22.6zm0-4.969h-1.406V9.891h1.406zm0-5.625h-1.406V4.219h.7a.7.7 0 0 1 .7.7z" data-name="Path 1779"/>
        </g>
    </g>
    <g data-name="Group 1541">
        <g data-name="Group 1540">
            <path d="M7.627 0H.689a.689.689 0 0 0 0 1.378h6.938a.689.689 0 0 0 0-1.378z" data-name="Path 1780" transform="translate(8.529 16.943)"/>
        </g>
    </g>
</svg>
