<svg xmlns="http://www.w3.org/2000/svg" id="prefix__notepad" width="23.668" height="29.208" viewBox="0 0 23.668 29.208">
    <defs>
        <style>
            .prefix__cls-2{fill:#18a835}.prefix__cls-3{fill:#848483}
        </style>
    </defs>
    <g id="prefix__Group_219" data-name="Group 219">
        <path id="prefix__Union_2" d="M0 29.208V1.007h9.465V0h5.1v1.007h9.107v28.2z" data-name="Union 2"/>
        <path id="prefix__Path_179" d="M21.115 5v1.511H9.532V5H5v25.179h20.647V5z" data-name="Path 179" transform="translate(-3.489 -2.482)" style="fill:#eee"/>
        <path id="prefix__Path_181" d="M17.05 15.007H10.5a.5.5 0 1 1 0-1.007h6.55a.5.5 0 0 1 0 1.007z" class="prefix__cls-2" data-name="Path 181" transform="translate(-5.972 -6.95)"/>
        <path id="prefix__Path_182" d="M17.05 46.007H10.5a.5.5 0 1 1 0-1.007h6.55a.5.5 0 0 1 0 1.007z" class="prefix__cls-2" data-name="Path 182" transform="translate(-5.972 -22.339)"/>
        <path id="prefix__Path_183" d="M25.108 21.007H10.5a.5.5 0 0 1 0-1.007h14.6a.5.5 0 1 1 0 1.007z" class="prefix__cls-3" data-name="Path 183" transform="translate(-5.972 -9.928)"/>
        <path id="prefix__Path_184" d="M25.108 33.007H10.5a.5.5 0 0 1 0-1.007h14.6a.5.5 0 1 1 0 1.007z" class="prefix__cls-2" data-name="Path 184" transform="translate(-5.972 -15.885)"/>
        <path id="prefix__Path_185" d="M25.108 40.007H10.5a.5.5 0 0 1 0-1.007h14.6a.5.5 0 0 1 0 1.007z" class="prefix__cls-3" data-name="Path 185" transform="translate(-5.972 -19.36)"/>
        <path id="prefix__Union_3" d="M473.583-447.1a.5.5 0 0 1-.5-.5.5.5 0 0 1 .5-.5h3.524a.5.5 0 0 1 .5.5.5.5 0 0 1-.5.5zm-2.372-.146a.528.528 0 0 1-.146-.357.5.5 0 0 1 .146-.357.521.521 0 0 1 .716 0 .5.5 0 0 1 .146.357.522.522 0 0 1-.146.357.52.52 0 0 1-.358.146.5.5 0 0 1-.359-.143zm-8.707.146a.5.5 0 0 1-.5-.5.5.5 0 0 1 .5-.5h7.05a.5.5 0 0 1 .5.5.5.5 0 0 1-.5.5z" class="prefix__cls-3" data-name="Union 3" transform="translate(-457.971 461.198)"/>
    </g>
    <g id="prefix__Group_220" data-name="Group 220" transform="translate(13.114 4.681)">
        <path id="prefix__Path_190" d="M4 0a4 4 0 1 1-4 4 4 4 0 0 1 4-4z" class="prefix__cls-2" data-name="Path 190" transform="translate(.092 .214)"/>
        <path id="prefix__Path_189" d="M42.835 40.065a.4.4 0 0 0-.535.091L40.147 43.1l-1.519-1.187a.4.4 0 0 0-.541.051.353.353 0 0 0 .053.515l1.841 1.438a.4.4 0 0 0 .244.083.429.429 0 0 0 .053 0 .39.39 0 0 0 .263-.153l2.39-3.268a.356.356 0 0 0-.096-.514z" data-name="Path 189" transform="translate(-35.907 -37.785)" style="fill:#fff"/>
    </g>
</svg>
