<svg xmlns="http://www.w3.org/2000/svg" width="19.106" height="22" viewBox="0 0 19.106 22">
    <g id="prefix__notification">
        <path id="prefix__Path" d="M3.191 2.75A3.311 3.311 0 0 0 6.381 0H0a3.311 3.311 0 0 0 3.191 2.75z" transform="translate(5.494 19.25)"/>
        <path id="prefix__Path-2" d="M14.774 9.166h-.01A6.262 6.262 0 0 1 8.685 2.75 6.655 6.655 0 0 1 9.266.031C9.075.012 8.881 0 8.685 0a6.255 6.255 0 0 0-6.079 6.417v2.555a6.291 6.291 0 0 1-2.074 4.705 1.659 1.659 0 0 0-.478 1.646A1.6 1.6 0 0 0 1.616 16.5h14.133a1.608 1.608 0 0 0 1.587-1.271 1.658 1.658 0 0 0-.518-1.569 6.235 6.235 0 0 1-2.044-4.493z" data-name="Path" transform="translate(0 1.833)"/>
        <path id="prefix__Path-3" fill="red" d="M8.684 4.583a4.467 4.467 0 0 1-4.342 4.584A4.467 4.467 0 0 1 0 4.583 4.468 4.468 0 0 1 4.342 0a4.468 4.468 0 0 1 4.342 4.583z" data-name="Path" transform="translate(10.422)"/>
    </g>
</svg>
