<svg xmlns="http://www.w3.org/2000/svg" id="prefix__Pdf_download" width="25.197" height="27.85" viewBox="0 0 25.197 27.85">
    <defs>
        <style>
            .prefix__cls-1{fill:#ff402f}.prefix__cls-2{fill:#ff9a30}
        </style>
    </defs>
    <g id="prefix__Group_1336" data-name="Group 1336">
        <g id="prefix__Group_1333" data-name="Group 1333" transform="translate(4.133 8.62)">
            <path id="prefix__Path_1599" d="M46.514 49.691a.7.7 0 0 0-.2-.349 2.824 2.824 0 0 0-1.823-.431 15.064 15.064 0 0 0-2.193.161 5.463 5.463 0 0 1-1.017-.7 7.426 7.426 0 0 1-1.837-2.849c.027-.1.049-.195.071-.287a18.535 18.535 0 0 0 .323-3.338.97.97 0 0 0-.057-.239l-.038-.1a.791.791 0 0 0-.721-.553L38.8 41a.815.815 0 0 0-.831.522 9.667 9.667 0 0 0 .506 4.352l-.128.309c-.356.871-.8 1.746-1.2 2.518l-.051.1c-.416.811-.791 1.5-1.134 2.084l-.351.186c-.027.013-.63.334-.771.418a4.314 4.314 0 0 0-2.128 2.177.534.534 0 0 0 .2.592l.34.172a1.046 1.046 0 0 0 .464.111c.855 0 1.848-1.065 3.216-3.452a31.99 31.99 0 0 1 4.953-1.176 8.546 8.546 0 0 0 3.615 1.144 1.669 1.669 0 0 0 .424-.046.737.737 0 0 0 .422-.287 1.53 1.53 0 0 0 .168-1.033zm-12.979 4.2a5.938 5.938 0 0 1 1.686-2.018c.057-.046.2-.179.327-.3a6.1 6.1 0 0 1-2.013 2.32zm5.406-12.45c.274 0 .431.692.444 1.342a2.758 2.758 0 0 1-.327 1.443 7.006 7.006 0 0 1-.232-1.8s-.01-.984.116-.984zm-1.614 8.872q.288-.514.595-1.087a20.361 20.361 0 0 0 1.043-2.277 7.53 7.53 0 0 0 1.722 2.137c.086.071.177.144.27.217a21.868 21.868 0 0 0-3.629 1.011zm8.715-.077a1.273 1.273 0 0 1-.48.082 5.631 5.631 0 0 1-1.989-.6c.334-.024.641-.038.915-.038a3.513 3.513 0 0 1 1.143.124c.492.126.499.38.412.433z" class="prefix__cls-1" data-name="Path 1599" transform="translate(-32.697 -41)"/>
        </g>
        <g id="prefix__Group_1335" data-name="Group 1335">
            <path id="prefix__Path_1600" d="M85.3 80a5.3 5.3 0 1 0 5.3 5.3 5.3 5.3 0 0 0-5.3-5.3zm2.405 3.755l-.025.039-1.819 2.528a.663.663 0 0 1-1.121 0l-1.84-2.567a.663.663 0 0 1 .576-.992h.945v-1.437a.664.664 0 0 1 .663-.663h.442a.664.664 0 0 1 .663.663v1.437h.945a.663.663 0 0 1 .576.992z" class="prefix__cls-1" data-name="Path 1600" transform="translate(-65.412 -62.76)"/>
            <g id="prefix__Group_1334" data-name="Group 1334">
                <path id="prefix__Path_1601" d="M83.961 125.95l-.011.011h.011z" class="prefix__cls-2" data-name="Path 1601" transform="translate(-68.489 -98.554)"/>
                <path id="prefix__Path_1602" d="M113.961 76.961v-.011l-.011.011z" class="prefix__cls-2" data-name="Path 1602" transform="translate(-91.858 -60.384)"/>
                <path id="prefix__Path_1603" d="M35.455 11.337l-8.689-8.69A2.2 2.2 0 0 0 25.2 2h-8.99A2.213 2.213 0 0 0 14 4.21V27.2a2.213 2.213 0 0 0 2.21 2.21h13.251l-.884-.884H16.21a1.327 1.327 0 0 1-1.326-1.326V4.21a1.328 1.328 0 0 1 1.326-1.326h8.99a1.317 1.317 0 0 1 .938.388l8.689 8.689a1.336 1.336 0 0 1 .388.938v4.782l.884.884V12.9a2.2 2.2 0 0 0-.644-1.563z" class="prefix__cls-1" data-name="Path 1603" transform="translate(-14 -2)"/>
                <path id="prefix__Path_1604" fill="#fff" d="M110.873 73.845l.011-.011-.884-.884" data-name="Path 1604" transform="translate(-88.781 -57.268)"/>
            </g>
        </g>
    </g>
</svg>
