<svg xmlns="http://www.w3.org/2000/svg" width="26" height="24" viewBox="0 0 26 24">
    <g>
        <path d="M14.508 33.381A5.238 5.238 0 0 0 13 33.036a5.229 5.229 0 0 0-1.507.345 5.942 5.942 0 0 1-1.805.392 2.342 2.342 0 0 1-.705-.1 4.045 4.045 0 0 1-1.908-1.7 4.686 4.686 0 0 0-.958-1.085 5.011 5.011 0 0 0-1.387-.552 4.075 4.075 0 0 1-2.248-1.209 3.735 3.735 0 0 1-.5-2.414 4.6 4.6 0 0 0-.121-1.455 4.6 4.6 0 0 0-.764-1.188 3.9 3.9 0 0 1-1.1-2.294 3.9 3.9 0 0 1 1.1-2.294 4.6 4.6 0 0 0 .764-1.188 4.606 4.606 0 0 0 .121-1.456 3.739 3.739 0 0 1 .5-2.414 4.083 4.083 0 0 1 2.248-1.209 4.978 4.978 0 0 0 1.387-.551 4.7 4.7 0 0 0 .958-1.087 4.049 4.049 0 0 1 1.908-1.7 2.377 2.377 0 0 1 .705-.1 5.974 5.974 0 0 1 1.805.391 5.2 5.2 0 0 0 1.507.346 5.207 5.207 0 0 0 1.508-.346 5.962 5.962 0 0 1 1.8-.391 2.388 2.388 0 0 1 .706.1 4.052 4.052 0 0 1 1.907 1.7 4.707 4.707 0 0 0 .958 1.087 4.986 4.986 0 0 0 1.386.551 4.089 4.089 0 0 1 2.249 1.209 3.745 3.745 0 0 1 .5 2.414 4.623 4.623 0 0 0 .12 1.456 4.541 4.541 0 0 0 .765 1.188 3.908 3.908 0 0 1 1.1 2.294 3.9 3.9 0 0 1-1.1 2.294 4.607 4.607 0 0 0-.765 1.188 4.616 4.616 0 0 0-.12 1.455 3.742 3.742 0 0 1-.5 2.414 4.078 4.078 0 0 1-2.249 1.209 5.02 5.02 0 0 0-1.386.552 4.7 4.7 0 0 0-.958 1.085 4.04 4.04 0 0 1-1.907 1.7 2.353 2.353 0 0 1-.706.1 5.929 5.929 0 0 1-1.8-.392zm.363-1.029a5.088 5.088 0 0 0 1.441.334 1.178 1.178 0 0 0 .357-.05 3.189 3.189 0 0 0 1.329-1.287 5.6 5.6 0 0 1 1.218-1.342 5.923 5.923 0 0 1 1.719-.711 3.3 3.3 0 0 0 1.667-.809 3.011 3.011 0 0 0 .285-1.761 5.4 5.4 0 0 1 .174-1.806 5.351 5.351 0 0 1 .938-1.507 3.1 3.1 0 0 0 .869-1.639 3.091 3.091 0 0 0-.869-1.639 5.351 5.351 0 0 1-.938-1.507 5.4 5.4 0 0 1-.174-1.807 3.007 3.007 0 0 0-.285-1.76 3.3 3.3 0 0 0-1.667-.81 5.856 5.856 0 0 1-1.72-.711 5.587 5.587 0 0 1-1.218-1.341 3.188 3.188 0 0 0-1.329-1.287 1.178 1.178 0 0 0-.357-.05 5.088 5.088 0 0 0-1.441.334 6.09 6.09 0 0 1-1.871.4 6.112 6.112 0 0 1-1.872-.4 5.075 5.075 0 0 0-1.44-.334 1.178 1.178 0 0 0-.357.05A3.2 3.2 0 0 0 8 12.199a5.553 5.553 0 0 1-1.217 1.341 5.859 5.859 0 0 1-1.721.711 3.289 3.289 0 0 0-1.666.81 3 3 0 0 0-.285 1.76 5.383 5.383 0 0 1-.176 1.807 5.335 5.335 0 0 1-.937 1.507 3.085 3.085 0 0 0-.869 1.639 3.089 3.089 0 0 0 .869 1.639 5.335 5.335 0 0 1 .937 1.507 5.38 5.38 0 0 1 .176 1.807 3.005 3.005 0 0 0 .285 1.76 3.289 3.289 0 0 0 1.666.809 5.92 5.92 0 0 1 1.721.711A5.581 5.581 0 0 1 8 31.349c.424.581.822 1.128 1.33 1.287a1.178 1.178 0 0 0 .357.05 5.074 5.074 0 0 0 1.44-.334 6.112 6.112 0 0 1 1.872-.4 6.09 6.09 0 0 1 1.874.4zm-.76-1.5a3.873 3.873 0 0 0-1.11-.259 3.889 3.889 0 0 0-1.109.259 4.587 4.587 0 0 1-1.417.31 1.911 1.911 0 0 1-.578-.086 3.193 3.193 0 0 1-1.52-1.357 3.566 3.566 0 0 0-.7-.81 3.747 3.747 0 0 0-1.022-.408 3.24 3.24 0 0 1-1.779-.978 3.041 3.041 0 0 1-.4-1.938A3.609 3.609 0 0 0 4.39 24.5a3.484 3.484 0 0 0-.565-.881 3.12 3.12 0 0 1-.862-1.844 3.12 3.12 0 0 1 .862-1.844 3.484 3.484 0 0 0 .565-.881 3.617 3.617 0 0 0 .086-1.087 3.039 3.039 0 0 1 .4-1.936 3.24 3.24 0 0 1 1.779-.978 3.745 3.745 0 0 0 1.022-.408 3.566 3.566 0 0 0 .7-.81 3.193 3.193 0 0 1 1.52-1.357 1.911 1.911 0 0 1 .578-.086 4.617 4.617 0 0 1 1.417.309 3.841 3.841 0 0 0 1.109.26 3.84 3.84 0 0 0 1.11-.26 4.611 4.611 0 0 1 1.418-.309 1.924 1.924 0 0 1 .577.086 3.2 3.2 0 0 1 1.518 1.357 3.554 3.554 0 0 0 .7.81 3.731 3.731 0 0 0 1.021.408 3.236 3.236 0 0 1 1.78.978 3.045 3.045 0 0 1 .405 1.936 3.57 3.57 0 0 0 .086 1.087 3.441 3.441 0 0 0 .565.881 3.121 3.121 0 0 1 .862 1.844 3.121 3.121 0 0 1-.862 1.844 3.441 3.441 0 0 0-.565.881 3.562 3.562 0 0 0-.086 1.085 3.047 3.047 0 0 1-.405 1.938 3.236 3.236 0 0 1-1.78.978 3.733 3.733 0 0 0-1.021.408 3.554 3.554 0 0 0-.7.81 3.2 3.2 0 0 1-1.518 1.357 1.924 1.924 0 0 1-.577.086 4.581 4.581 0 0 1-1.419-.311zm.358-1.022a3.752 3.752 0 0 0 1.06.251.794.794 0 0 0 .234-.033c.349-.11.642-.517.951-.949a4.336 4.336 0 0 1 .958-1.064 4.548 4.548 0 0 1 1.349-.567 2.444 2.444 0 0 0 1.208-.582 2.276 2.276 0 0 0 .193-1.287 4.326 4.326 0 0 1 .14-1.434 4.244 4.244 0 0 1 .734-1.2 2.333 2.333 0 0 0 .638-1.193 2.34 2.34 0 0 0-.638-1.194 4.238 4.238 0 0 1-.734-1.2 4.33 4.33 0 0 1-.14-1.435 2.274 2.274 0 0 0-.193-1.286 2.426 2.426 0 0 0-1.208-.582 4.548 4.548 0 0 1-1.349-.567 4.342 4.342 0 0 1-.958-1.065c-.309-.431-.6-.838-.951-.948a.758.758 0 0 0-.234-.033 3.752 3.752 0 0 0-1.06.251 4.727 4.727 0 0 1-1.468.318 4.748 4.748 0 0 1-1.468-.318 3.719 3.719 0 0 0-1.058-.251.772.772 0 0 0-.237.033c-.348.11-.64.517-.95.948a4.361 4.361 0 0 1-.958 1.065 4.559 4.559 0 0 1-1.349.567 2.436 2.436 0 0 0-1.208.582 2.29 2.29 0 0 0-.194 1.286 4.291 4.291 0 0 1-.14 1.435 4.214 4.214 0 0 1-.734 1.2 2.335 2.335 0 0 0-.639 1.194 2.328 2.328 0 0 0 .639 1.193 4.269 4.269 0 0 1 .734 1.2 4.291 4.291 0 0 1 .14 1.435 2.29 2.29 0 0 0 .194 1.286 2.455 2.455 0 0 0 1.208.582 4.559 4.559 0 0 1 1.349.567 4.355 4.355 0 0 1 .958 1.064c.31.432.6.839.95.949a.809.809 0 0 0 .237.033 3.731 3.731 0 0 0 1.058-.251 4.715 4.715 0 0 1 1.468-.318 4.694 4.694 0 0 1 1.472.317zm-5.8-4.055a.525.525 0 0 1 0-.787l7.817-7.217a.641.641 0 0 1 .853 0 .528.528 0 0 1 0 .788l-7.817 7.216a.626.626 0 0 1-.426.163.622.622 0 0 1-.431-.163z" data-name="Path 1795" transform="translate(0 -9.773)"/>
        <path d="M10.323 21.331a2.112 2.112 0 1 0-2.112-2.112 2.115 2.115 0 0 0 2.112 2.112zm0-3.111a1 1 0 1 1-1 1 1 1 0 0 1 1-1.001z" data-name="Path 1762" transform="translate(0 -9.773)"/>
        <path d="M15.676 22.216a2.112 2.112 0 1 0 2.112 2.112 2.115 2.115 0 0 0-2.112-2.112zm0 3.111a1 1 0 1 1 1-1 1 1 0 0 1-1 1z" data-name="Path 1763" transform="translate(0 -9.773)"/>
    </g>
</svg>
