<svg xmlns="http://www.w3.org/2000/svg" id="prefix__personal_details" width="26.371" height="26.372" viewBox="0 0 26.371 26.372">
    <defs>
        <style>
            .prefix__cls-2{fill:#aaa3a3}
        </style>
    </defs>
    <path id="prefix__Path_1108" fill="#fff" d="M29.786 35.342H11.037a1.03 1.03 0 0 1-1.03-1.03V11.03a1.03 1.03 0 0 1 1.03-1.03h18.749a1.03 1.03 0 0 1 1.03 1.03v23.282a1.03 1.03 0 0 1-1.03 1.03z" data-name="Path 1108" transform="translate(-9.492 -9.485)"/>
    <path id="prefix__Path_1193" d="M3.5 0C5.433 0 7 2.015 7 4.5S5.433 9 3.5 9 0 6.985 0 4.5 1.567 0 3.5 0z" class="prefix__cls-2" data-name="Path 1193" transform="translate(7.887 3.372)"/>
    <path id="prefix__Path_1109" fill="#ffcdac" d="M188.685 110.839v.335a1.339 1.339 0 0 1-1.339 1.339 1.339 1.339 0 0 1-1.339-1.339v-.335a1.339 1.339 0 0 1 1.339-1.339 1.339 1.339 0 0 1 1.339 1.339z" data-name="Path 1109" transform="translate(-176.427 -103.86)"/>
    <path id="prefix__Path_1110" fill="#a5ddff" d="M159.051 168a3.091 3.091 0 0 0-2.876 1.959 4.22 4.22 0 0 0 5.752 0 3.091 3.091 0 0 0-2.876-1.959z" data-name="Path 1110" transform="translate(-148.131 -159.347)"/>
    <path id="prefix__Path_1111" fill="#ffbc53" d="M322.634 136.022l.294-.51a1.648 1.648 0 0 1 2.252-.6 1.648 1.648 0 0 1 .6 2.252l-6.48 11.223-2.855-1.648 2.8-4.843z" data-name="Path 1111" transform="translate(-300.148 -127.75)"/>
    <path id="prefix__Path_1112" d="M430.449 134.908a1.648 1.648 0 0 0-2.252.6l-.765 1.325 2.855 1.648.765-1.325a1.648 1.648 0 0 0-.603-2.248z" class="prefix__cls-2" data-name="Path 1112" transform="translate(-405.416 -127.75)"/>
    <path id="prefix__Path_1113" fill="#eee" d="M310.9 370.3l-3.311 2.439.456-4.087z" data-name="Path 1113" transform="translate(-291.746 -349.667)"/>
    <path id="prefix__Path_1114" d="M21.331 20.517a.515.515 0 0 0-.515.515v3.795a.516.516 0 0 1-.515.515H1.552a.516.516 0 0 1-.515-.515V1.545a.516.516 0 0 1 .515-.515H20.3a.516.516 0 0 1 .515.515v5.6a.515.515 0 0 0 1.03 0v-5.6A1.547 1.547 0 0 0 20.3 0H1.552A1.547 1.547 0 0 0 .007 1.545v23.282a1.547 1.547 0 0 0 1.545 1.545H20.3a1.547 1.547 0 0 0 1.545-1.545v-3.795a.515.515 0 0 0-.514-.515z" data-name="Path 1114" transform="translate(-.007)"/>
    <path id="prefix__Path_1115" d="M129.484 58.739a4.739 4.739 0 1 0-7.99 3.444.508.508 0 0 0 .055.052 4.73 4.73 0 0 0 6.391 0 .516.516 0 0 0 .055-.052 4.726 4.726 0 0 0 1.489-3.444zm-4.739-3.709a3.706 3.706 0 0 1 2.984 5.907 3.573 3.573 0 0 0-1.518-1.272 1.845 1.845 0 0 0 .387-1.132V58.2a1.854 1.854 0 1 0-3.709 0v.335a1.845 1.845 0 0 0 .387 1.132 3.573 3.573 0 0 0-1.518 1.272 3.706 3.706 0 0 1 2.984-5.907zm-.824 3.5v-.33a.824.824 0 1 1 1.648 0v.335a.824.824 0 0 1-1.648 0zm-1.416 3.159a2.575 2.575 0 0 1 4.48 0 3.7 3.7 0 0 1-4.48 0z" data-name="Path 1115" transform="translate(-113.826 -51.219)"/>
    <path id="prefix__Path_1116" d="M205.3 438h-2.781a.515.515 0 1 0 0 1.03h2.781a.515.515 0 1 0 0-1.03z" data-name="Path 1116" transform="translate(-191.602 -415.44)"/>
    <path id="prefix__Path_1117" d="M121.836 382h-7.314a.515.515 0 0 0 0 1.03h7.314a.515.515 0 0 0 0-1.03z" data-name="Path 1117" transform="translate(-108.135 -362.324)"/>
    <path id="prefix__Path_1118" d="M121.836 326h-7.314a.515.515 0 0 0 0 1.03h7.314a.515.515 0 0 0 0-1.03z" data-name="Path 1118" transform="translate(-108.135 -309.208)"/>
    <path id="prefix__Path_1119" d="M72.167 270.151a.515.515 0 1 0 .151.364.519.519 0 0 0-.151-.364z" data-name="Path 1119" transform="translate(-67.616 -256.093)"/>
    <path id="prefix__Path_1120" d="M72.167 326.151a.515.515 0 1 0 .151.364.52.52 0 0 0-.151-.364z" data-name="Path 1120" transform="translate(-67.616 -309.208)"/>
    <path id="prefix__Path_1121" d="M71.8 382a.515.515 0 1 0 .365.151.52.52 0 0 0-.365-.151z" data-name="Path 1121" transform="translate(-67.616 -362.324)"/>
    <path id="prefix__Path_1122" d="M121.836 270h-7.314a.515.515 0 0 0 0 1.03h7.314a.515.515 0 0 0 0-1.03z" data-name="Path 1122" transform="translate(-108.135 -256.093)"/>
    <path id="prefix__Path_1123" d="M307.552 124.966a2.163 2.163 0 0 0-2.955.792l-6.482 11.227a.518.518 0 0 0-.066.2l-.456 4.087a.515.515 0 0 0 .817.472l3.311-2.439a.516.516 0 0 0 .141-.157l6.482-11.227a2.166 2.166 0 0 0-.792-2.955zm-8.567 13.116l1.491.861-1.729 1.273zm2.242.1l-1.963-1.133 5.2-9.009 1.963 1.133zm6.224-10.781l-.508.879-1.963-1.133.508-.879a1.133 1.133 0 0 1 1.963 1.133z" data-name="Path 1123" transform="translate(-282.261 -118.253)"/>
</svg>
