<svg xmlns="http://www.w3.org/2000/svg" width="17.979" height="17.966" viewBox="0 0 17.979 17.966">
    <defs>
        <style>
            .prefix__cls-1{fill:red;stroke:red;stroke-width:.5px}
        </style>
    </defs>
    <g id="prefix__phone" transform="translate(-.739 -.71)">
        <g id="prefix__Group_914" data-name="Group 914" transform="translate(1 1.018)">
            <g id="prefix__Group_913" data-name="Group 913">
                <path id="prefix__Path_1461" d="M17.953 14.448L14.429 12.1a1.028 1.028 0 0 0-1.377.224l-1.026 1.32a.439.439 0 0 1-.563.118l-.2-.108a11.8 11.8 0 0 1-3.075-2.415 11.848 11.848 0 0 1-2.411-3.077l-.107-.2a.439.439 0 0 1 .116-.562L7.1 6.376A1.029 1.029 0 0 0 7.329 5l-2.35-3.525A1.023 1.023 0 0 0 3.6 1.164l-1.473.885a2.078 2.078 0 0 0-.948 1.23c-.531 1.933-.131 5.27 4.784 10.186 3.91 3.91 6.821 4.961 8.821 4.961a5.14 5.14 0 0 0 1.364-.178 2.077 2.077 0 0 0 1.23-.948l.886-1.473a1.023 1.023 0 0 0-.311-1.379zm-.19 1.082L16.879 17a1.5 1.5 0 0 1-.885.686c-1.785.49-4.9.084-9.622-4.635S1.248 5.218 1.738 3.433a1.5 1.5 0 0 1 .687-.886L3.9 1.663a.444.444 0 0 1 .6.135l1.273 1.916 1.072 1.607a.447.447 0 0 1-.1.6L5.429 6.945a1.015 1.015 0 0 0-.269 1.3l.1.19a12.307 12.307 0 0 0 2.515 3.209 12.32 12.32 0 0 0 3.208 2.514l.191.105a1.015 1.015 0 0 0 1.3-.269l1.026-1.319a.447.447 0 0 1 .6-.1l3.523 2.35a.444.444 0 0 1 .14.605z" class="prefix__cls-1" data-name="Path 1461" transform="translate(-1 -1.018)"/>
                <path id="prefix__Path_1462" d="M282.918 69.9a4.938 4.938 0 0 1 4.932 4.932.29.29 0 1 0 .58 0 5.518 5.518 0 0 0-5.512-5.512.29.29 0 0 0 0 .58z" class="prefix__cls-1" data-name="Path 1462" transform="translate(-273.053 -67.002)"/>
                <path id="prefix__Path_1463" d="M282.918 121.1a3.2 3.2 0 0 1 3.191 3.191.29.29 0 0 0 .58 0 3.776 3.776 0 0 0-3.771-3.771.29.29 0 0 0 0 .58z" class="prefix__cls-1" data-name="Path 1463" transform="translate(-273.053 -116.461)"/>
                <path id="prefix__Path_1464" d="M282.918 172.3a1.452 1.452 0 0 1 1.451 1.451.29.29 0 0 0 .58 0 2.033 2.033 0 0 0-2.031-2.031.29.29 0 0 0 0 .58z" class="prefix__cls-1" data-name="Path 1464" transform="translate(-273.053 -165.92)"/>
            </g>
        </g>
    </g>
</svg>
