<svg xmlns="http://www.w3.org/2000/svg" width="20.799" height="19.331" viewBox="0 0 20.799 19.331">
    <path d="M4.517 19.331a.693.693 0 0 1-.693-.693v-3.722H1.618A1.619 1.619 0 0 1 0 13.3V6.323a1.62 1.62 0 0 1 1.618-1.617h2.206V.694A.693.693 0 0 1 4.517 0h11.765a.694.694 0 0 1 .694.694v4.012h2.206A1.62 1.62 0 0 1 20.8 6.323V13.3a1.619 1.619 0 0 1-1.618 1.617h-2.207v3.722a.693.693 0 0 1-.693.693zm.694-1.387h10.377v-5.672H5.21zm11.072-7.059a.693.693 0 0 1 .693.694v1.951h2.206a.232.232 0 0 0 .231-.231V6.323a.232.232 0 0 0-.231-.231H1.618a.232.232 0 0 0-.231.231V13.3a.232.232 0 0 0 .231.231h2.206v-1.952a.693.693 0 0 1 .693-.694zM5.21 4.706h10.378V1.387H5.21zM7.4 16.895a.693.693 0 1 1 0-1.387h6a.693.693 0 1 1 0 1.387zm0-2.186a.693.693 0 1 1 0-1.387h6a.693.693 0 1 1 0 1.387zm7.122-5.932a.693.693 0 1 1 0-1.387h1.764a.693.693 0 1 1 0 1.387z"/>
</svg>
