<svg xmlns="http://www.w3.org/2000/svg" width="20.5" height="16.5" viewBox="0 0 20.5 16.5">
    <defs>
        <style>
            .prefix__cls-1{stroke:#000;stroke-width:.5px}
        </style>
    </defs>
    <g id="prefix__purse" transform="translate(.25 -70.25)">
        <path id="prefix__Path_1766" d="M18.792 75.643H8.757v-4.681a.44.44 0 0 0-.416-.462H2.026a.44.44 0 0 0-.416.462v4.691a.378.378 0 0 0-.086-.01h-.316A1.281 1.281 0 0 0 0 76.984v8.176a1.281 1.281 0 0 0 1.208 1.34h17.584A1.281 1.281 0 0 0 20 85.159v-8.175a1.281 1.281 0 0 0-1.208-1.341zm.376 1.341v1.473h-8.792v-1.89h8.416a.4.4 0 0 1 .376.417zm-9.624-.418v1.89h-.787v-1.89zm-1.619-5.143v7.033h-.376a2.386 2.386 0 0 0-2.366-1.832 2.386 2.386 0 0 0-2.366 1.832h-.375v-7.033zm-1.249 7.033H3.692a1.586 1.586 0 0 1 1.492-.908 1.586 1.586 0 0 1 1.492.908zm-5.468-1.89h.317a.378.378 0 0 0 .086-.01v1.9H.832v-1.472a.4.4 0 0 1 .376-.418zm-.376 8.593v-3.626H6.99a.464.464 0 0 0 0-.923H.832v-1.231h8.713v6.2H1.208a.4.4 0 0 1-.376-.42zm17.96.418h-8.416v-6.2h8.792v5.78a.4.4 0 0 1-.376.42z" class="prefix__cls-1" data-name="Path 1766"/>
        <path id="prefix__Path_1767" d="M294.356 295.5h-5.941a.416.416 0 0 0 0 .832h5.941a.416.416 0 1 0 0-.832z" class="prefix__cls-1" data-name="Path 1767" transform="translate(-276.594 -215.05)"/>
        <path id="prefix__Path_1768" d="M103.518 137.757a1.129 1.129 0 1 0-1.129-1.129 1.13 1.13 0 0 0 1.129 1.129zm0-1.426a.3.3 0 1 1-.3.3.3.3 0 0 1 .3-.299z" class="prefix__cls-1" data-name="Path 1768" transform="translate(-98.334 -62.09)"/>
    </g>
</svg>
