<svg xmlns="http://www.w3.org/2000/svg" width="18.752" height="18.752" viewBox="0 0 18.752 18.752">
    <path d="M.549 4.029a.549.549 0 0 0 .551-.55V1.1h2.379a.549.549 0 1 0 0-1.1H.549A.549.549 0 0 0 0 .549v2.93a.549.549 0 0 0 .549.55z" data-name="Path 1847"/>
    <path d="M18.203 0h-2.93a.55.55 0 1 0 0 1.1h2.381v2.379a.55.55 0 0 0 1.1 0V.549A.549.549 0 0 0 18.203 0z" data-name="Path 1848"/>
    <path d="M3.479 17.654H1.1v-2.381a.55.55 0 1 0-1.1 0v2.93a.549.549 0 0 0 .549.549h2.93a.55.55 0 0 0 0-1.1z" data-name="Path 1849"/>
    <path d="M18.203 14.724a.549.549 0 0 0-.549.549v2.381h-2.381a.55.55 0 1 0 0 1.1h2.93a.549.549 0 0 0 .549-.549v-2.93a.549.549 0 0 0-.549-.551z" data-name="Path 1850"/>
    <path d="M11.573 7.728h4.4a.549.549 0 0 0 .549-.549v-4.4a.549.549 0 0 0-.549-.549h-4.4a.549.549 0 0 0-.549.549v4.4a.549.549 0 0 0 .549.549zm.549-4.4h3.3v3.3h-3.3z" data-name="Path 1851"/>
    <path d="M7.178 11.024h-4.4a.549.549 0 0 0-.549.549v4.4a.549.549 0 0 0 .549.549h4.4a.549.549 0 0 0 .549-.549v-4.4a.549.549 0 0 0-.549-.549zm-.549 4.4H3.334v-3.3h3.3z" data-name="Path 1852"/>
    <path d="M16.518 15.968v-4.4a.55.55 0 0 0-1.1 0v3.856h-3.846a.55.55 0 0 0 0 1.1h4.4a.549.549 0 0 0 .546-.556z" data-name="Path 1853"/>
    <path d="M7.178 2.234h-4.4a.549.549 0 0 0-.549.549v4.4a.549.549 0 0 0 .549.549h4.4a.549.549 0 0 0 .549-.549v-4.4a.549.549 0 0 0-.549-.549zm-.544 4.4h-3.3v-3.3h3.3z" data-name="Path 1854"/>
    <path d="M9.376 7.728a.549.549 0 0 0 .549-.549v-4.4a.55.55 0 0 0-1.1 0v4.4a.549.549 0 0 0 .551.549z" data-name="Path 1855"/>
    <path d="M13.227 9.376a.549.549 0 0 0-.549-.549h-3.3a.549.549 0 0 0-.549.549v6.593a.55.55 0 0 0 1.1 0V9.927h2.747a.549.549 0 0 0 .551-.551z" data-name="Path 1856"/>
    <path d="M2.783 9.927h1.1a.55.55 0 0 0 0-1.1h-1.1a.55.55 0 0 0 0 1.1z" data-name="Path 1857"/>
    <path d="M13.222 11.573v2.2a.55.55 0 1 0 1.1 0v-2.2a.55.55 0 0 0-1.1 0z" data-name="Path 1858"/>
    <path d="M11.024 11.573v2.2a.55.55 0 1 0 1.1 0v-2.2a.55.55 0 0 0-1.1 0z" data-name="Path 1859"/>
    <path d="M15.969 8.827h-1.1a.55.55 0 0 0 0 1.1h1.1a.55.55 0 0 0 0-1.1z" data-name="Path 1860"/>
    <circle cx=".5" cy=".5" r=".5" data-name="Ellipse 38" transform="translate(13.752 4)"/>
    <circle cx=".5" cy=".5" r=".5" data-name="Ellipse 39" transform="translate(4.752 4)"/>
    <circle cx=".5" cy=".5" r=".5" data-name="Ellipse 40" transform="translate(4.752 13)"/>
    <path d="M7.179 8.827h-1.1a.55.55 0 0 0 0 1.1h1.1a.55.55 0 0 0 0-1.1z" data-name="Path 1861"/>
</svg>
