<svg xmlns="http://www.w3.org/2000/svg" width="20.593" height="20.594" viewBox="0 0 20.593 20.594">
    <defs>
        <style>
            .prefix__cls-1{stroke:#000;stroke-width:.5px}
        </style>
    </defs>
    <g id="prefix__register" transform="translate(.25 .25)">
        <path id="prefix__Path_1747" d="M11.812 21.949a.422.422 0 0 1-.3-.122.418.418 0 0 1-.115-.378l.592-2.96a.41.41 0 0 1 .115-.214l6.512-6.512a1.258 1.258 0 0 1 1.776 0l1.184 1.184a1.257 1.257 0 0 1 0 1.776l-6.512 6.512a.416.416 0 0 1-.214.115l-2.96.592a.444.444 0 0 1-.078.007zm.978-3.172L12.347 21l2.22-.444 6.422-6.422a.419.419 0 0 0 0-.592L19.8 12.354a.419.419 0 0 0-.592 0zm1.982 2.162h.008z" class="prefix__cls-1" data-name="Path 1747" transform="translate(-1.854 -1.855)"/>
        <path id="prefix__Path_1748" d="M7.954 18.07H2.093A2.1 2.1 0 0 1 0 15.977V5.093A2.1 2.1 0 0 1 2.093 3h1.675a.419.419 0 0 1 0 .837H2.093A1.257 1.257 0 0 0 .837 5.093v10.884a1.257 1.257 0 0 0 1.256 1.256h5.861a.419.419 0 0 1 0 .837z" class="prefix__cls-1" data-name="Path 1748" transform="translate(0 -.488)"/>
        <path id="prefix__Path_1749" d="M15.768 10.535a.419.419 0 0 1-.419-.419V5.093a1.257 1.257 0 0 0-1.256-1.256h-1.674a.419.419 0 0 1 0-.837h1.674a2.1 2.1 0 0 1 2.093 2.093v5.023a.419.419 0 0 1-.418.419z" class="prefix__cls-1" data-name="Path 1749" transform="translate(-1.953 -.488)"/>
        <path id="prefix__Path_1750" d="M10.279 5.023H5.256A1.257 1.257 0 0 1 4 3.768V2.093a.419.419 0 0 1 .419-.419h1.3a2.094 2.094 0 0 1 4.1 0h1.3a.419.419 0 0 1 .419.419v1.675a1.257 1.257 0 0 1-1.259 1.255zM4.837 2.512v1.256a.42.42 0 0 0 .419.419h5.023a.42.42 0 0 0 .419-.419V2.512H9.442a.419.419 0 0 1-.419-.419 1.256 1.256 0 1 0-2.512 0 .419.419 0 0 1-.419.419z" class="prefix__cls-1" data-name="Path 1750" transform="translate(-.651)"/>
        <path id="prefix__Path_1751" d="M11.791 8.837H3.419a.419.419 0 1 1 0-.837h8.372a.419.419 0 0 1 0 .837z" class="prefix__cls-1" data-name="Path 1751" transform="translate(-.488 -1.302)"/>
        <path id="prefix__Path_1752" d="M11.791 11.837H3.419a.419.419 0 1 1 0-.837h8.372a.419.419 0 0 1 0 .837z" class="prefix__cls-1" data-name="Path 1752" transform="translate(-.488 -1.79)"/>
        <path id="prefix__Path_1753" d="M11.791 14.837H3.419a.419.419 0 0 1 0-.837h8.372a.419.419 0 0 1 0 .837z" class="prefix__cls-1" data-name="Path 1753" transform="translate(-.488 -2.279)"/>
    </g>
</svg>
