<svg xmlns="http://www.w3.org/2000/svg" width="22.746" height="27.235" viewBox="0 0 22.746 27.235">
    <defs>
        <style>
            .prefix__cls-1{stroke:#000;stroke-width:.3px}
        </style>
    </defs>
    <g id="prefix__report_line" transform="translate(-1.85 .15)">
        <path id="prefix__Path_2178" d="M21.64 26.935H4.806A2.81 2.81 0 0 1 2 24.129V2.806A2.81 2.81 0 0 1 4.806 0H21.64a2.81 2.81 0 0 1 2.806 2.806v21.323a2.81 2.81 0 0 1-2.806 2.806zM4.806 1.122a1.685 1.685 0 0 0-1.684 1.684v21.323a1.685 1.685 0 0 0 1.683 1.683H21.64a1.685 1.685 0 0 0 1.683-1.683V2.806a1.685 1.685 0 0 0-1.683-1.684z" class="prefix__cls-1" data-name="Path 2178"/>
        <path id="prefix__Path_2179" d="M18.806 12.122h-2.245a.561.561 0 1 1 0-1.122h2.245a.561.561 0 1 1 0 1.122z" class="prefix__cls-1" data-name="Path 2179" transform="translate(1.712 1.345)"/>
        <path id="prefix__Path_2180" d="M18.806 9.122h-2.245a.561.561 0 1 1 0-1.122h2.245a.561.561 0 1 1 0 1.122z" class="prefix__cls-1" data-name="Path 2180" transform="translate(1.712 .978)"/>
        <path id="prefix__Path_2181" d="M18.806 15.122h-2.245a.561.561 0 1 1 0-1.122h2.245a.561.561 0 1 1 0 1.122z" class="prefix__cls-1" data-name="Path 2181" transform="translate(1.712 1.712)"/>
        <path id="prefix__Path_2182" d="M18.806 18.122h-2.245a.561.561 0 1 1 0-1.122h2.245a.561.561 0 1 1 0 1.122z" class="prefix__cls-1" data-name="Path 2182" transform="translate(1.712 2.079)"/>
        <path id="prefix__Path_2183" d="M20.151 21.122H5.561a.561.561 0 1 1 0-1.122h14.59a.561.561 0 1 1 0 1.122z" class="prefix__cls-1" data-name="Path 2183" transform="translate(.367 2.446)"/>
        <path id="prefix__Path_2184" d="M10.611 19.223a5.611 5.611 0 1 1 5.611-5.611 5.618 5.618 0 0 1-5.611 5.611zm0-10.1a4.489 4.489 0 1 0 4.489 4.488 4.494 4.494 0 0 0-4.489-4.489z" class="prefix__cls-1" data-name="Path 2184" transform="translate(.367 .978)"/>
        <path id="prefix__Path_2185" d="M6.879 17.744a.561.561 0 0 1-.4-.957l3.407-3.407V8.561a.561.561 0 0 1 1.122 0v5.05a.565.565 0 0 1-.164.4L7.276 17.58a.564.564 0 0 1-.397.164z" class="prefix__cls-1" data-name="Path 2185" transform="translate(.528 .978)"/>
    </g>
</svg>
