<svg xmlns="http://www.w3.org/2000/svg" width="14" height="14" viewBox="0 0 14 14">
    <path d="M10.655 12.261a1.7 1.7 0 0 1 1.672-1.736 1.7 1.7 0 0 1 1.674 1.736 1.705 1.705 0 0 1-1.672 1.736 1.705 1.705 0 0 1-1.672-1.736zm-5.327 0a1.7 1.7 0 0 1 1.673-1.731 1.7 1.7 0 0 1 1.672 1.736A1.705 1.705 0 0 1 7.001 14a1.705 1.705 0 0 1-1.673-1.739zm-5.327 0a1.7 1.7 0 0 1 1.672-1.736 1.7 1.7 0 0 1 1.672 1.736 1.705 1.705 0 0 1-1.672 1.736 1.7 1.7 0 0 1-1.672-1.736zm6.919-2.51a.206.206 0 0 1-.068-.047l-.875-.908a.224.224 0 0 1 0-.308.2.2 0 0 1 .148-.063.2.2 0 0 1 .148.063l.517.536V6.087a1.638 1.638 0 0 1-1.027.342H2.901a1.046 1.046 0 0 0-1.027 1.063v1.531l.516-.536a.205.205 0 0 1 .148-.063.205.205 0 0 1 .148.063.224.224 0 0 1 0 .308l-.875.908s-.008 0-.012.008a.215.215 0 0 1-.056.039.2.2 0 0 1-.081.017.2.2 0 0 1-.081-.017.2.2 0 0 1-.068-.047l-.874-.908a.225.225 0 0 1 0-.309.2.2 0 0 1 .148-.063.2.2 0 0 1 .148.063l.517.536V7.491a1.475 1.475 0 0 1 1.447-1.5h2.858c.555 0 1.027-.329 1.027-.72v-.948a2.141 2.141 0 0 1-1.882-2.159 2.131 2.131 0 0 1 2.091-2.17 2.131 2.131 0 0 1 2.09 2.17A2.141 2.141 0 0 1 7.2 4.323v.948c0 .39.47.72 1.027.72h2.86a1.475 1.475 0 0 1 1.447 1.5v1.531l.516-.536a.2.2 0 0 1 .148-.063.2.2 0 0 1 .148.063.225.225 0 0 1 0 .308l-.875.908a.213.213 0 0 1-.068.047.208.208 0 0 1-.081.017.212.212 0 0 1-.081-.017.2.2 0 0 1-.056-.039s-.008 0-.012-.008l-.875-.908a.224.224 0 0 1 0-.308.2.2 0 0 1 .148-.063.2.2 0 0 1 .148.063l.513.535v-1.53a1.046 1.046 0 0 0-1.027-1.064H8.222a1.639 1.639 0 0 1-1.027-.342v2.937l.517-.536a.2.2 0 0 1 .148-.063.2.2 0 0 1 .148.063.224.224 0 0 1 0 .308l-.875.908a.2.2 0 0 1-.068.047.2.2 0 0 1-.08.017.209.209 0 0 1-.073-.017z" data-name="Role Management"/>
</svg>
