<svg xmlns="http://www.w3.org/2000/svg" width="23.342" height="22.371" viewBox="0 0 23.342 22.371">
    <defs>
        <style>
            .prefix__cls-1{fill:#4639ff}
        </style>
    </defs>
    <g id="prefix__sale" transform="translate(0 -.498)">
        <path id="prefix__Path_1757" d="M21.52 11.428l-.557-4.8c2.176-1.58 3.078-4.228 1.775-5.528a2.448 2.448 0 0 0-2.385-.5A5.46 5.46 0 0 0 17.9 2.067l-.026.027-6.433-.744L0 12.791 10.079 22.87zm-.835-9.5a1.151 1.151 0 0 1 1.085.138c.506.506.043 1.911-.995 2.931l-.159-1.376L19.5 2.5a3.646 3.646 0 0 1 1.189-.574zm-8.744.856l4.967.575a4.7 4.7 0 0 0-.464 1.123L15.963 4 15 4.971l2.9 2.9.968-.968-.968-.964a1.151 1.151 0 0 1-.138-1.085 3.754 3.754 0 0 1 .668-1.317l.187.022.7.7.773 6.675-10.011 10-8.143-8.143zm0 0" class="prefix__cls-1" data-name="Path 1757"/>
        <path id="prefix__Path_1758" d="M122.745 211.617a2.053 2.053 0 1 0 2.053 2.053 2.055 2.055 0 0 0-2.053-2.053zm0 2.737a.684.684 0 1 1 .684-.684.685.685 0 0 1-.684.684zm0 0" class="prefix__cls-1" data-name="Path 1758" transform="translate(-115.189 -201.494)"/>
        <path id="prefix__Path_1759" d="M272.854 215.724a2.053 2.053 0 1 0-2.053-2.053 2.055 2.055 0 0 0 2.053 2.053zm0-2.737a.684.684 0 1 1-.684.684.685.685 0 0 1 .684-.685zm0 0" class="prefix__cls-1" data-name="Path 1759" transform="translate(-258.455 -201.494)"/>
        <path id="prefix__Path_1760" d="M212.329 164.121l1.35.225-1.369 8.212-1.35-.225zm0 0" class="prefix__cls-1" data-name="Path 1760" transform="translate(-201.343 -156.163)"/>
    </g>
</svg>
