<svg xmlns="http://www.w3.org/2000/svg" id="prefix__save" width="14.162" height="14.162" viewBox="0 0 14.162 14.162">
    <defs>
        <style>
            .prefix__cls-1{fill:#fff}
        </style>
    </defs>
    <g id="prefix__Group_1023" data-name="Group 1023">
        <g id="prefix__Group_1022" data-name="Group 1022">
            <path id="prefix__Path_1490" d="M14.068 2.669L11.493.094A.322.322 0 0 0 11.265 0H1.287A1.289 1.289 0 0 0 0 1.287v11.588a1.289 1.289 0 0 0 1.287 1.287h11.588a1.289 1.289 0 0 0 1.287-1.287V2.9a.322.322 0 0 0-.094-.231zM3.219.644H10.3v3.862a.644.644 0 0 1-.644.644H3.862a.644.644 0 0 1-.644-.644zm8.368 12.875H2.575V7.725h9.012zm1.931-.644a.644.644 0 0 1-.644.644h-.644V7.4a.322.322 0 0 0-.322-.322H2.253a.322.322 0 0 0-.322.322v6.115h-.644a.644.644 0 0 1-.644-.644V1.287a.644.644 0 0 1 .644-.643h1.288v3.862a1.289 1.289 0 0 0 1.287 1.288h5.794a1.289 1.289 0 0 0 1.287-1.287V.644h.189l2.386 2.386z" class="prefix__cls-1" data-name="Path 1490"/>
            <path id="prefix__Path_1491" d="M256.322 45.885h1.287a.322.322 0 0 0 .322-.322v-2.575a.322.322 0 0 0-.322-.322h-1.287a.322.322 0 0 0-.322.322v2.575a.322.322 0 0 0 .322.322zm.322-2.575h.644v1.931h-.644z" class="prefix__cls-1" data-name="Path 1491" transform="translate(-248.275 -41.379)"/>
        </g>
    </g>
</svg>
