<svg xmlns="http://www.w3.org/2000/svg" width="19.766" height="25.119" viewBox="0 0 19.766 25.119">
    <g id="prefix__score_card" transform="translate(-11775 -4093)">
        <g id="prefix__medical-check" transform="translate(11775 4093)">
            <g id="prefix__Group_530" data-name="Group 530" transform="translate(.39 2.48)">
                <path id="prefix__Path_1294" fill="#7ca2b1" fill-rule="evenodd" d="M53.767 47.68h17.438a.771.771 0 0 1 .769.768v20.679a.771.771 0 0 1-.769.768H53.767a.769.769 0 0 1-.767-.768V48.448a.769.769 0 0 1 .767-.768z" data-name="Path 1294" transform="translate(-52.999 -47.68)"/>
            </g>
            <g id="prefix__Group_531" data-name="Group 531" transform="translate(2.453 4.543)">
                <path id="prefix__Path_1295" fill="#f8f2f0" fill-rule="evenodd" d="M92.923 87.353h14.344a.253.253 0 0 1 .253.252v17.585a.253.253 0 0 1-.253.251H92.923a.251.251 0 0 1-.251-.251V87.6a.251.251 0 0 1 .251-.247z" data-name="Path 1295" transform="translate(-92.672 -87.353)"/>
            </g>
            <g id="prefix__Group_532" data-name="Group 532" transform="translate(5.41 .39)">
                <path id="prefix__Path_1296" fill="#fec165" fill-rule="evenodd" d="M149.523 9.429a.28.28 0 0 1 .279-.279h1.554c.064 0 .051.01.077-.045a2.839 2.839 0 0 1 5.112 0c.028.056.015.045.077.045h1.556a.28.28 0 0 1 .278.279v2.541a.28.28 0 0 1-.278.278H149.8a.28.28 0 0 1-.279-.278V9.429z" data-name="Path 1296" transform="translate(-149.523 -7.5)"/>
            </g>
            <g id="prefix__Group_533" data-name="Group 533" transform="translate(7.391 .39)">
                <path id="prefix__Path_1297" fill="#fea610" fill-rule="evenodd" d="M189.061 8.578a2.826 2.826 0 0 1 2.006.831c.059.059.114.118.167.181a2.828 2.828 0 0 1 .383.592c.028.056.015.045.077.045h1.556a.28.28 0 0 1 .278.279v1.742h.769a.28.28 0 0 0 .278-.278V9.429a.28.28 0 0 0-.278-.279h-1.556c-.063 0-.05.01-.077-.045a2.841 2.841 0 0 0-5.042-.136 2.841 2.841 0 0 1 1.439-.391z" data-name="Path 1297" transform="translate(-187.622 -7.5)"/>
            </g>
            <g id="prefix__Group_534" data-name="Group 534" transform="translate(2.453 4.543)">
                <path id="prefix__Path_1298" fill="#eee1dc" fill-rule="evenodd" d="M92.671 89.334h12.751a.254.254 0 0 1 .253.253V99.7a4.788 4.788 0 0 1 1.287-.175 4.7 4.7 0 0 1 .559.032V87.6a.253.253 0 0 0-.253-.252h-2.705v.317a.28.28 0 0 1-.278.278h-8.378a.28.28 0 0 1-.279-.278v-.317h-2.705a.251.251 0 0 0-.252.252v1.73z" data-name="Path 1298" transform="translate(-92.671 -87.353)"/>
            </g>
            <g id="prefix__Group_539" data-name="Group 539" transform="translate(16.102 2.48)">
                <path id="prefix__Path_1303" fill="#668d97" fill-rule="evenodd" d="M356.31 49.994v11.954a4.719 4.719 0 0 1 2.063.755V48.447a.771.771 0 0 0-.769-.768h-2.494a.769.769 0 0 1 .768.768v1.3h.18a.253.253 0 0 1 .252.247z" data-name="Path 1303" transform="translate(-355.11 -47.679)"/>
            </g>
            <g id="prefix__Group_540" data-name="Group 540">
                <path id="prefix__Path_1304" d="M133.653 144.117l.668.431a.39.39 0 0 0 .474-.04l1.584-1.445a.39.39 0 1 0-.526-.576l-1.362 1.242-.416-.268a.39.39 0 1 0-.423.655z" data-name="Path 1304" transform="translate(-128.899 -134.981)"/>
                <path id="prefix__Path_1305" d="M209.049 157.055h5.539a.39.39 0 0 0 0-.78h-5.539a.39.39 0 0 0 0 .78z" data-name="Path 1305" transform="translate(-200.174 -148.148)"/>
                <path id="prefix__Path_1306" d="M209.049 223.946h5.539a.39.39 0 0 0 0-.78h-5.539a.39.39 0 0 0 0 .78z" data-name="Path 1306" transform="translate(-200.174 -211.56)"/>
                <path id="prefix__Path_1307" d="M209.049 290.838h4.524a.39.39 0 1 0 0-.78h-4.524a.39.39 0 1 0 0 .78z" data-name="Path 1307" transform="translate(-200.174 -274.973)"/>
                <path id="prefix__Path_1308" d="M209.049 357.757h1.7a.39.39 0 0 0 0-.78h-1.7a.39.39 0 0 0 0 .78z" data-name="Path 1308" transform="translate(-200.174 -338.412)"/>
                <path id="prefix__Path_1309" d="M135.853 204.2l-1.362 1.243-.416-.268a.39.39 0 1 0-.422.656l.668.43a.39.39 0 0 0 .474-.04l1.584-1.445a.39.39 0 0 0-.526-.576z" data-name="Path 1309" transform="translate(-128.898 -193.488)"/>
                <path id="prefix__Path_1310" d="M133.653 267.58l.668.431a.39.39 0 0 0 .474-.04l1.584-1.445a.39.39 0 1 0-.526-.576l-1.362 1.242-.416-.268a.39.39 0 0 0-.423.655z" data-name="Path 1310" transform="translate(-128.899 -252.023)"/>
                <path id="prefix__Path_1311" d="M133.653 329.3l.668.431a.39.39 0 0 0 .474-.04l1.584-1.445a.39.39 0 0 0-.526-.576l-1.362 1.242-.416-.268a.39.39 0 0 0-.423.655z" data-name="Path 1311" transform="translate(-128.9 -310.53)"/>
                <path id="prefix__Path_1313" d="M65.255 17.3V9.8c0-.215-.175 0-.39 0s-.39-.215-.39 0v14.5h.125l-1.413-1.283V4.794a.643.643 0 0 0-.643-.642h-2.311V2.87H64.1a.379.379 0 0 1 .379.378V9.8a.39.39 0 1 0 .78 0V3.247A1.16 1.16 0 0 0 64.1 2.09h-3.9a.668.668 0 0 0-.627-.44h-1.381a3.231 3.231 0 0 0-5.632 0h-1.372a.67.67 0 0 0-.628.44h-3.9a1.159 1.159 0 0 0-1.16 1.157v20.68a1.159 1.159 0 0 0 1.158 1.158h11.913c.076.078 6.684 0 6.684 0v-6.58s.023-1.187 0-1.205zM51.3 2.43h1.457a.418.418 0 0 0 .412-.258v-.009a2.449 2.449 0 0 1 4.409 0v.005l.005.011A.412.412 0 0 0 58 2.43h1.456v2.318H51.3zM46.657 24.3a.378.378 0 0 1-.378-.378V3.247a.378.378 0 0 1 .378-.378h3.862v1.284H48.2a.642.642 0 0 0-.642.642v9.721a.39.39 0 1 0 .78 0V4.933h2.181a.67.67 0 0 0 .665.6h8.377a.669.669 0 0 0 .664-.6h2.182v11.4c-.04 0 0 5.912 0 5.912s-5.273-.07-5.263 0h-8.802v-7.729c0-.215-.1-.215-.312-.215-.09 0-.4-.289-.468.215v7.864a.642.642 0 0 0 .642.642h14.987L64.6 24.3H46.657zm15.586-7.2z" data-name="Path 1313" transform="translate(-45.499)"/>
            </g>
        </g>
    </g>
</svg>
