<svg xmlns="http://www.w3.org/2000/svg" width="30.916" height="29.408" viewBox="0 0 30.916 29.408">
    <defs>
        <style>
            .prefix__cls-1{fill:#7b79f6}.prefix__cls-2{fill:#cfd2fc}.prefix__cls-5{fill:#f29a22}.prefix__cls-8{fill:#ff3a3a}.prefix__cls-9{fill:#00165c}
        </style>
    </defs>
    <g id="prefix__seo-report" transform="translate(-10 -22)">
        <path id="prefix__Path_114" d="M18.865 29.433v1.749H16v-1.749a1.433 1.433 0 1 1 2.865 0z" class="prefix__cls-1" data-name="Path 114" transform="translate(-5.623 -5.623)"/>
        <path id="prefix__Path_115" d="M18.061 28.146A1.433 1.433 0 0 0 16 29.434v1.749h1.257v-1.749a1.433 1.433 0 0 1 .8-1.288z" class="prefix__cls-2" data-name="Path 115" transform="translate(-5.623 -5.624)"/>
        <path id="prefix__Path_116" d="M18.865 297.04v4.867a8.529 8.529 0 0 1-1.433 4.732A8.528 8.528 0 0 1 16 301.907v-4.867z" class="prefix__cls-1" data-name="Path 116" transform="translate(-5.623 -257.757)"/>
        <path id="prefix__Path_117" d="M17.257 301.907v-4.867H16v4.867a8.529 8.529 0 0 0 1.433 4.732 8.527 8.527 0 0 0 .628-1.117 8.529 8.529 0 0 1-.804-3.615z" class="prefix__cls-2" data-name="Path 117" transform="translate(-5.623 -257.757)"/>
        <path id="prefix__Path_118" d="M18.865 79.672v12.682H16V78.63h2.865z" data-name="Path 118" transform="translate(-5.623 -53.072)" style="fill:#e2e4ed"/>
        <path id="prefix__Path_119" d="M16 78.63h1.257v13.724H16z" data-name="Path 119" transform="translate(-5.623 -53.072)" style="fill:#b0b5ca"/>
        <path id="prefix__Path_120" d="M305.49 292.141l1.5 4.514-4.384-1.461-1.131-.377-1.03-.343a4.364 4.364 0 0 1 4.363-4.363l.322.966z" class="prefix__cls-5" data-name="Path 120" transform="translate(-272.199 -251.263)"/>
        <path id="prefix__Path_121" d="M302.611 341.107l-1.131-.377-.861-.287a4.367 4.367 0 0 0-.169 1.2l1.03.343 1.131.377 4.384 1.461-.471-1.414z" data-name="Path 121" transform="translate(-272.199 -298.433)" style="fill:#18a835"/>
        <path id="prefix__Path_122" d="M320.953 301.27a5.758 5.758 0 1 1-8.052 3.492l.013-.04 1.131.377 4.384 1.461-1.5-4.514-.355-1.065a5.773 5.773 0 0 1 4.384.288z" class="prefix__cls-2" data-name="Path 122" transform="translate(-283.633 -261.169)"/>
        <path id="prefix__Path_123" d="M318.43 387.431a5.758 5.758 0 0 1-5.73-5.131 5.76 5.76 0 1 0 11.451 0 5.76 5.76 0 0 1-5.721 5.131z" class="prefix__cls-1" data-name="Path 123" transform="translate(-283.651 -337.657)"/>
        <path id="prefix__Path_124" d="M150.35 33.949v11.7l-.036.072a5.773 5.773 0 0 0-4.384-.288l-.322-.966a4.364 4.364 0 0 0-4.363 4.363l1.03.343-.013.04a5.77 5.77 0 0 0 .363 4.262l-.038.019H132.27a1.7 1.7 0 0 1-1.7-1.7V29.7a1.7 1.7 0 0 1 1.7-1.7h12.13v4.25a1.7 1.7 0 0 0 1.7 1.7z" class="prefix__cls-2" data-name="Path 124" transform="translate(-112.994 -5.623)"/>
        <path id="prefix__Path_125" d="M133.083 51.8V29.7a1.7 1.7 0 0 1 1.7-1.7h-2.513a1.7 1.7 0 0 0-1.7 1.7v22.1a1.7 1.7 0 0 0 1.7 1.7h2.513a1.7 1.7 0 0 1-1.7-1.7z" class="prefix__cls-1" data-name="Path 125" transform="translate(-112.994 -5.623)"/>
        <path id="prefix__Path_126" d="M356.619 33.949h-4.25a1.7 1.7 0 0 1-1.7-1.7V28z" class="prefix__cls-2" data-name="Path 126" transform="translate(-319.264 -5.623)"/>
        <path id="prefix__Path_127" d="M171.9 316.34h1.963v1.96H171.9z" data-name="Path 127" transform="translate(-151.727 -275.845)" style="fill:#edf2ff"/>
        <g id="prefix__Group_196" data-name="Group 196" transform="translate(10 22)">
            <path id="prefix__Path_128" d="M242.728 130.454h5.528a.377.377 0 1 0 0-.754h-5.528a.377.377 0 1 0 0 .754z" class="prefix__cls-8" data-name="Path 128" transform="translate(-227.751 -122.933)"/>
            <path id="prefix__Path_129" d="M242.728 159.093h1.946a.377.377 0 1 0 0-.754h-1.946a.377.377 0 1 0 0 .754z" class="prefix__cls-8" data-name="Path 129" transform="translate(-227.751 -149.772)"/>
            <path id="prefix__Path_130" d="M242.728 221.585h7.982a.377.377 0 0 0 0-.754h-7.982a.377.377 0 1 0 0 .754z" class="prefix__cls-8" data-name="Path 130" transform="translate(-227.751 -208.337)"/>
            <path id="prefix__Path_131" d="M169.852 126.316l-1.462 1.462-.564-.508a.377.377 0 0 0-.5.56l.829.748a.377.377 0 0 0 .519-.013l1.715-1.715a.377.377 0 1 0-.533-.533z" class="prefix__cls-9" data-name="Path 131" transform="translate(-157.319 -119.658)"/>
            <path id="prefix__Path_132" d="M169.852 220.939l-1.462 1.461-.564-.508a.377.377 0 0 0-.5.56l.829.748a.377.377 0 0 0 .519-.013l1.715-1.715a.377.377 0 1 0-.533-.533z" class="prefix__cls-9" data-name="Path 132" transform="translate(-157.319 -208.335)"/>
            <path id="prefix__Path_133" d="M145.1 39.893V28.326a.377.377 0 0 0-.11-.266l-5.949-5.949a.377.377 0 0 0-.267-.11h-12.126a2.079 2.079 0 0 0-2.077 2.077v22.1a2.079 2.079 0 0 0 2.077 2.077h10.14a6.136 6.136 0 1 0 8.317-8.358zm-5.949-16.606l4.662 4.662h-3.339a1.324 1.324 0 0 1-1.323-1.323zM126.648 47.5a1.324 1.324 0 0 1-1.323-1.323v-22.1a1.324 1.324 0 0 1 1.323-1.323H138.4v3.872a2.079 2.079 0 0 0 2.077 2.077h3.873v10.839a6.133 6.133 0 0 0-3.8-.2l-.206-.619a.377.377 0 0 0-.358-.258 4.74 4.74 0 0 0-4.74 4.74.377.377 0 0 0 .258.358l.69.23a6.136 6.136 0 0 0 .239 3.7zm14.924-2.7l-5.563-1.854a3.987 3.987 0 0 1 3.708-3.709zm.579 5.858a5.384 5.384 0 0 1-5.24-6.617l5.138 1.712a.377.377 0 0 0 .477-.477l-1.737-5.209a5.383 5.383 0 1 1 1.362 10.591z" class="prefix__cls-9" data-name="Path 133" transform="translate(-117.372 -22)"/>
            <path id="prefix__Path_134" d="M244.674 249.473h-1.946a.377.377 0 1 0 0 .754h1.946a.377.377 0 1 0 0-.754z" class="prefix__cls-8" data-name="Path 134" transform="translate(-227.751 -235.179)"/>
            <path id="prefix__Path_135" d="M168.24 310.345h-1.963a.377.377 0 0 0-.377.377v1.963a.377.377 0 0 0 .377.377h1.963a.377.377 0 0 0 .377-.377v-1.963a.377.377 0 0 0-.377-.377zm-.377 1.963h-1.209V311.1h1.209z" class="prefix__cls-5" data-name="Path 135" transform="translate(-156.104 -292.226)"/>
            <path id="prefix__Path_136" d="M244.53 312.949h-1.8a.377.377 0 1 0 0 .754h1.8a.377.377 0 0 0 0-.754z" class="prefix__cls-5" data-name="Path 136" transform="translate(-227.751 -294.667)"/>
            <path id="prefix__Path_137" d="M243.856 341.591h-1.128a.377.377 0 1 0 0 .754h1.128a.377.377 0 1 0 0-.754z" class="prefix__cls-5" data-name="Path 137" transform="translate(-227.751 -321.509)"/>
            <path id="prefix__Path_138" d="M14.346 25.12a1.47 1.47 0 0 0-.726.191v-1.5a1.81 1.81 0 1 0-3.619 0V44.15a8.879 8.879 0 0 0 1.5 4.941.377.377 0 0 0 .627 0 8.879 8.879 0 0 0 1.5-4.941V26.6a.726.726 0 0 1 1.453 0v9.411a.377.377 0 0 0 .754 0V26.6a1.482 1.482 0 0 0-1.489-1.48zm-1.481 19.03a8.124 8.124 0 0 1-1.056 4.013 8.125 8.125 0 0 1-1.056-4.013v-4.49h2.111zm0-5.244h-2.111V25.935h2.111zm0-13.724h-2.111V23.81a1.056 1.056 0 0 1 2.111 0z" class="prefix__cls-9" data-name="Path 138" transform="translate(-10 -22)"/>
            <path id="prefix__Path_139" d="M33.177 462.042a.377.377 0 0 0-.377.377v.428a.377.377 0 0 0 .754 0v-.428a.377.377 0 0 0-.377-.377z" data-name="Path 139" transform="translate(-31.367 -434.391)" style="fill:#284268"/>
        </g>
    </g>
</svg>
