<svg xmlns="http://www.w3.org/2000/svg" width="16" height="20" viewBox="0 0 16 20">
    <path d="M6.515 20l-.1-.022-.082-.044-.062-.07-.032-.087-.087-.5-.025-.071-.05-.066-.056-.049-.076-.033-.238-.081-.225-.1-.076-.022-.081-.006-.082.017-.075.032-.457.289-.068.038-.076.011-.075-.005-.076-.022-.062-.049-.526-.473-.044-.059-.031-.066-.005-.07.018-.066.038-.071.325-.409.038-.07.013-.077v-.071l-.032-.07-.106-.207-.081-.212-.038-.071-.057-.059-.068-.039-.076-.022-.551-.087-.094-.032-.075-.06-.05-.076-.013-.093v-.675l.019-.082.05-.077.075-.059.094-.028.551-.086.081-.022.068-.043.05-.054.038-.071.087-.207.106-.207.031-.07.006-.071-.019-.077-.038-.071-.325-.413-.032-.066-.013-.065.006-.077.025-.066.049-.054.264-.245.257-.235.062-.049.076-.022.075-.005.075.016.076.027.451.3.075.038.081.016.082-.005.081-.027.226-.1.25-.077.075-.032.063-.049.05-.066.025-.07.094-.491.038-.087.056-.071.087-.043.1-.011h.738l.1.016.082.044.069.07.031.087.094.507.026.07.043.06.063.054.075.033.226.076.219.1.087.028.087.005.082-.017.076-.032.444-.294.069-.032.081-.016.076.005.075.032.063.044.256.234.257.239.049.055.025.07.006.071-.013.071-.037.059-.326.419-.038.065-.019.077.007.077.024.071.1.2.081.218.038.065.049.059.068.039.082.027.544.082.095.038.068.055.05.076.005.087v.68l-.012.087-.05.077-.075.054-.094.033-.563.087-.075.022-.069.043-.056.055-.038.07-.081.207-.107.2-.031.076-.005.077.013.071.043.071.313.409.032.065.012.071-.005.066-.025.07-.05.059-.257.234-.257.235-.062.049-.076.027-.082.005-.075-.016-.075-.032-.451-.3-.068-.038-.082-.011-.087.005-.082.022-.212.093-.219.071-.076.032-.063.049-.043.066-.025.071-.094.495-.044.087-.062.07-.082.044-.1.022zm.138-5.1l-.231.055-.213.071-.193.1-.182.13-.163.147-.137.169-.107.185-.082.2-.049.207-.013.223.019.219.057.206.081.2.113.185.138.163.169.148.182.125.2.1.212.066.232.049.244.016.238-.022.225-.049.22-.082.2-.092.175-.13.163-.148.131-.169.105-.184.088-.2.05-.212.013-.218-.019-.218-.05-.207-.094-.207-.113-.174-.139-.169-.156-.141-.182-.131-.2-.1-.225-.071-.226-.049-.237-.011zm6.558.637l-.217-.037-.061-.022-.045-.031-.028-.058-.017-.057-.005-.337-.017-.068-.033-.052-.056-.042-.133-.073-.134-.078-.061-.031-.067-.006-.061.022-.3.152-.056.021-.061-.005-.062-.021-.039-.036-.139-.185-.134-.178-.028-.058-.005-.058.017-.058.033-.053.229-.241.039-.058.017-.063-.012-.068-.044-.147-.033-.142-.023-.068-.039-.047-.061-.037-.324-.1-.056-.026-.039-.048-.017-.052-.005-.063.033-.221.034-.215.022-.058.04-.042.049-.037.061-.01.335-.005.067-.016.062-.031.039-.058.078-.131.078-.13.027-.059.006-.068-.017-.063-.156-.3-.017-.058v-.058l.023-.058.045-.042.363-.267.055-.026.056-.005.056.011.056.032.246.236.061.037.067.01h.068l.15-.042.15-.036.068-.022.055-.041.033-.063.1-.315.028-.053.045-.037.056-.026.061-.005.452.074.056.016.045.041.033.048.011.058.005.341.017.063.039.063.05.036.134.074.122.085.061.026.067.005.067-.022.3-.152.056-.021h.062l.056.022.039.041.279.363.028.052.005.063-.016.052-.04.053-.234.241-.039.063-.017.063.011.063.045.147.028.141.022.068.045.053.056.032.323.1.056.027.04.047.022.052-.005.063-.034.215-.033.226-.017.058-.039.048-.05.026-.056.015-.351.005-.067.015-.056.037-.04.052-.073.137-.083.121-.028.063-.005.063.022.068.151.293.022.063-.005.053-.022.058-.039.041-.184.137-.185.13-.056.032-.061.006-.056-.016-.05-.031-.25-.236-.056-.042-.062-.011-.067.011-.145.042-.139.026-.068.026-.05.048-.033.051-.1.326-.028.048-.044.041-.057.022-.061.005zm.129-3.333l-.162.048-.15.078-.134.105-.112.121-.094.148-.067.163-.045.167-.005.178.028.173.05.163.083.147.1.137.123.11.144.094.162.068.178.037.179.005.172-.022.163-.052.149-.079.14-.1.117-.121.089-.142.067-.162.04-.173.011-.179-.022-.173-.056-.158-.078-.153-.105-.131-.123-.121-.15-.084-.162-.068-.172-.042-.179-.011zm-8.811-.166l-.106-.028-.542-.2-.549-.2-.094-.05-.077-.067-.059-.084-.041-.095-.018-.1.012-.105.165-.86.013-.106-.018-.1-.035-.1-.059-.084-.076-.077-.183-.161-.189-.161-.171-.183-.076-.072-.094-.045-.094-.028-.107-.016-.105.022-.85.222-.106.017-.106-.012-.095-.027-.088-.056-.071-.077-.058-.089-.241-.523-.248-.527-.029-.1-.013-.1.018-.1.041-.094.059-.089.077-.067.725-.478.083-.072.059-.084.047-.094.023-.1v-.105l-.029-.39V5.81l-.006-.105-.035-.1-.048-.089-.065-.077-.088-.067-.76-.434-.083-.067-.07-.077-.042-.089-.023-.1v-.1l.023-.106.2-.538.212-.539.047-.095.065-.077.083-.056.094-.044.1-.017.107.012.867.161.106.011.1-.017.106-.039.082-.056.077-.072.165-.2.177-.189.189-.178.076-.077.054-.095.03-.1.005-.1-.018-.105-.23-.832-.017-.106L2.71.94l.035-.089.053-.089.076-.072.094-.061.513-.244.531-.239.1-.032h.1l.1.016.094.039.088.056.071.083.489.716.065.084.083.061.1.044.107.017h.105l.383-.028h.4l.106-.005.1-.028.088-.05.082-.06.065-.089.443-.755.065-.084.076-.061.094-.05.095-.022h.106l.106.022.543.205.548.2.089.049.076.061.059.084.041.094.018.1-.006.105-.165.86-.006.106.012.1.041.1.053.089.083.067.206.172.194.184.183.194.083.067.089.056.1.027.106.006.112-.012.832-.221.106-.017.106.012.094.033.088.055.071.073.059.088.247.527.242.523.03.1.012.1-.018.1-.04.1-.059.083-.077.067-.737.495-.083.072-.059.084-.04.094-.024.1v.105l.03.383-.005.383.005.105.03.1.053.094.071.084.082.061.755.421.088.061.065.078.047.094.024.095v.105l-.03.1-.2.538-.206.545-.053.089-.065.072-.083.061-.094.04-.1.022-.106-.005-.872-.172-.107-.006-.1.017-.1.033-.089.056-.07.077-.171.194-.177.184-.183.177-.071.084-.059.088-.03.1-.005.1.012.105.23.827.018.106-.012.1-.03.1-.059.084-.077.077-.094.05-.525.244-.531.245-.1.028-.1.005-.1-.017-.094-.033-.094-.061-.071-.083-.495-.728-.071-.078-.083-.061-.1-.044-.1-.022-.106.005-.383.022h-.39l-.106.012-.1.027-.094.045-.077.072-.065.084-.437.739-.065.089-.083.067-.088.044-.1.022zm1.245-8.543l-.265.044-.272.078-.259.105-.241.133-.224.156-.212.177-.184.194-.158.205-.136.222-.112.234-.094.25-.059.249-.035.261-.012.261.017.267.048.261.082.266.107.255.135.245.154.222.176.2.194.183.212.161.229.133.237.116.247.084.254.067.265.033.266.012.265-.022.266-.05.272-.067.254-.105.247-.139.223-.15.213-.177.176-.194.166-.212.135-.222.113-.238.094-.244.059-.256.036-.256.011-.267-.017-.261-.048-.261-.076-.266-.113-.256-.135-.238-.153-.229-.177-.205-.194-.183-.218-.156-.225-.133-.236-.117-.247-.083-.259-.061-.26-.033-.265-.012z"/>
</svg>
