<svg width="20" height="24" viewBox="0 0 20 24" fill="none" xmlns="http://www.w3.org/2000/svg">
<path d="M0 12C0 12.3183 0.126428 12.6235 0.351472 12.8485C0.576516 13.0736 0.88174 13.2 1.2 13.2H10.308L7.548 15.948C7.43553 16.0596 7.34625 16.1923 7.28533 16.3385C7.22441 16.4847 7.19304 16.6416 7.19304 16.8C7.19304 16.9584 7.22441 17.1153 7.28533 17.2615C7.34625 17.4077 7.43553 17.5404 7.548 17.652C7.65956 17.7645 7.79228 17.8537 7.93851 17.9147C8.08474 17.9756 8.24159 18.007 8.4 18.007C8.55841 18.007 8.71526 17.9756 8.86149 17.9147C9.00772 17.8537 9.14044 17.7645 9.252 17.652L14.052 12.852C14.1612 12.7379 14.2469 12.6033 14.304 12.456C14.424 12.1638 14.424 11.8362 14.304 11.544C14.2469 11.3967 14.1612 11.2621 14.052 11.148L9.252 6.348C9.14011 6.23611 9.00729 6.14736 8.8611 6.08681C8.71491 6.02626 8.55823 5.99509 8.4 5.99509C8.24177 5.99509 8.08509 6.02626 7.9389 6.08681C7.79271 6.14736 7.65989 6.23611 7.548 6.348C7.43611 6.45989 7.34736 6.59271 7.28681 6.7389C7.22626 6.88509 7.19509 7.04177 7.19509 7.2C7.19509 7.35823 7.22626 7.51491 7.28681 7.6611C7.34736 7.80729 7.43611 7.94011 7.548 8.052L10.308 10.8H1.2C0.88174 10.8 0.576516 10.9264 0.351472 11.1515C0.126428 11.3765 0 11.6817 0 12ZM15.6 0H3.6C2.64522 0 1.72955 0.379285 1.05442 1.05442C0.379285 1.72955 0 2.64522 0 3.6V7.2C0 7.51826 0.126428 7.82348 0.351472 8.04853C0.576516 8.27357 0.88174 8.4 1.2 8.4C1.51826 8.4 1.82348 8.27357 2.04853 8.04853C2.27357 7.82348 2.4 7.51826 2.4 7.2V3.6C2.4 3.28174 2.52643 2.97652 2.75147 2.75147C2.97652 2.52643 3.28174 2.4 3.6 2.4H15.6C15.9183 2.4 16.2235 2.52643 16.4485 2.75147C16.6736 2.97652 16.8 3.28174 16.8 3.6V20.4C16.8 20.7183 16.6736 21.0235 16.4485 21.2485C16.2235 21.4736 15.9183 21.6 15.6 21.6H3.6C3.28174 21.6 2.97652 21.4736 2.75147 21.2485C2.52643 21.0235 2.4 20.7183 2.4 20.4V16.8C2.4 16.4817 2.27357 16.1765 2.04853 15.9515C1.82348 15.7264 1.51826 15.6 1.2 15.6C0.88174 15.6 0.576516 15.7264 0.351472 15.9515C0.126428 16.1765 0 16.4817 0 16.8V20.4C0 21.3548 0.379285 22.2705 1.05442 22.9456C1.72955 23.6207 2.64522 24 3.6 24H15.6C16.5548 24 17.4705 23.6207 18.1456 22.9456C18.8207 22.2705 19.2 21.3548 19.2 20.4V3.6C19.2 2.64522 18.8207 1.72955 18.1456 1.05442C17.4705 0.379285 16.5548 0 15.6 0Z" fill="white"/>
</svg>
