<svg xmlns="http://www.w3.org/2000/svg" width="32" height="14.689" viewBox="0 0 32 14.689">
    <g>
        <path d="M12.205 143.2v-4.716a17.215 17.215 0 0 0-6.459 1.544 10.941 10.941 0 0 0-4.109 3.172z" data-name="Path 1790" transform="translate(0 -138.482)"/>
        <path d="M7.059 149.438a1.866 1.866 0 1 0 1.866 1.866 1.868 1.868 0 0 0-1.866-1.866z" data-name="Path 1791" transform="translate(0 -138.482)"/>
        <path d="M14.08 143.2H24.7a10.942 10.942 0 0 0-4.109-3.172 17.234 17.234 0 0 0-6.51-1.546v4.718z" data-name="Path 1792" transform="translate(0 -138.482)"/>
        <path d="M30.4 146.612a5.425 5.425 0 0 0-3.051-1.541H0v7.167h3.437a3.741 3.741 0 1 1 7.245 0h10.675a3.741 3.741 0 1 1 7.245 0H32v-1.761a5.431 5.431 0 0 0-1.6-3.865z" data-name="Path 1793" transform="translate(0 -138.482)"/>
        <path d="M24.979 149.438a1.866 1.866 0 1 0 1.866 1.866 1.868 1.868 0 0 0-1.866-1.866z" data-name="Path 1794" transform="translate(0 -138.482)"/>
    </g>
</svg>
