<svg xmlns="http://www.w3.org/2000/svg" width="32.427" height="16.059" viewBox="0 0 32.427 16.059">
    <path d="M30.8 6.944a5.5 5.5 0 0 0-3.917-1.623h-1.49a10.678 10.678 0 0 0-4.528-3.733 17.765 17.765 0 0 0-7.521-1.589A17.768 17.768 0 0 0 5.823 1.59a10.679 10.679 0 0 0-4.528 3.733H0v8.011h3.969a3.676 3.676 0 0 0 7.1 0h10.325a3.676 3.676 0 0 0 7.1 0h3.93v-2.472a5.5 5.5 0 0 0-1.622-3.917zM14.263 1.426a17.333 17.333 0 0 1 6.129 1.316 15.053 15.053 0 0 1 3.429 2.786h-9.553zM6.304 2.742a17.288 17.288 0 0 1 6.058-1.471v4.257h-9.8a17.081 17.081 0 0 1 3.747-2.786zm1.212 11.417A1.776 1.776 0 1 1 9.3 12.383a1.778 1.778 0 0 1-1.776 1.776zm17.424 0a1.776 1.776 0 1 1 1.776-1.776 1.778 1.778 0 0 1-1.771 1.776zm5.859-2.283H28.7a4.36 4.36 0 0 0-3.757-3.169 3.7 3.7 0 0 0-3.777 3.169h-10.1a3.675 3.675 0 0 0-3.551-3.169 3.52 3.52 0 0 0-3.551 3.169H1.295v-5.16h25.86a4.189 4.189 0 0 1 2.711 1.293 3.568 3.568 0 0 1 .939 2.6z"/>
</svg>
