<svg xmlns="http://www.w3.org/2000/svg" width="80" height="128" viewBox="0 0 80 128" version="1.1"><path d="M 28.324 8.383 C 15.323 12.624, 4.556 25.551, 3.447 38.251 C 2.989 43.500, 2.989 43.500, 4.403 37.389 C 12.310 3.226, 57.263 -2.733, 72.478 28.365 C 81.136 46.061, 71.611 72.893, 45.522 104.300 C 39.874 111.100, 39.874 111.100, 34.512 104.559 C 17.773 84.137, 7.776 65.955, 4.516 50 C 3.383 44.455, 3.174 44.062, 3.094 47.324 C 2.804 59.139, 19.102 89.439, 35.463 107.500 C 40.652 113.228, 40.664 113.221, 53.556 96 C 79.984 60.698, 83.927 34.273, 65.354 16.937 C 55.842 8.060, 40.314 4.472, 28.324 8.383 M 33.241 31.952 C 28.856 34.683, 24.312 42, 27 42 C 27.550 42, 28 41.360, 28 40.577 C 28 38.127, 32.911 33.184, 36.533 31.989 C 42.730 29.944, 52 35.391, 52 41.077 C 52 42.135, 52.480 43, 53.067 43 C 54.318 43, 53.456 39.554, 51.382 36.264 C 47.776 30.544, 38.891 28.432, 33.241 31.952 M 26 45.532 C 26 54.650, 39.979 60.711, 47.939 55.044 C 51.827 52.275, 55.493 45, 53 45 C 52.450 45, 52 45.945, 52 47.100 C 52 51.394, 45.790 56, 40 56 C 34.210 56, 28 51.394, 28 47.100 C 28 45.945, 27.550 45, 27 45 C 26.450 45, 26 45.239, 26 45.532" stroke="none" fill="#fc2979" fill-rule="evenodd"/><path d="M 28.332 9.792 C -1.765 20.537, -3.614 51.524, 23.542 90.060 C 38.598 111.424, 39.252 111.848, 45.522 104.300 C 65.684 80.028, 76.972 56.178, 75.669 40.604 C 73.762 17.811, 49.715 2.159, 28.332 9.792 M 33.304 31.913 C 21.203 39.454, 25.916 57.385, 40 57.385 C 57.643 57.385, 58.288 31.912, 40.686 30.304 C 37.730 30.034, 35.561 30.507, 33.304 31.913" stroke="none" fill="#fc0c6c" fill-rule="evenodd"/></svg>