<svg xmlns="http://www.w3.org/2000/svg" width="80" height="128" viewBox="0 0 80 128" version="1.1"><path d="M 28.324 8.383 C 22.294 10.350, 17.929 13.299, 12.573 19.026 C 6.954 25.032, 4.071 31.107, 3.447 38.251 L 2.989 43.500 4.403 37.389 C 5.181 34.028, 6.740 29.469, 7.868 27.258 C 10.821 21.471, 18.129 14.575, 24.761 11.318 C 29.833 8.828, 31.605 8.500, 40 8.500 C 48.395 8.500, 50.167 8.828, 55.239 11.318 C 71.252 19.181, 79.099 36.371, 74.632 53.797 C 71.260 66.947, 59.270 87.749, 45.522 104.300 L 39.874 111.100 34.512 104.559 C 26.266 94.499, 18.384 82.948, 13.496 73.760 C 8.240 63.878, 6.307 58.765, 4.516 50 C 3.383 44.455, 3.174 44.062, 3.094 47.324 C 2.804 59.139, 19.102 89.439, 35.463 107.500 L 39.992 112.500 43.592 108.500 C 55.863 94.868, 70.126 71.838, 74.560 58.500 C 79.859 42.560, 76.484 27.326, 65.354 16.937 C 57.816 9.903, 52.184 7.626, 41.500 7.298 C 35.879 7.125, 30.932 7.533, 28.324 8.383 M 33.241 31.952 C 28.856 34.683, 24.312 42, 27 42 C 27.550 42, 28 41.360, 28 40.577 C 28 38.127, 32.911 33.184, 36.533 31.989 C 39.136 31.130, 40.864 31.130, 43.467 31.989 C 47.392 33.285, 52 38.192, 52 41.077 C 52 42.135, 52.480 43, 53.067 43 C 54.318 43, 53.456 39.554, 51.382 36.264 C 47.776 30.544, 38.891 28.432, 33.241 31.952 M 26 45.532 C 26 45.825, 26.624 47.558, 27.387 49.383 C 31.833 60.023, 48.167 60.023, 52.613 49.383 C 54.267 45.426, 54.304 45, 53 45 C 52.450 45, 52 45.945, 52 47.100 C 52 48.255, 50.470 50.730, 48.600 52.600 C 45.605 55.595, 44.580 56, 40 56 C 35.420 56, 34.395 55.595, 31.400 52.600 C 29.530 50.730, 28 48.255, 28 47.100 C 28 45.945, 27.550 45, 27 45 C 26.450 45, 26 45.239, 26 45.532" stroke="none" fill="#fc2979" fill-rule="evenodd"/><path d="M 28.332 9.792 C 11.381 15.844, 1.277 32.955, 4.591 49.996 C 6.281 58.683, 8.199 63.802, 13.496 73.760 C 18.384 82.948, 26.266 94.499, 34.512 104.559 L 39.874 111.100 45.522 104.300 C 59.270 87.749, 71.260 66.947, 74.632 53.797 C 79.087 36.419, 71.238 19.156, 55.348 11.382 C 47.899 7.737, 36.042 7.040, 28.332 9.792 M 33.304 31.913 C 29.070 34.552, 26.693 38.357, 26.480 42.838 C 26.078 51.295, 31.738 57.385, 40 57.385 C 57.643 57.385, 58.288 31.912, 40.686 30.304 C 37.730 30.034, 35.561 30.507, 33.304 31.913" stroke="none" fill="#fc0c6c" fill-rule="evenodd"/></svg>