<svg width="21" height="24" viewBox="0 0 21 24" fill="none" xmlns="http://www.w3.org/2000/svg">
<path d="M18.8001 0H2.00002C0.897236 0 0 0.897189 0 2.00002V14C0 14.106 0.0420001 14.208 0.117188 14.2828L8.11722 22.2828C8.27364 22.4392 8.52644 22.4392 8.68281 22.2828C8.83924 22.1264 8.83924 21.8736 8.68281 21.7172L0.800017 13.8344V2.00002C0.800017 1.33842 1.33842 0.800017 2.00002 0.800017H18.8001C19.4616 0.800017 20.0001 1.33842 20.0001 2.00002V22.0001C20.0001 22.6617 19.4616 23.2001 18.8001 23.2001H10.4V15.6C10.4 15.148 10.2436 14.7352 9.99002 14.4H17.0345L13.7172 17.7176C13.5609 17.874 13.5609 18.1268 13.7172 18.2832C13.7952 18.3612 13.8977 18.4004 14 18.4004C14.1025 18.4004 14.2048 18.3612 14.2828 18.2832L18.2825 14.2832C18.3197 14.246 18.3489 14.202 18.3693 14.1528C18.4097 14.0552 18.4097 13.9448 18.3693 13.8472C18.3489 13.798 18.3197 13.754 18.2825 13.7168L14.2828 9.71721C14.1264 9.56078 13.8736 9.56078 13.7172 9.71721C13.5609 9.87363 13.5609 10.1264 13.7172 10.2828L17.0345 13.6H8.40002H2.4C2.1788 13.6 2.00002 13.7792 2.00002 14C2.00002 14.2208 2.1788 14.4 2.4 14.4H8.40002C9.06161 14.4 9.60002 14.9384 9.60002 15.6V23.6C9.60002 23.8208 9.7788 24 10 24H18.8001C19.9028 24 20.8001 23.1028 20.8001 22V2.00002C20.8001 0.897189 19.9028 0 18.8001 0Z" fill="black"/>
</svg>
