<svg xmlns="http://www.w3.org/2000/svg" width="22.771" height="23.869" viewBox="0 0 22.771 23.869">
    <defs>
        <style>
            .prefix__cls-1{fill:#dd636e}.prefix__cls-2{fill:#da4a54}.prefix__cls-3{fill:#90d8f9}.prefix__cls-4{fill:#75cef9}
        </style>
    </defs>
    <g id="prefix__undertaking_letters" transform="translate(-11.775)">
        <g id="prefix__Group_2542" data-name="Group 2542" transform="translate(25.199 .676)">
            <path id="prefix__Path_2387" d="M302.7 14.493h-2.96v2.112h2.96a.233.233 0 0 0 .233-.233v-1.646a.233.233 0 0 0-.233-.233z" class="prefix__cls-1" data-name="Path 2387" transform="translate(-299.74 -14.493)"/>
        </g>
        <g id="prefix__Group_2543" data-name="Group 2543" transform="translate(25.199 .676)">
            <path id="prefix__Path_2388" d="M302.7 14.493h-.459v1.187a.233.233 0 0 1-.233.233h-2.268v.692h2.96a.233.233 0 0 0 .233-.233v-1.646a.233.233 0 0 0-.233-.233z" class="prefix__cls-2" data-name="Path 2388" transform="translate(-299.74 -14.493)"/>
        </g>
        <g id="prefix__Group_2544" data-name="Group 2544" transform="translate(22.859 13.797)">
            <path id="prefix__Path_2389" d="M254.409 305.305l-.677-.811a1.925 1.925 0 0 1-.448-1.234v-7.294H250.7v7.294a1.925 1.925 0 0 1-.448 1.234l-.677.811a.233.233 0 0 0 .179.382h4.472a.233.233 0 0 0 .183-.382z" class="prefix__cls-1" data-name="Path 2389" transform="translate(-249.524 -295.966)"/>
        </g>
        <g id="prefix__Group_2545" data-name="Group 2545" transform="translate(25.605 13.797)">
            <path id="prefix__Path_2390" d="M310.568 305.305l-.677-.811a1.926 1.926 0 0 1-.448-1.234v-7.294h-1.013v7.294a1.926 1.926 0 0 0 .448 1.234l.677.811a.233.233 0 0 1-.179.382h1.013a.233.233 0 0 0 .179-.382z" class="prefix__cls-2" data-name="Path 2390" transform="translate(-308.43 -295.966)"/>
        </g>
        <g id="prefix__Group_2546" data-name="Group 2546" transform="translate(20.544 4.288)">
            <path id="prefix__Path_2391" d="M209.2 91.988h-9.322v10.353h13.182a.466.466 0 0 0 .466-.466v-5.556a4.331 4.331 0 0 0-4.326-4.331z" class="prefix__cls-3" data-name="Path 2391" transform="translate(-199.874 -91.988)"/>
        </g>
        <g id="prefix__Group_2547" data-name="Group 2547" transform="translate(26.856 4.288)">
            <path id="prefix__Path_2392" d="M338.281 91.988h-3.01a4.331 4.331 0 0 1 4.331 4.331v5.557a.466.466 0 0 1-.466.466h3.01a.466.466 0 0 0 .466-.466v-5.557a4.331 4.331 0 0 0-4.331-4.331z" class="prefix__cls-4" data-name="Path 2392" transform="translate(-335.272 -91.988)"/>
        </g>
        <g id="prefix__Group_2548" data-name="Group 2548" transform="translate(16.074 4.288)">
            <path id="prefix__Path_2393" fill="#365e7d" d="M112.655 102.341h-8.2a.466.466 0 0 1-.466-.466v-5.556a4.331 4.331 0 1 1 8.662 0z" data-name="Path 2393" transform="translate(-103.993 -91.988)"/>
        </g>
        <g id="prefix__Group_2549" data-name="Group 2549" transform="translate(16.074 4.48)">
            <path id="prefix__Path_2394" fill="#2b4d66" d="M109.6 96.1a4.33 4.33 0 0 1 .192 1.278v.666a5.356 5.356 0 0 1-5.356 5.356h-.444v2.4a.466.466 0 0 0 .466.466h8.2v-6.022A4.333 4.333 0 0 0 109.6 96.1z" data-name="Path 2394" transform="translate(-103.993 -96.102)"/>
        </g>
        <g id="prefix__Group_2550" data-name="Group 2550" transform="translate(13.882 12.953)">
            <path id="prefix__Path_2395" d="M67.987 279.545H57.248a.28.28 0 0 1-.28-.28v-1.129a.28.28 0 0 1 .28-.28h10.739v1.688z" class="prefix__cls-3" data-name="Path 2395" transform="translate(-56.968 -277.857)"/>
        </g>
        <g id="prefix__Group_2551" data-name="Group 2551" transform="translate(13.882 12.953)">
            <path id="prefix__Path_2396" d="M66.918 277.856a.785.785 0 0 1-.785.785h-9.165v.624a.28.28 0 0 0 .28.28h10.574v-1.688h-.9z" class="prefix__cls-4" data-name="Path 2396" transform="translate(-56.968 -277.856)"/>
        </g>
        <g id="prefix__Group_2552" data-name="Group 2552" transform="translate(12.125 5.786)">
            <path id="prefix__Path_2397" fill="#f6e266" d="M26.092 129.443h-6.354a.466.466 0 0 1-.466-.466v-4.387a.466.466 0 0 1 .466-.466h6.354a.466.466 0 0 1 .466.466v4.387a.466.466 0 0 1-.466.466z" data-name="Path 2397" transform="translate(-19.272 -124.124)"/>
        </g>
        <g id="prefix__Group_2553" data-name="Group 2553" transform="translate(12.161 5.786)">
            <path id="prefix__Path_2398" fill="#f1d333" d="M26.838 124.123h-6.355a.466.466 0 0 0-.429.285l3.3 2.924a.466.466 0 0 0 .618 0l3.3-2.924a.466.466 0 0 0-.434-.285z" data-name="Path 2398" transform="translate(-20.054 -124.123)"/>
        </g>
        <path id="prefix__Path_2399" d="M33.127 5.262a.349.349 0 1 0-.487.5 3.95 3.95 0 0 1 1.207 2.856v5.557a.117.117 0 0 1-.116.116h-8.646V8.619a4.681 4.681 0 0 0-2.223-3.981h7a3.956 3.956 0 0 1 1.528.3.349.349 0 1 0 .269-.645 4.653 4.653 0 0 0-1.8-.357h-4.31v-.8h2.608a.583.583 0 0 0 .582-.582V.909a.583.583 0 0 0-.582-.582h-2.609a.349.349 0 0 0-.7.023v3.589H20.4a4.688 4.688 0 0 0-3.425 1.5h-4.384a.816.816 0 0 0-.815.815v4.386a.816.816 0 0 0 .815.815h3.134V12.6h-1.564a.63.63 0 0 0-.629.629v1.129a.63.63 0 0 0 .629.629h9.527v6.1a1.579 1.579 0 0 1-.366 1.01l-.677.811a.582.582 0 0 0 .447.956h4.472a.582.582 0 0 0 .447-.956l-.677-.811a1.579 1.579 0 0 1-.366-1.01v-.366a.349.349 0 1 0-.7 0v.366a2.279 2.279 0 0 0 .532 1.463l.517.62h-3.976l.517-.62a2.279 2.279 0 0 0 .529-1.458v-6.1h1.881v4.05a.349.349 0 1 0 .7 0v-4.05h6.762a.816.816 0 0 0 .815-.815V8.619a4.644 4.644 0 0 0-1.419-3.357zM28.04 2.438h-2.491V1.025h2.491zm-9.265 3.7l-2.93 2.6a.117.117 0 0 1-.155 0l-2.93-2.6zm-6.3 4.5V6.816l2.753 2.441a.816.816 0 0 0 1.082 0l2.753-2.441v3.824a.117.117 0 0 1-.116.116h-6.356a.117.117 0 0 1-.116-.116zm1.757 3.652v-.99h6.824a.349.349 0 0 0 0-.7h-4.632v-1.145h2.522a.816.816 0 0 0 .815-.815V6.252a.816.816 0 0 0-.815-.815h-.932a3.98 3.98 0 0 1 6.373 3.182V12.6h-1.671a.349.349 0 0 0 0 .7h1.671v.989z" data-name="Path 2399"/>
    </g>
</svg>
