<svg width="27" height="22" viewBox="0 0 27 22" fill="none" xmlns="http://www.w3.org/2000/svg">
<path d="M10.4187 4.88953L7.46436 7.84385L6.65649 7.03599L9.61082 4.08167L10.4187 4.88953Z" fill="black"/>
<path d="M26.9012 12.5013L22.6678 6.14852H17.4576V10.7847H15.57V6.14852H14.135C13.6769 2.65479 10.724 0 7.09784 0C3.14601 0 0 3.20672 0 7.09784C0 9.714 1.41846 11.988 3.54892 13.2022V18.854H6.35825C6.44656 20.6091 7.89814 22 9.67536 22C11.4526 22 12.9042 20.6036 12.9925 18.854H17.419C17.5073 20.6091 18.9589 22 20.7361 22C22.5133 22 23.9649 20.6036 24.0532 18.854H26.9122V12.5013H26.9012ZM20.725 7.29102H22.0442L25.146 11.9272H20.725V7.29102ZM1.1425 7.09232C1.1425 3.83041 3.77521 1.13698 7.09784 1.13698C10.3598 1.13698 13.0532 3.76969 13.0532 7.09232C13.0532 10.415 10.4205 13.0477 7.09784 13.0477C3.77521 13.0477 1.1425 10.3598 1.1425 7.09232ZM9.67536 20.8023C8.50527 20.8023 7.55595 19.853 7.55595 18.6829C7.55595 17.5128 8.50527 16.5635 9.67536 16.5635C10.8455 16.5635 11.7948 17.5128 11.7948 18.6829C11.7948 19.853 10.8399 20.8023 9.67536 20.8023ZM20.7306 20.8023C19.5605 20.8023 18.6111 19.853 18.6111 18.6829C18.6111 17.5128 19.5605 16.5635 20.7306 16.5635C21.9007 16.5635 22.85 17.5128 22.85 18.6829C22.85 19.853 21.9007 20.8023 20.7306 20.8023ZM25.7587 17.706H23.9042V17.7115C23.4902 16.3537 22.2263 15.3658 20.7306 15.3658C19.2348 15.3658 17.9709 16.3537 17.5569 17.7115H12.849C12.435 16.3537 11.1711 15.3658 9.67536 15.3658C8.17963 15.3658 6.9157 16.3537 6.50176 17.7115H4.69142V13.7265C5.44205 13.9915 6.24787 14.135 7.09784 14.135C10.9227 14.135 14.0908 11.149 14.1902 7.29102H14.422V11.9272H18.6001V7.29102H19.577V13.0697H25.7587V17.706Z" fill="black"/>
<path d="M7.66642 1.88757H6.52393V2.91969H7.66642V1.88757Z" fill="black"/>
<path d="M7.66642 11.2705H6.52393V12.3026H7.66642V11.2705Z" fill="black"/>
<path d="M2.91981 6.52393H1.8877V7.66642H2.91981V6.52393Z" fill="black"/>
<path d="M12.308 6.52393H11.2759V7.66642H12.308V6.52393Z" fill="black"/>
</svg>
