<svg xmlns="http://www.w3.org/2000/svg" width="24.692" height="23.869" viewBox="0 0 24.692 23.869">
    <defs>
        <style>
            .prefix__cls-3{fill:#ff9811}.prefix__cls-4{fill:#57565c}.prefix__cls-5{fill:#3d9ae2}.prefix__cls-6{fill:#ffd422}
        </style>
    </defs>
    <g id="prefix__vehicle_allotment_details" transform="translate(-2 -4)">
        <path id="prefix__Path_2412" fill="#5aaae7" d="M27.576 25.379v3.148a.826.826 0 0 1-.823.823H7.823A.826.826 0 0 1 7 28.527v-3.148a.823.823 0 0 1 .519-.761l1.325-.531A1 1 0 0 0 9 24h16.572a1 1 0 0 0 .16.086l1.325.531a.823.823 0 0 1 .519.762z" data-name="Path 2412" transform="translate(-2.942 -11.769)"/>
        <path id="prefix__Path_2413" fill="#ee8700" d="M27.046 49.823v.823H4v-.823L4.823 49h21.4z" data-name="Path 2413" transform="translate(-1.177 -26.481)"/>
        <path id="prefix__Path_2414" d="M26.869 53v3.292H3V53h23.869z" class="prefix__cls-3" data-name="Path 2414" transform="translate(-.588 -28.835)"/>
        <path id="prefix__Path_2415" d="M50.292 43v1.646a.826.826 0 0 1-.823.823h-1.646a.826.826 0 0 1-.823-.823V43z" class="prefix__cls-4" data-name="Path 2415" transform="translate(-26.481 -22.95)"/>
        <path id="prefix__Path_2416" d="M12.292 43v1.646a.826.826 0 0 1-.823.823H9.823A.826.826 0 0 1 9 44.646V43z" class="prefix__cls-4" data-name="Path 2416" transform="translate(-4.119 -22.95)"/>
        <path id="prefix__Path_2417" d="M27.223 37.412v1.646a.412.412 0 0 1-.412.412H5.412A.412.412 0 0 1 5 39.058v-1.646A.412.412 0 0 1 5.412 37h21.4a.412.412 0 0 1 .411.412z" class="prefix__cls-5" data-name="Path 2417" transform="translate(-1.765 -19.42)"/>
        <path id="prefix__Path_2418" d="M27.058 29v1.646h-1.235a.823.823 0 1 1 0-1.646z" class="prefix__cls-6" data-name="Path 2418" transform="translate(-13.535 -14.712)"/>
        <path id="prefix__Path_2419" d="M16.469 29.823v.823h-1.646a.826.826 0 0 1-.823-.823V29h1.646a.826.826 0 0 1 .823.823z" class="prefix__cls-3" data-name="Path 2419" transform="translate(-7.062 -14.712)"/>
        <path id="prefix__Path_2420" fill="#ebbf00" d="M30 29h1.646v1.646H30z" data-name="Path 2420" transform="translate(-16.477 -14.712)"/>
        <path id="prefix__Path_2421" d="M35.235 29a.823.823 0 1 1 0 1.646H34V29z" class="prefix__cls-6" data-name="Path 2421" transform="translate(-18.831 -14.712)"/>
        <path id="prefix__Path_2422" d="M46.469 29v.823a.826.826 0 0 1-.823.823H44v-.823a.826.826 0 0 1 .823-.823z" class="prefix__cls-3" data-name="Path 2422" transform="translate(-24.716 -14.712)"/>
        <path id="prefix__Path_2423" d="M52.589 20a.412.412 0 0 1 .4.51l-.206.823a.412.412 0 0 1-.4.313h-2.095a.827.827 0 0 1-.193-.185L49 20z" class="prefix__cls-5" data-name="Path 2423" transform="translate(-27.658 -9.416)"/>
        <path id="prefix__Path_2424" fill="#e6e7e8" d="M28.245 16.753l-1.095-1.461-1.975-2.634A1.646 1.646 0 0 0 23.858 12H16.45a1.646 1.646 0 0 0-1.317.658l-1.975 2.634-1.095 1.461a.827.827 0 0 1-.193.185h16.568a.827.827 0 0 1-.193-.185z" data-name="Path 2424" transform="translate(-5.808 -4.708)"/>
        <path id="prefix__Path_2425" d="M9.281 20l-1.095 1.461a.827.827 0 0 1-.193.185H5.9a.412.412 0 0 1-.4-.313l-.206-.823a.412.412 0 0 1 .4-.51z" class="prefix__cls-5" data-name="Path 2425" transform="translate(-1.931 -9.416)"/>
        <path id="prefix__Path_2426" d="M27 15h2.469v.823H27z" data-name="Path 2426" transform="translate(-14.712 -6.473)"/>
        <path id="prefix__Path_2427" d="M15.058 28h-1.646a.412.412 0 0 0-.412.412v.823a1.235 1.235 0 0 0 1.235 1.235h1.646a.412.412 0 0 0 .412-.412v-.823A1.235 1.235 0 0 0 15.058 28zm.412 1.646h-1.235a.412.412 0 0 1-.412-.412v-.412h1.235a.412.412 0 0 1 .412.412z" data-name="Path 2427" transform="translate(-6.473 -14.123)"/>
        <path id="prefix__Path_2428" d="M45.881 28h-1.646A1.235 1.235 0 0 0 43 29.235v.823a.412.412 0 0 0 .412.412h1.646a1.235 1.235 0 0 0 1.235-1.235v-.823a.412.412 0 0 0-.412-.412zm-.412 1.235a.412.412 0 0 1-.412.412h-1.234v-.412a.412.412 0 0 1 .412-.412h1.235z" data-name="Path 2428" transform="translate(-24.127 -14.123)"/>
        <path id="prefix__Path_2429" d="M29.35 28h-4.115a1.235 1.235 0 0 0 0 2.469h4.115a1.235 1.235 0 0 0 0-2.469zm-1.646.823v.823h-.823v-.823zm-2.881.412a.412.412 0 0 1 .412-.412h.823v.823h-.823a.412.412 0 0 1-.412-.411zm4.527.412h-.823v-.823h.823a.412.412 0 1 1 0 .823z" data-name="Path 2429" transform="translate(-12.946 -14.123)"/>
        <path id="prefix__Path_2430" d="M26.28 27.873v-.412a.411.411 0 0 0-.121-.291l-.823-.823a.412.412 0 0 0-.291-.121h-.9a1.221 1.221 0 0 0 .076-.412V24.58h.823a.823.823 0 0 0 .823-.823v-1.646a.823.823 0 0 0-.823-.823h-.074a1.221 1.221 0 0 0 .076-.412V17.73a1.227 1.227 0 0 0-.47-.969h.149a.819.819 0 0 0 .8-.624l.206-.823a.823.823 0 0 0-.8-1.022h-3.383L19.7 11.823A2.068 2.068 0 0 0 18.05 11h-7.408A2.068 2.068 0 0 0 9 11.823l-1.856 2.469H3.761a.823.823 0 0 0-.8 1.022l.206.823a.82.82 0 0 0 .8.624h.149a1.227 1.227 0 0 0-.47.969v3.147a1.221 1.221 0 0 0 .076.412h-.076a.823.823 0 0 0-.823.823v1.646a.823.823 0 0 0 .823.823h.823v1.235a1.221 1.221 0 0 0 .076.412h-.9a.411.411 0 0 0-.291.121l-.823.823a.412.412 0 0 0-.121.291v.412a.412.412 0 0 0-.41.409v3.292a.412.412 0 0 0 .412.412H26.28a.412.412 0 0 0 .412-.412v-3.292a.412.412 0 0 0-.412-.411zm-2.88-2.058a.412.412 0 0 1-.412.412h-1.646a.412.412 0 0 1-.412-.412V24.58h2.47zM8.584 24.58h11.523v1.235a1.221 1.221 0 0 0 .076.412H8.509a1.221 1.221 0 0 0 .076-.412zm16.346-9.465l-.206.823h-1.937c-.006-.007-.014-.012-.02-.02l-.6-.8zm-15.276-2.8a1.242 1.242 0 0 1 .988-.494h7.408a1.242 1.242 0 0 1 .988.494l2.716 3.621H13.07a2.058 2.058 0 0 0-4.033 0h-2.1zm2.558 3.621H9.895a1.227 1.227 0 0 1 2.318 0zm-8.246 0l-.206-.823h2.767l-.6.8c-.006.008-.014.013-.02.021zm.5 4.938v-.412H5.7v-.823H4.469v-.823H5.7V18H4.469v-.27a.411.411 0 0 1 .258-.382l1.326-.53c.035-.014.065-.039.1-.056h16.386c.034.017.064.041.1.056l1.326.53a.412.412 0 0 1 .259.382V18h-1.236v.823h1.235v.823h-1.235v.823h1.235v.412a.412.412 0 0 1-.412.412H4.881a.412.412 0 0 1-.412-.412zm-.823 1.235h21.4v1.646H3.646zm1.646 3.7V24.58h2.472v1.235a.412.412 0 0 1-.412.412H5.7a.412.412 0 0 1-.408-.412zm-2.054 1.823l.582-.582h21.058l.582.582v.241H3.235zm22.634 3.533H2.823V28.7h23.046z" data-name="Path 2430" transform="translate(0 -4.119)"/>
        <path id="prefix__Path_2431" d="M7.823 6.469h.823v-.823h.823v-.823h-.823V4h-.823v.823H7v.823h.823z" data-name="Path 2431" transform="translate(-2.942)"/>
        <path id="prefix__Path_2432" d="M50.823 10.469h.823v-.823h.823v-.823h-.823V8h-.823v.823H50v.823h.823z" data-name="Path 2432" transform="translate(-28.247 -2.354)"/>
    </g>
</svg>
