<svg xmlns="http://www.w3.org/2000/svg" width="12" height="14" viewBox="0 0 12 14">
    <path d="M8.426 9.364h-1.6a.163.163 0 0 1-.149-.12.215.215 0 0 1 .04-.208L9.223 6.26a.145.145 0 0 1 .109-.051.145.145 0 0 1 .109.051l2.505 2.773a.215.215 0 0 1 .04.208.163.163 0 0 1-.149.12h-1.6c0 2.291-1.376 4.639-5.648 4.639 2.811-.733 3.837-2.459 3.837-4.636zm-5.4-.208L.064 5.874a.255.255 0 0 1-.047-.246.193.193 0 0 1 .176-.142h1.886c0-2.709 1.627-5.485 6.678-5.485-3.314.87-4.525 2.911-4.525 5.485h1.887a.192.192 0 0 1 .176.142.254.254 0 0 1-.047.246L3.285 9.156a.174.174 0 0 1-.129.06.174.174 0 0 1-.128-.06z" data-name="Vechile Exchange"/>
</svg>
