<svg xmlns="http://www.w3.org/2000/svg" width="15.129" height="11.767" viewBox="0 0 15.129 11.767">
    <path d="M12.8 11.767a1 1 0 0 1-1-1v-.436c-1.333.063-2.912.1-4.238.1s-2.906-.04-4.239-.1v.436a1 1 0 0 1-1 1H1a1 1 0 0 1-1-1V9.436a.331.331 0 0 1 .124-.259 9.855 9.855 0 0 1-.107-1.1l.274.03c.038 0 3.938.334 7.274.334s7.235-.331 7.29-.336l.257-.036a9.8 9.8 0 0 1-.107 1.11.331.331 0 0 1 .125.259v1.331a1 1 0 0 1-1 1zM4.416 7.424a2.061 2.061 0 0 0-.341-1.309.789.789 0 0 0-.607-.277c-.694 0-2.749-.322-2.759-.322l-.622-.165c.075-.486.211-.753.457-.83.141-.043.215-.152.355-.373l.108-.167a.677.677 0 0 1 .484-.268.307.307 0 0 1 .012-.155c.007-.02.027-.066.058-.132a.333.333 0 0 1 .1-.65h.227A9.554 9.554 0 0 1 3.445.381a22.463 22.463 0 0 1 8.236 0 9.57 9.57 0 0 1 1.557 2.395h.227a.333.333 0 0 1 .1.65c.031.066.052.112.058.132a.308.308 0 0 1 .012.154.679.679 0 0 1 .484.269l.108.167c.139.22.213.329.355.373.242.075.377.331.453.8l-.9.191c-.6.092-2.245.329-2.652.329a.59.59 0 0 0-.447.208 2.286 2.286 0 0 0-.321 1.378c-1.014.045-2.11.077-3.15.077s-2.134-.036-3.147-.081zm.627-.921a.324.324 0 0 0 .315.333h4.409a.333.333 0 0 0 0-.665H5.36a.323.323 0 0 0-.315.329zM2.225 3.662l.038-.007a.315.315 0 0 1 .109-.1 1.615 1.615 0 0 1 .243-.11h-.284c-.042.083-.078.155-.104.216zm10.529-.111a.311.311 0 0 1 .108.1l.039.007c-.026-.058-.062-.133-.105-.22h-.284a1.617 1.617 0 0 1 .243.113zm-.92-.3a.332.332 0 0 1 .3-.474h.309A11.642 11.642 0 0 0 11.291.939 24 24 0 0 0 7.562.666a22.3 22.3 0 0 0-3.755.289A12.321 12.321 0 0 0 2.68 2.777h.311a.332.332 0 0 1 .3.474 22.667 22.667 0 0 1 8.541 0zm-11.468 4L0 7.213c0-.427.006-.8.023-1.112l.593.148c.092.013 2.258.336 3.043.336a.186.186 0 0 1 .151.062 1.4 1.4 0 0 1 .183.829C1.966 7.384.387 7.258.367 7.255zm10.917-.667c.566 0 2.8-.322 2.912-.339l.907-.182c.018.321.024.7.025 1.139l-.358.049c-.026 0-1.6.129-3.632.224a1.8 1.8 0 0 1 .147-.887z"/>
</svg>
