<svg xmlns="http://www.w3.org/2000/svg" width="27.578" height="13.658" viewBox="0 0 27.578 13.658">
    <path d="M26.2 5.905a4.68 4.68 0 0 0-3.331-1.38H21.6a9.081 9.081 0 0 0-3.851-3.174A15.109 15.109 0 0 0 11.349 0a15.111 15.111 0 0 0-6.4 1.351A9.082 9.082 0 0 0 1.1 4.526H0v6.813h3.376a3.126 3.126 0 0 0 6.04 0h8.779a3.127 3.127 0 0 0 6.041 0h3.342v-2.1a4.68 4.68 0 0 0-1.38-3.331zM12.136 1.213a14.741 14.741 0 0 1 5.213 1.119 12.8 12.8 0 0 1 2.916 2.37h-8.131zM5.367 2.332a14.7 14.7 0 0 1 5.153-1.251v3.62H2.182a14.527 14.527 0 0 1 3.184-2.369zm1.033 9.71a1.51 1.51 0 1 1 1.51-1.51 1.512 1.512 0 0 1-1.51 1.51zm14.819 0a1.51 1.51 0 1 1 1.51-1.51 1.512 1.512 0 0 1-1.514 1.51zM26.2 10.1h-1.789a3.708 3.708 0 0 0-3.2-2.7A3.149 3.149 0 0 0 18 10.1H9.416a3.125 3.125 0 0 0-3.02-2.7 2.993 2.993 0 0 0-3.02 2.7H1.1V5.711h21.993a3.563 3.563 0 0 1 2.306 1.1 3.035 3.035 0 0 1 .8 2.212z" data-name="car (6)"/>
</svg>
