<svg xmlns="http://www.w3.org/2000/svg" width="12" height="12" viewBox="0 0 12 12">
    <path id="prefix__year" fill="#aaa3a3" d="M10.594.938h-.562V0h-.938v.938H2.906V0h-.937v.938h-.563A1.408 1.408 0 0 0 0 2.344v8.25A1.408 1.408 0 0 0 1.406 12h9.188A1.408 1.408 0 0 0 12 10.594v-8.25A1.408 1.408 0 0 0 10.594.938zm-9.187.938h.563v.938h.938v-.939h6.186v.938h.938v-.938h.563a.469.469 0 0 1 .469.469v1.125H.938V2.344a.469.469 0 0 1 .468-.469zm9.188 9.188H1.406a.469.469 0 0 1-.469-.469V4.406h10.126v6.188a.469.469 0 0 1-.469.469zm-.375-.984z"/>
</svg>
