<svg xmlns="http://www.w3.org/2000/svg" width="30.599" height="20.216" viewBox="0 0 30.599 20.216">
    <g>
        <path d="M30.078 118.965a.328.328 0 0 1-.525 0l-2.153-2.87-2.409.007-2.091 6.112h9.017l-.022-5.672z" data-name="Path 2400" transform="translate(-22.9 -101.999)"/>
        <path d="M38.414 107.519a1.945 1.945 0 1 0-1.951-1.944 1.944 1.944 0 0 0 1.951 1.944z" data-name="Path 2401" transform="translate(-22.9 -101.999)"/>
        <path d="M38.496 111.564l2.789-3.717a3.662 3.662 0 0 0 .754-2.439 3.72 3.72 0 0 0-1.075-2.387 3.489 3.489 0 0 0-4.936 0 3.654 3.654 0 0 0-.319 4.829zm-.082-8.591a2.6 2.6 0 1 1-2.608 2.6 2.6 2.6 0 0 1 2.613-2.6z" data-name="Path 2402" transform="translate(-22.9 -101.999)"/>
        <path d="M50.936 114.022l-.513-1.639-.253.337a.328.328 0 0 1-.525 0l-1.8-2.4c-.027-.037-.053-.074-.078-.112l-3.546.065.458 3.746z" data-name="Path 2403" transform="translate(-22.9 -101.999)"/>
        <path d="M29.723 112.901a1.124 1.124 0 1 0 1.128 1.124 1.124 1.124 0 0 0-1.128-1.124z" data-name="Path 2404" transform="translate(-22.9 -101.999)"/>
        <path d="M49.833 109.502a.86.86 0 1 0-.863-.86.86.86 0 0 0 .863.86z" data-name="Path 2405" transform="translate(-22.9 -101.999)"/>
        <path d="M49.908 111.976l1.535-2.046a2.022 2.022 0 0 0 .417-1.346 1.953 1.953 0 0 0-3.9 0 2.074 2.074 0 0 0 .42 1.35zm-.075-4.85a1.516 1.516 0 1 1-1.52 1.516 1.516 1.516 0 0 1 1.52-1.516z" data-name="Path 2406" transform="translate(-22.9 -101.999)"/>
        <path d="M38.879 117.09a2.61 2.61 0 0 1 5.214 0 2.566 2.566 0 0 1-.1.891l8.176-.014-1.029-3.29h-6.749a.328.328 0 0 1-.326-.288l-.5-4.1-3.337.061-1.47 1.955a.328.328 0 0 1-.525 0l-1.616-2.154-9.614.063-1.789 5.228 1.787-.005a3.117 3.117 0 1 1 5.546.169l.025 6.605h5.281v-3.913a.328.328 0 0 1 .1-.234.321.321 0 0 1 .235-.094l.8.012a2.552 2.552 0 0 1-.109-.892z" data-name="Path 2407" transform="translate(-22.9 -101.999)"/>
        <path d="M41.487 115.252a1.991 1.991 0 0 0-1.952 1.881 2.075 2.075 0 0 0 .42 1.35l1.532 2.042 1.535-2.046a2.022 2.022 0 0 0 .417-1.346 1.991 1.991 0 0 0-1.952-1.881zm-.075 3.456a1.516 1.516 0 1 1 1.52-1.516 1.516 1.516 0 0 1-1.52 1.516z" data-name="Path 2408" transform="translate(-22.9 -101.999)"/>
        <path d="M52.376 118.624l-8.67.015c-.049.081-.1.16-.159.236l-1.8 2.4a.328.328 0 0 1-.525 0l-1.8-2.4c-.055-.075-.105-.151-.152-.229l-.767-.011v3.581H53.5z" data-name="Path 2409" transform="translate(-22.9 -101.999)"/>
        <path d="M41.412 116.332a.86.86 0 1 0 .863.86.86.86 0 0 0-.863-.86z" data-name="Path 2410" transform="translate(-22.9 -101.999)"/>
        <path d="M29.816 111.581a2.507 2.507 0 0 0-2.459 2.367 2.609 2.609 0 0 0 .527 1.7l1.932 2.575 1.934-2.578a2.544 2.544 0 0 0 .525-1.694 2.507 2.507 0 0 0-2.459-2.37zm-.091 4.224a1.78 1.78 0 1 1 1.784-1.78 1.78 1.78 0 0 1-1.783 1.78z" data-name="Path 2411" transform="translate(-22.9 -101.999)"/>
    </g>
</svg>
