<svg xmlns="http://www.w3.org/2000/svg" width="25.101" height="29.62" viewBox="0 0 25.101 29.62">
    <defs>
        <style>
            .prefix__cls-1{fill:#eee}.prefix__cls-2{fill:#18a835}.prefix__cls-3{fill:#94c1ff}
        </style>
    </defs>
    <g id="prefix__new_enquires" transform="translate(-.386)">
        <path id="prefix__Path_149" d="M121.057 7.53h-7.531a.5.5 0 0 1-.5-.5V4.267a4.267 4.267 0 0 1 8.535 0v2.761a.5.5 0 0 1-.5.5zm-7.029-1h6.526V4.267a3.263 3.263 0 1 0-6.526 0zm0 0" data-name="Path 149" transform="translate(-104.355)"/>
        <path id="prefix__Path_150" d="M42.956 98.084H20.867l1.506-2.51H41.45zm0 0" class="prefix__cls-1" data-name="Path 150" transform="translate(-18.975 -88.546)"/>
        <path id="prefix__Path_151" d="M36.517 92.16H14.428a.511.511 0 0 1-.438-.774l1.506-2.51a.51.51 0 0 1 .438-.248h19.077a.51.51 0 0 1 .438.248l1.506 2.51a.511.511 0 0 1-.438.774zM15.33 91.139h20.285l-.893-1.489h-18.5zm0 0" data-name="Path 151" transform="translate(-12.536 -82.111)"/>
        <path id="prefix__Path_152" d="M172.605 45.063l6.844 1.6L177.734 54l-6.844-1.6zm0 0" class="prefix__cls-2" data-name="Path 152" transform="translate(-157.966 -41.749)"/>
        <path id="prefix__Path_153" d="M171.407 48.185a.5.5 0 0 1-.114-.013l-6.844-1.6a.5.5 0 0 1-.375-.6l1.715-7.333a.5.5 0 0 1 .6-.375l6.844 1.6a.5.5 0 0 1 .375.6L171.9 47.8a.5.5 0 0 1-.489.388zm-6.24-2.477l5.866 1.372 1.486-6.355-5.866-1.372zm0 0" data-name="Path 153" transform="translate(-151.638 -35.436)"/>
        <path id="prefix__Path_154" d="M47.492 28.563l8.4-.993 1.063 9-8.4.993zm0 0" class="prefix__cls-2" data-name="Path 154" transform="translate(-43.642 -25.543)"/>
        <path id="prefix__Path_155" d="M42.221 31.742a.5.5 0 0 1-.5-.443l-1.063-9a.5.5 0 0 1 .44-.558l8.4-.992a.5.5 0 0 1 .557.44l1.063 9a.5.5 0 0 1-.44.558l-8.4.992a.51.51 0 0 1-.057.003zm-.505-9.059l.945 8 7.4-.874-.945-8zm0 0" data-name="Path 155" transform="translate(-37.309 -19.224)"/>
        <path id="prefix__Path_156" d="M98.492 74.308l8.088-1.945 2.047 8.512-8.088 1.945zm0 0" class="prefix__cls-2" data-name="Path 156" transform="translate(-90.892 -67.042)"/>
        <path id="prefix__Path_157" d="M94.1 76.9a.51.51 0 0 1-.5-.391l-2.047-8.512a.511.511 0 0 1 .377-.616l8.088-1.944a.51.51 0 0 1 .616.377l2.047 8.512a.511.511 0 0 1-.377.616l-8.088 1.945a.485.485 0 0 1-.12.014zm-1.43-8.646l1.807 7.518 7.094-1.706-1.808-7.518zm0 0" data-name="Path 157" transform="translate(-84.451 -60.608)"/>
        <path id="prefix__Path_158" d="M31.309 149.286H7.211l1-19.579H30.3zm0 0" class="prefix__cls-1" data-name="Path 158" transform="translate(-6.323 -120.169)"/>
        <path id="prefix__Path_159" d="M24.985 143.462H.888a.5.5 0 0 1-.5-.527l1-19.579a.5.5 0 0 1 .5-.477h22.093a.5.5 0 0 1 .5.477l1 19.579a.5.5 0 0 1-.5.527zm-23.569-1h23.041l-.957-18.579H2.369zm0 0" data-name="Path 159" transform="translate(0 -113.843)"/>
        <path id="prefix__Path_160" d="M210.606 158.016a1 1 0 1 1-1-1 1 1 0 0 1 1 1zm0 0" class="prefix__cls-3" data-name="Path 160" transform="translate(-192.9 -145.466)"/>
        <path id="prefix__Path_161" d="M203.28 153.2a1.506 1.506 0 1 1 1.506-1.506 1.508 1.508 0 0 1-1.506 1.506zm0-2.008a.5.5 0 1 0 .5.5.5.5 0 0 0-.5-.501zm0 0" data-name="Path 161" transform="translate(-186.578 -139.143)"/>
        <path id="prefix__Path_162" d="M108.207 158.016a1 1 0 1 1-1-1 1 1 0 0 1 1 1zm0 0" class="prefix__cls-3" data-name="Path 162" transform="translate(-98.032 -145.466)"/>
        <g id="prefix__Group_215" data-name="Group 215" transform="translate(.386 11.044)">
            <path id="prefix__Path_163" d="M100.878 153.2a1.506 1.506 0 1 1 1.506-1.506 1.508 1.508 0 0 1-1.506 1.506zm0-2.008a.5.5 0 1 0 .5.5.5.5 0 0 0-.5-.501zm0 0" data-name="Path 163" transform="translate(-92.092 -150.187)"/>
            <path id="prefix__Path_164" d="M117.291 178.2a4.272 4.272 0 0 1-4.267-4.267v-2.761a.5.5 0 0 1 1 0v2.761a3.263 3.263 0 1 0 6.526 0V171.3a.464.464 0 0 1-.019-.133.486.486 0 0 1 .483-.5h.039a.5.5 0 0 1 .5.5v2.761a4.272 4.272 0 0 1-4.267 4.267zm0 0" data-name="Path 164" transform="translate(-104.74 -169.161)"/>
            <path id="prefix__Path_165" d="M7.211 376.971h24.1l-.077-1.506H7.288zm0 0" data-name="Path 165" transform="translate(-6.709 -358.898)"/>
            <path id="prefix__Path_166" d="M24.985 371.15H.888a.5.5 0 0 1-.5-.527l.077-1.506a.5.5 0 0 1 .5-.477h23.943a.5.5 0 0 1 .5.477l.077 1.506a.5.5 0 0 1-.5.527zm-23.569-1h23.041l-.026-.5H1.442zm0 0" data-name="Path 166" transform="translate(-.386 -352.575)"/>
        </g>
    </g>
</svg>
