<svg xmlns="http://www.w3.org/2000/svg" width="17.727" height="18.03" viewBox="0 0 17.727 18.03">
    <path d="M14.772 3.184V1.5A1.492 1.492 0 0 0 13.295 0H1.477A1.492 1.492 0 0 0 0 1.5v6.614A1.49 1.49 0 0 0 1.325 9.6l1.111 2.932a1.47 1.47 0 0 0 1.91.862l6.935-2.717a4.409 4.409 0 0 0 .368 3.857l.17.276v2.92a.3.3 0 0 0 .3.3h5.318a.3.3 0 0 0 .3-.3V7.811a3.967 3.967 0 0 0-1.132-2.77zm0 1.8l.9 2.368a.906.906 0 0 1-.509 1.165l-.513.2a1.525 1.525 0 0 0 .125-.6zM.591 8.114V1.5a.894.894 0 0 1 .886-.9h11.818a.894.894 0 0 1 .886.9v6.614a.929.929 0 0 1-.02.156l-2.706-2.754a1.557 1.557 0 0 0-2.192-.011 1.623 1.623 0 0 0-.083 2.228l1.154 1.282H1.477a.894.894 0 0 1-.886-.901zm3.785 1.5l-2.1.823-.311-.823zm-.243 3.218a.882.882 0 0 1-1.146-.517L2.488 11l3.527-1.384h4.86l.384.426zm13 4.6h-4.724v-2.4h4.727zm0-3.005h-4.856l-.128-.208a3.8 3.8 0 0 1-.075-3.849.3.3 0 0 0-.039-.352L9.614 7.329a1.014 1.014 0 0 1 .046-1.4.974.974 0 0 1 1.377.014l4.708 4.788.418-.425-1.093-1.113.3-.12a1.511 1.511 0 0 0 .847-1.941l-1-2.641.957.976a3.357 3.357 0 0 1 .959 2.344zm0 0" data-name="Path 1649"/>
    <path d="M3.725 4.575a.85.85 0 0 0 .85-.85V2.157a.85.85 0 0 0-.85-.85H2.157a.85.85 0 0 0-.85.85v1.568a.85.85 0 0 0 .85.85zm-1.764-.85v-.457h.654v-.654h-.654v-.457a.2.2 0 0 1 .2-.2h1.568a.2.2 0 0 1 .2.2v.457h-.654v.654h.654v.457a.2.2 0 0 1-.2.2H2.157a.2.2 0 0 1-.196-.2zm0 0" data-name="Path 1650"/>
    <path d="M1.634 5.093h1.307v.654H1.634zm0 0" data-name="Path 1651"/>
    <path d="M1.634 6.891h1.307v.654H1.634zm0 0" data-name="Path 1652"/>
    <path d="M6.744 6.891h1.307v.654H6.744zm0 0" data-name="Path 1653"/>
    <path d="M3.225 5.093h1.307v.654H3.225zm0 0" data-name="Path 1654"/>
    <path d="M4.984 5.093h1.307v.654H4.984zm0 0" data-name="Path 1655"/>
    <path d="M6.744 5.093h1.307v.654H6.744zm0 0" data-name="Path 1656"/>
    <path d="M12.363 1.634h.654v.98h-.654zm0 0" data-name="Path 1657"/>
    <path d="M11.186 1.634h.654v.98h-.654zm0 0" data-name="Path 1658"/>
    <path d="M10.008 1.634h.654v.98h-.654zm0 0" data-name="Path 1659"/>
    <path d="M8.831 1.634h.654v.98h-.654zm0 0" data-name="Path 1660"/>
    <path d="M12.952 15.417h.654v.654h-.654zm0 0" data-name="Path 1661"/>
</svg>
