<svg xmlns="http://www.w3.org/2000/svg" xmlns:xlink="http://www.w3.org/1999/xlink" id="prefix__PDF" width="21.861" height="27.982" viewBox="0 0 21.861 27.982">
    <defs>
        <linearGradient id="prefix__linear-gradient" x1=".5" x2=".5" y1="-.5" y2="-.46" gradientUnits="objectBoundingBox">
            <stop offset="0" stop-color="#f3f7ff"/>
            <stop offset=".99" stop-color="#b5d1ff"/>
        </linearGradient>
        <linearGradient id="prefix__linear-gradient-2" x1=".5" x2=".5" y1="-.17" y2="20.658" gradientUnits="objectBoundingBox">
            <stop offset="0" stop-color="#ff5252"/>
            <stop offset="1" stop-color="#d50000"/>
        </linearGradient>
        <linearGradient id="prefix__linear-gradient-3" y1="-.085" y2="2.406" xlink:href="#prefix__linear-gradient"/>
        <linearGradient id="prefix__linear-gradient-4" y1="-2.145" y2="-.366" xlink:href="#prefix__linear-gradient"/>
        <linearGradient id="prefix__linear-gradient-5" y1="-.123" y2="2.825" xlink:href="#prefix__linear-gradient-2"/>
        <linearGradient id="prefix__linear-gradient-6" y1="-4.203" y2="3.531" xlink:href="#prefix__linear-gradient-2"/>
        <style>
            .prefix__cls-7{fill:#fff}
        </style>
    </defs>
    <path id="prefix__Path_1405" d="M31.238 27.983h-18.8a.437.437 0 0 1-.438-.438V.437A.437.437 0 0 1 12.437 0h14.281a.437.437 0 0 1 .309.128l4.52 4.52a.437.437 0 0 1 .128.309v22.588a.437.437 0 0 1-.437.438z" data-name="Path 1405" transform="translate(-9.814)"/>
    <path id="prefix__Path_1406" d="M7 31.952l1.749-.773 1.221 1.874H7z" data-name="Path 1406" transform="translate(-7 -17.547)"/>
    <path id="prefix__Path_1407" d="M30.238 27.983h-18.8a.437.437 0 0 1-.438-.438V.437A.437.437 0 0 1 11.437 0H25.9l4.776 4.776v22.769a.437.437 0 0 1-.438.438z" data-name="Path 1407" transform="translate(-9.251)"/>
    <path id="prefix__Path_1408" d="M45.076 0v4.339a.437.437 0 0 0 .437.437h4.339L47.71 2.2z" data-name="Path 1408" transform="translate(-28.428)"/>
    <path id="prefix__Path_1409" d="M24.062 42.491H7.774A.773.773 0 0 1 7 41.717v-7h17.062a.774.774 0 0 1 .774.774v6.229a.774.774 0 0 1-.774.771z" data-name="Path 1409" transform="translate(-7 -23.908)"/>
    <path id="prefix__Path_1410" d="M8.749 31.179h-.976a.773.773 0 1 0 0 1.546h.976z" data-name="Path 1410" transform="translate(-7 -21.919)"/>
    <g id="prefix__Group_721" data-name="Group 721" transform="translate(3.498 12.801)">
        <path id="prefix__Path_1411" d="M15 42.677v-3a.38.38 0 0 1 .38-.38 12.293 12.293 0 0 1 1.739.056 1.056 1.056 0 0 1 .759 1.1 1.085 1.085 0 0 1-.838 1.13 7.977 7.977 0 0 1-1.159.054.122.122 0 0 0-.122.122v.916a.379.379 0 1 1-.758 0zm.758-2.619v.822a.122.122 0 0 0 .122.12 3.325 3.325 0 0 0 .892-.059.512.512 0 0 0-.1-.981 7.415 7.415 0 0 0-.79-.026.122.122 0 0 0-.122.122z" class="prefix__cls-7" data-name="Path 1411" transform="translate(-15 -39.285)"/>
        <path id="prefix__Path_1412" d="M23 39.672a.38.38 0 0 1 .38-.38 8.518 8.518 0 0 1 1.721.072 1.417 1.417 0 0 1 .925.954 2.777 2.777 0 0 1 .123.888 2.464 2.464 0 0 1-.115.8 1.369 1.369 0 0 1-.935.962 9.131 9.131 0 0 1-1.718.08.38.38 0 0 1-.38-.378zm.758.378v2.243a.122.122 0 0 0 .122.122 4.774 4.774 0 0 0 .9-.036.648.648 0 0 0 .5-.519 2.452 2.452 0 0 0 .077-.688 2.244 2.244 0 0 0-.077-.669.728.728 0 0 0-.568-.541 6.288 6.288 0 0 0-.841-.036.122.122 0 0 0-.12.122z" class="prefix__cls-7" data-name="Path 1412" transform="translate(-19.502 -39.277)"/>
        <path id="prefix__Path_1413" d="M31.682 42.689v-3a.38.38 0 0 1 .38-.38h1.877a.318.318 0 1 1 0 .635h-1.375a.122.122 0 0 0-.122.122v.644a.122.122 0 0 0 .122.122h1.128a.318.318 0 1 1 0 .635h-1.128a.122.122 0 0 0-.122.122v1.093a.38.38 0 0 1-.76 0z" class="prefix__cls-7" data-name="Path 1413" transform="translate(-24.388 -39.297)"/>
    </g>
</svg>
