<svg xmlns="http://www.w3.org/2000/svg" width="20.593" height="20.546" viewBox="0 0 20.593 20.546">
    <defs>
        <style>
            .prefix__cls-1{stroke:#000;stroke-width:.5px}
        </style>
    </defs>
    <g id="prefix__support_1_" data-name="support (1)" transform="translate(-.229 .25)">
        <g id="prefix__Group_1519" data-name="Group 1519" transform="translate(.572 3.233)">
            <g id="prefix__Group_1518" data-name="Group 1518">
                <path id="prefix__Path_1769" d="M16.825 94.226l-.748-2.246a2.263 2.263 0 0 0-1.742-1.511l-2.161-.393v-.167a3.254 3.254 0 0 0 .964-.856h.653a.971.971 0 0 0 .97-.97V84.2a4.2 4.2 0 0 0-8.406 0v2.263a1.3 1.3 0 0 0 1.031 1.266 3.239 3.239 0 0 0 1.554 2.18v.167l-2.161.393a2.263 2.263 0 0 0-1.742 1.511l-.129.388-1.1-1.1a.324.324 0 0 1 0-.458l1.277-1.277-2.4-2.4-1.442 1.446a2.263 2.263 0 0 0 0 3.2l4.37 4.37a2.262 2.262 0 0 0 3.191.01l1.575-1.443-.491-.49zm-2.712-6.143a.324.324 0 0 1-.323.323h-.272a3.212 3.212 0 0 0 .211-.673 1.281 1.281 0 0 0 .384-.153zm-.323-1.06V85.91a.641.641 0 0 1 0 1.114zm-6.466 0a.641.641 0 0 1 0-1.114zm0-2.173v.369a1.282 1.282 0 0 0-.324.134V84.2a3.557 3.557 0 1 1 7.113 0v1.15a1.271 1.271 0 0 0-.323-.134v-.366h-.323a3.557 3.557 0 0 1-2.532-1.05l-.379-.379-.379.379a3.557 3.557 0 0 1-2.53 1.05zm.647 2.263v-1.629a4.192 4.192 0 0 0 2.587-1.149 4.19 4.19 0 0 0 2.587 1.149v1.629a2.567 2.567 0 0 1-.35 1.293h-2.239v.647h1.705a2.582 2.582 0 0 1-4.292-1.94zm3.555 3.087v.015l-.97.97-.97-.97V90.2a3.231 3.231 0 0 0 1.94 0zM5.65 92.185a1.617 1.617 0 0 1 1.244-1.08l2.26-.411 1.4 1.4 1.4-1.4 2.26.411a1.617 1.617 0 0 1 1.244 1.08l.465 1.394H9.24L7.981 92.32l-1.4 1.266a.33.33 0 0 1-.457 0l-.706-.706zM2.686 88.05l1.483 1.483-.351.351L2.335 88.4zm5.669 7.643a1.617 1.617 0 0 1-2.286 0L1.7 91.323a1.617 1.617 0 0 1 0-2.286l.178-.178 1.482 1.483-.012.012a.972.972 0 0 0 0 1.372l2.319 2.319a.965.965 0 0 0 .686.284.952.952 0 0 0 .674-.273l.024-.022 1.49 1.49zm.663-.608L7.532 93.6l.427-.386L9.443 94.7z" class="prefix__cls-1" data-name="Path 1769" transform="translate(-.58 -80)"/>
            </g>
        </g>
        <g id="prefix__Group_1521" data-name="Group 1521" transform="translate(14.105)">
            <g id="prefix__Group_1520" data-name="Group 1520">
                <path id="prefix__Path_1770" d="M340.924 0H336.4a.971.971 0 0 0-.97.97v2.587a.971.971 0 0 0 .97.97h.864l-.334 1.95 3.12-1.95h.877a.971.971 0 0 0 .97-.97V.97a.971.971 0 0 0-.973-.97zm.323 3.557a.324.324 0 0 1-.323.323h-1.063l-2.053 1.283.22-1.283H336.4a.324.324 0 0 1-.323-.323V.97a.324.324 0 0 1 .323-.323h4.526a.324.324 0 0 1 .323.323z" class="prefix__cls-1" data-name="Path 1770" transform="translate(-335.428)"/>
            </g>
        </g>
        <g id="prefix__Group_1529" data-name="Group 1529" transform="translate(.572 .97)">
            <g id="prefix__Group_1528" data-name="Group 1528">
                <path id="prefix__Path_1771" d="M10.549 24a9.047 9.047 0 0 0-8.81 7l-.613-1.021-.554.333L1.708 32.2 3.6 31.067l-.333-.554-.876.526a8.409 8.409 0 0 1 10.649-6.017l.191-.618A9.047 9.047 0 0 0 10.549 24z" class="prefix__cls-1" data-name="Path 1771" transform="translate(-.572 -24)"/>
            </g>
        </g>
        <g id="prefix__Group_1531" data-name="Group 1531" transform="translate(17.08 6.023)">
            <g id="prefix__Group_1530" data-name="Group 1530">
                <path id="prefix__Path_1772" d="M412.37 150.152l-1.894-1.136-1.136 1.894.555.333.566-.943a8.413 8.413 0 0 1-1.425 8.01l.5.407a9.054 9.054 0 0 0 1.549-8.58l.95.57z" class="prefix__cls-1" data-name="Path 1772" transform="translate(-409.036 -149.016)"/>
            </g>
        </g>
    </g>
</svg>
