<svg xmlns="http://www.w3.org/2000/svg" width="30.471" height="24" viewBox="0 0 30.471 24">
    <defs>
        <style>
            .prefix__cls-1{fill:#eb9c8d}.prefix__cls-3{fill:#d78878}
        </style>
    </defs>
    <g id="prefix__finance_do_letter" transform="translate(0 -54.217)">
        <g id="prefix__Group_2557" data-name="Group 2557" transform="translate(.448 54.665)">
            <path id="prefix__Path_2433" d="M171.971 109.078h-2.526v4.967l.333-.186 3.6-1.571 1.266-2.028-2.371-1.1a.63.63 0 0 0-.302-.082z" class="prefix__cls-1" data-name="Path 2433" transform="translate(-159.781 -106.252)"/>
            <g id="prefix__Group_2556" data-name="Group 2556">
                <path id="prefix__Path_2434" fill="#fae2c0" d="M9.1 390.157l-.878.285a.594.594 0 0 0-.106.23l-.606 2.778a.174.174 0 0 0 .248.193l2.573-1.29.173-.791z" data-name="Path 2434" transform="translate(-7.506 -370.558)"/>
                <path id="prefix__Path_2435" d="M169.778 113.858l3.6-1.571 1.219-1.952-.352-.262-1.971-.917a.63.63 0 0 0-.306-.079h-.068l-1.8 2.387a3.2 3.2 0 0 0-.647 1.928v.651l.333-.186z" class="prefix__cls-3" data-name="Path 2435" transform="translate(-159.78 -106.251)"/>
                <path id="prefix__Path_2436" fill="#e5e1e5" d="M221.32 94.309l-.809.216-1.4 1.847-.1 1 1.2 1.2 1.216-.476 1.4-1.848.074-.706z" data-name="Path 2436" transform="translate(-206.397 -92.364)"/>
                <path id="prefix__Path_2437" fill="#fee97d" d="M33.824 130.607l-8.853 11.711-3.158 4.182a.589.589 0 0 1-.206.171l-2.11-1.911 2.337-3.091 9.666-12.791 2.322 1.728z" data-name="Path 2437" transform="translate(-18.782 -124.87)"/>
                <g id="prefix__XMLID_536_" transform="translate(4.959 4.732)">
                    <g id="prefix__Group_2554" data-name="Group 2554">
                        <path id="prefix__Path_2438" d="M113.606 143.677v8.057l-3.349-.176h-1.451l-.321.106a13.554 13.554 0 0 1-7.073.382l-1.249-.266h-4.031l-2.651 1.758a1.852 1.852 0 0 1-2.321-2.864l2.729-2.682 3.82-2.16a1 1 0 0 0 .307-.269l3.432-4.54 4.8 2.655h7.358z" class="prefix__cls-1" data-name="Path 2438" transform="translate(-90.606 -141.022)"/>
                    </g>
                </g>
                <path id="prefix__Path_2439" d="M110.311 285.634h-1.451l-.321.106a13.555 13.555 0 0 1-7.073.382l-1.249-.266h-3.372a2.185 2.185 0 0 0-1.208.364l-2.1 1.394a1.843 1.843 0 0 1-2.636-.635 1.851 1.851 0 0 0 2.583 2.541l2.651-1.758h4.032l1.249.266a13.554 13.554 0 0 0 7.073-.382l.321-.106h1.451l3.349.176v-1.909z" class="prefix__cls-3" data-name="Path 2439" transform="translate(-85.648 -272.272)"/>
                <g id="prefix__XMLID_538_" transform="translate(14.114)">
                    <g id="prefix__Group_2555" data-name="Group 2555">
                        <path id="prefix__Path_2440" fill="#f9f7f8" d="M247.514 62.558a.906.906 0 0 1 .177 1.269l-1.349 1.783-2.324-1.729 1.362-1.8a.905.905 0 0 1 1.268-.177z" data-name="Path 2440" transform="translate(-244.018 -61.72)"/>
                    </g>
                </g>
                <path id="prefix__Path_2441" fill="#ade194" d="M424.947 178.244a.557.557 0 0 1-.557.557h-3.608a.947.947 0 0 1-.859-1.015v-8.2a.947.947 0 0 1 .859-1.015h3.608a.557.557 0 0 1 .557.557z" data-name="Path 2441" transform="translate(-395.312 -162.194)"/>
            </g>
            <path id="prefix__Path_2442" d="M49.933 114.044v-4.967h-.657a1.674 1.674 0 0 0-1.083.4l-4.754 4.023a3.081 3.081 0 0 0-1.091 2.353v5.821a1.454 1.454 0 0 0 2.8.551l.079-.194a1.854 1.854 0 0 1 .553-1.393l.118-1.143.349-3.39z" class="prefix__cls-1" data-name="Path 2442" transform="translate(-40.269 -106.251)"/>
            <path id="prefix__Path_2443" d="M44.367 122.7a1.451 1.451 0 0 1-.426-1.029v-5.821a3.081 3.081 0 0 1 1.091-2.353l4.9-4.42h-.657a1.674 1.674 0 0 0-1.083.4l-4.753 4.023a3.081 3.081 0 0 0-1.091 2.353v5.821a1.454 1.454 0 0 0 2.25 1.217 1.465 1.465 0 0 1-.231-.191z" class="prefix__cls-3" data-name="Path 2443" transform="translate(-40.269 -106.252)"/>
        </g>
        <g id="prefix__Group_2558" data-name="Group 2558" transform="translate(0 54.217)">
            <path id="prefix__Path_2444" d="M19.775 70.251a13.111 13.111 0 0 1-3.468-.268l-1.249-.267a.451.451 0 0 0-.093-.01h-4.031a.448.448 0 0 0-.247.075l-2.653 1.758a1.4 1.4 0 0 1-1.76-2.172l2.687-2.641L12.73 64.6a.449.449 0 0 0 .075-.053l.306-.268a.446.446 0 0 0 .062-.067l3.2-4.231 1.346.744a.448.448 0 0 0 .433-.783l-1.233-.682 1.674-2.215a1.353 1.353 0 0 0-.263-1.9l-.866-.655a1.353 1.353 0 0 0-1.9.263l-2 2.647-.4-.224a1.083 1.083 0 0 0-.523-.135H9.454a2.126 2.126 0 0 0-1.372.5l-2.619 2.222a.448.448 0 1 0 .578.683l2.619-2.217a1.23 1.23 0 0 1 .794-.291h3.183a.185.185 0 0 1 .09.023l.292.162-2.875 3.8-3.935 2.2a.447.447 0 0 0-.227.345l-.452 4.383a2.289 2.289 0 0 0-.574 1.508l-.043.106a1.007 1.007 0 0 1-1.939-.381v-5.821a2.629 2.629 0 0 1 .933-2.011l.675-.571A.448.448 0 1 0 4 61l-.675.571a3.523 3.523 0 0 0-1.25 2.694v5.822a1.9 1.9 0 0 0 .757 1.513L.806 74.279a1.042 1.042 0 0 0-.186.4l-.606 2.783a.623.623 0 0 0 .607.755h15.753a.448.448 0 0 0 0-.9H2.554l.92-.461a1.041 1.041 0 0 0 .362-.3l2.973-3.933a2.279 2.279 0 0 0 1.721-.342l2.538-1.681h3.849l1.2.257a14.008 14.008 0 0 0 3.7.287.448.448 0 1 0-.05-.894zm-7.288-6.62l-.237.208-3.78 2.138a.448.448 0 0 0-.093.07L7.5 66.9l5.755-7.6 1.605 1.195zm2.164-6.182l1.605 1.195-.856 1.133-1.605-1.195zm1.629-2.155a.455.455 0 0 1 .3-.177.463.463 0 0 1 .064 0 .454.454 0 0 1 .275.093l.866.655a.458.458 0 0 1 .089.641L16.8 57.93l-1.605-1.195zM8.8 63.7l-2.132 2.82.178-1.729zM1.39 75.358l1.1 1-1.477.741zm1.867.483l-1.49-1.348 1.912-2.53a1.9 1.9 0 0 0 1.576-.463 2.316 2.316 0 0 0 .7.77z" data-name="Path 2444" transform="translate(0 -54.217)"/>
            <path id="prefix__Path_2445" d="M332 171.3h-4.1c-.223 0-.411-.26-.411-.567v-8.2c0-.307.188-.567.411-.567h4.1a.448.448 0 0 0 0-.9h-4.1a1.333 1.333 0 0 0-1.243 1.012h-3.511l-1.336-.739a.448.448 0 0 0-.433.783l1.437.795a.448.448 0 0 0 .217.056h3.562v6.985h-1a.447.447 0 0 0-.14.022l-.321.106a13.146 13.146 0 0 1-1.536.4.448.448 0 1 0 .175.878 14.057 14.057 0 0 0 1.641-.432l.253-.083h.937a1.377 1.377 0 0 0 1.3 1.34H332a.447.447 0 1 0 0-.895z" data-name="Path 2445" transform="translate(-301.978 -154.693)"/>
        </g>
    </g>
</svg>
