<svg xmlns="http://www.w3.org/2000/svg" width="24.532" height="24.534" viewBox="0 0 24.532 24.534">
    <path id="prefix__home_fill" fill="red" d="M23.873 10.671L13.863.661a2.258 2.258 0 0 0-3.194 0l-10 10-.01.01a2.258 2.258 0 0 0 1.5 3.848H2.629v7.365a2.646 2.646 0 0 0 2.644 2.643h3.913a.719.719 0 0 0 .719-.719v-5.767a1.207 1.207 0 0 1 1.206-1.206h2.309a1.207 1.207 0 0 1 1.206 1.206v5.774a.719.719 0 0 0 .719.719h3.915a2.646 2.646 0 0 0 2.64-2.643v-7.366h.37a2.259 2.259 0 0 0 1.6-3.855zm0 0" transform="translate(0 .001)"/>
</svg>
