<svg xmlns="http://www.w3.org/2000/svg" width="20" height="20" viewBox="0 0 20 20">
    <path d="M10 0a10 10 0 0 0-8.674 14.978l-1.288 4a.781.781 0 0 0 .983.983l4-1.288A10 10 0 1 0 10 0zm0 18.437a8.413 8.413 0 0 1-4.466-1.278.782.782 0 0 0-.654-.081l-2.888.93.93-2.888a.782.782 0 0 0-.081-.654A8.438 8.438 0 1 1 10 18.437zM10.977 10A.977.977 0 1 1 10 9.023a.977.977 0 0 1 .977.977zm3.906 0a.977.977 0 1 1-.977-.977.977.977 0 0 1 .977.977zM7.07 10a.977.977 0 1 1-.977-.977.977.977 0 0 1 .977.977zm0 0"/>
</svg>
