<svg xmlns="http://www.w3.org/2000/svg" width="27.23" height="27.688" viewBox="0 0 27.23 27.688">
    <defs>
        <style>
            .prefix__cls-4{stroke:#000;stroke-width:.6px;fill:#fff}
        </style>
    </defs>
    <g id="prefix__price_confirmation" transform="translate(-.112 .3)">
        <path id="prefix__Path_2446" fill="#46b29d" stroke="#000" stroke-width="0.6px" d="M14.1 5L.84 18.371a1.158 1.158 0 0 0 0 1.636l9.366 9.366a1.158 1.158 0 0 0 1.636 0l12.912-13.262V5zm6.077 6.407a1.83 1.83 0 1 1 1.83-1.83 1.831 1.831 0 0 1-1.829 1.83z" data-name="Path 2446" transform="translate(0 -2.712)"/>
        <path id="prefix__Path_2447" fill="#28685c" stroke="#000" stroke-width="0.6px" d="M39.161 7a3.661 3.661 0 1 0 3.661 3.661A3.661 3.661 0 0 0 39.161 7zm0 5.491a1.83 1.83 0 1 1 1.83-1.83 1.831 1.831 0 0 1-1.83 1.83z" data-name="Path 2447" transform="translate(-18.983 -3.797)"/>
        <path id="prefix__Path_2448" fill="#fdd7ad" stroke="#000" stroke-width="0.6px" d="M42.957 7.322a.458.458 0 0 1-.324-.781L49.041.134a.458.458 0 0 1 .647.647l-6.407 6.407a.456.456 0 0 1-.324.134z" data-name="Path 2448" transform="translate(-22.779)"/>
        <path id="prefix__Path_2449" d="M18.511 32.467a3.41 3.41 0 0 1-2.411-5.821.458.458 0 0 1 .647.647 2.5 2.5 0 0 0 1.973 4.25 1.354 1.354 0 0 0 .944-.507 1.493 1.493 0 0 0 .32-1.12l-.607-4.853a2.413 2.413 0 0 1 .517-1.81 2.261 2.261 0 0 1 1.579-.842 3.41 3.41 0 0 1 2.7 5.809.458.458 0 0 1-.647-.647 2.5 2.5 0 0 0-1.973-4.25 1.354 1.354 0 0 0-.944.507 1.493 1.493 0 0 0-.32 1.12l.607 4.853a2.413 2.413 0 0 1-.517 1.81 2.259 2.259 0 0 1-1.579.842c-.1.009-.194.012-.289.012z" class="prefix__cls-4" data-name="Path 2449" transform="translate(-7.92 -12.15)"/>
        <path id="prefix__Path_2450" d="M15.99 32.677a.458.458 0 0 1-.324-.781l8.611-8.611a.458.458 0 0 1 .647.647l-8.611 8.611a.457.457 0 0 1-.323.134z" class="prefix__cls-4" data-name="Path 2450" transform="translate(-8.153 -12.556)"/>
    </g>
</svg>
