<svg xmlns="http://www.w3.org/2000/svg" width="25.5" height="25.207" viewBox="0 0 25.5 25.207">
    <defs>
        <style>
            .prefix__cls-2,.prefix__cls-3,.prefix__cls-4,.prefix__cls-6{stroke:#000;stroke-width:.5px}.prefix__cls-2{fill:#0071bc}.prefix__cls-3{fill:#b3b3b3}.prefix__cls-4{fill:#29abe2}.prefix__cls-6{fill:#fbb03b}
        </style>
    </defs>
    <g id="prefix__new_car_pencil_print" transform="translate(-3.75 .045)">
        <path id="prefix__Path_2493" fill="#e6e6e6" stroke="#000" stroke-width="0.5px" d="M308.855 216v2.566l-.855.855.855.855v3.424l-.855.855.855.855-.855.855 2.994 2.994 2.139-2.139V216z" data-name="Path 2493" transform="translate(-287.746 -204.451)"/>
        <path id="prefix__Path_2494" d="M300 160h6.844v3.422H300z" class="prefix__cls-2" data-name="Path 2494" transform="translate(-280.174 -151.445)"/>
        <g id="prefix__Group_2564" data-name="Group 2564" transform="translate(23.248 11.976)">
            <path id="prefix__Path_2495" d="M364 224h.855v8.982H364z" class="prefix__cls-3" data-name="Path 2495" transform="translate(-364 -224)"/>
            <path id="prefix__Path_2496" d="M364 408h.855v.855H364z" class="prefix__cls-3" data-name="Path 2496" transform="translate(-364 -398.162)"/>
        </g>
        <ellipse id="prefix__Ellipse_142" cx="5.5" cy="5" class="prefix__cls-4" data-name="Ellipse 142" rx="5.5" ry="5" transform="translate(18 .205)"/>
        <circle id="prefix__Ellipse_143" cx="2" cy="2" r="2" fill="#f2f2f2" stroke="#000" stroke-width="0.5px" data-name="Ellipse 143" transform="translate(21 1.205)"/>
        <path id="prefix__Path_2497" d="M76 65.838l.971-5.584A5.133 5.133 0 0 1 82.028 56h2.527v9.838z" class="prefix__cls-6" data-name="Path 2497" transform="translate(-68.15 -53.006)"/>
        <path id="prefix__Path_2498" d="M116 103.7l.807-4.84a3.422 3.422 0 0 1 3.375-2.86h2.234v7.7z" class="prefix__cls-4" data-name="Path 2498" transform="translate(-106.012 -90.867)"/>
        <path id="prefix__Path_2499" fill="#754c24" stroke="#000" stroke-width="0.5px" d="M44 208h.855v2.566H44z" data-name="Path 2499" transform="translate(-37.861 -196.879)"/>
        <path id="prefix__Path_2500" d="M324 120h4.277v.855H324z" class="prefix__cls-6" data-name="Path 2500" transform="translate(-302.891 -113.584)"/>
        <path id="prefix__Path_2501" fill="gray" stroke="#000" stroke-width="0.5px" d="M76 392h5.133v3.85H76z" data-name="Path 2501" transform="translate(-68.15 -371.041)"/>
        <path id="prefix__Path_2504" d="M63.549 368H52l.266 1.063a.856.856 0 0 0 .83.648h10.453z" class="prefix__cls-6" data-name="Path 2504" transform="translate(-45.434 -348.325)"/>
        <path id="prefix__Path_2505" d="M40.832 240H29.283A1.283 1.283 0 0 0 28 241.283v4.277a1.283 1.283 0 0 0 1.283 1.283h11.549z" class="prefix__cls-2" data-name="Path 2505" transform="translate(-22.717 -227.168)"/>
        <ellipse id="prefix__Ellipse_144" cx="1.5" cy="1" class="prefix__cls-6" data-name="Ellipse 144" rx="1.5" ry="1" transform="translate(7 15.205)"/>
        <path id="prefix__Path_2506" d="M140 272h6.844v3.422H140z" class="prefix__cls-4" data-name="Path 2506" transform="translate(-128.729 -257.457)"/>
        <path id="prefix__Path_2507" fill="#80caec" stroke="#000" stroke-width="0.5px" d="M140 296h6.844v.855H140z" data-name="Path 2507" transform="translate(-128.729 -280.174)"/>
        <g id="prefix__Group_2566" data-name="Group 2566" transform="translate(4 8.982)">
            <path id="prefix__Path_2509" fill="#f7931e" stroke="#000" stroke-width="0.5px" d="M6.566 170.566H4.428a.428.428 0 0 1-.428-.427v-1.711a.428.428 0 0 1 .428-.428h2.138a.428.428 0 0 1 .428.428v1.711a.428.428 0 0 1-.428.427z" data-name="Path 2509" transform="translate(-4 -168)"/>
        </g>
    </g>
</svg>
