<svg xmlns="http://www.w3.org/2000/svg" width="4.417" height="16.417" viewBox="0 0 4.417 16.417">
    <g>
        <path d="M14.209 157.494a2.209 2.209 0 1 1 2.209-2.209 2.217 2.217 0 0 1-2.209 2.209zm0-3.331a1.122 1.122 0 1 0 1.122 1.122 1.128 1.128 0 0 0-1.122-1.122z" data-name="Path 111" transform="rotate(90 78.747 78.747)"/>
        <path d="M8.209 157.494a2.209 2.209 0 1 1 2.209-2.209 2.217 2.217 0 0 1-2.209 2.209zm0-3.331a1.122 1.122 0 1 0 1.122 1.122 1.128 1.128 0 0 0-1.122-1.122z" data-name="Path 112" transform="rotate(90 78.747 78.747)"/>
        <path d="M2.209 157.494a2.209 2.209 0 1 1 2.209-2.209 2.217 2.217 0 0 1-2.209 2.209zm0-3.331a1.122 1.122 0 1 0 1.122 1.122 1.128 1.128 0 0 0-1.122-1.122z" data-name="Path 113" transform="rotate(90 78.747 78.747)"/>
    </g>
</svg>
