<svg xmlns="http://www.w3.org/2000/svg" width="26" height="26" viewBox="0 0 26 26">
    <g>
        <path d="M24.694 13l1.242-2.949a.813.813 0 0 0-.257-.962L23.13 7.152l-.4-3.175a.813.813 0 0 0-.7-.7l-3.175-.4L16.912.321a.813.813 0 0 0-.962-.257L13 1.306 10.051.064a.813.813 0 0 0-.962.257L7.152 2.87l-3.175.4a.813.813 0 0 0-.7.7l-.4 3.175L.321 9.088a.813.813 0 0 0-.257.962L1.306 13 .064 15.949a.813.813 0 0 0 .257.962l2.549 1.937.4 3.175a.813.813 0 0 0 .7.7l3.175.4 1.936 2.549a.812.812 0 0 0 .654.328c.233 0 .1.026 3.265-1.306l2.949 1.242a.813.813 0 0 0 .962-.257l1.936-2.549 3.175-.4a.813.813 0 0 0 .7-.7l.4-3.175 2.549-1.936a.813.813 0 0 0 .257-.962zm-2.757 0A8.937 8.937 0 1 1 13 4.063 8.947 8.947 0 0 1 21.937 13z" data-name="Path 2317"/>
        <path d="M13 5.685a7.312 7.312 0 1 0 7.312 7.312A7.321 7.321 0 0 0 13 5.685zM8.531 10.56a1.625 1.625 0 1 1 1.625 1.625 1.627 1.627 0 0 1-1.624-1.622zm2.266 7a.813.813 0 0 1-1.283-1l5.687-7.312a.813.813 0 0 1 1.283 1zm5.046.314a1.625 1.625 0 1 1 1.625-1.625 1.627 1.627 0 0 1-1.624 1.626z" data-name="Path 2318"/>
    </g>
</svg>
