<svg xmlns="http://www.w3.org/2000/svg" width="12" height="12" viewBox="0 0 12 12">
    <defs>
        <style>
            .prefix__cls-1{fill:#fff}.prefix__cls-4{fill:#aaa3a3}.prefix__cls-3,.prefix__cls-4{stroke:none}
        </style>
    </defs>
    <g id="prefix__week" transform="translate(-1245 -703)">
        <g id="prefix__Path_1682" class="prefix__cls-1" data-name="Path 1682">
            <path d="M2.275 2.275H.425V.425h1.85v1.85z" class="prefix__cls-3" transform="translate(1249.5 710.3)"/>
            <path d="M.85.85v1h1v-1h-1M0 0h2.7v2.7H0V0z" class="prefix__cls-4" transform="translate(1249.5 710.3)"/>
        </g>
        <g id="prefix__Path_1683" class="prefix__cls-1" data-name="Path 1683">
            <path d="M2.275 2.275H.425V.425h1.85v1.85z" class="prefix__cls-3" transform="translate(1246.5 710.3)"/>
            <path d="M.85.85v1h1v-1h-1M0 0h2.7v2.7H0V0z" class="prefix__cls-4" transform="translate(1246.5 710.3)"/>
        </g>
        <g id="prefix__Path_1684" class="prefix__cls-1" data-name="Path 1684">
            <path d="M2.275 1.887H.425V.425h1.85v1.462z" class="prefix__cls-3" transform="translate(1246.5 707.688)"/>
            <path d="M.85.85v.612h1V.85h-1M0 0h2.7v2.312H0V0z" class="prefix__cls-4" transform="translate(1246.5 707.688)"/>
        </g>
        <g id="prefix__Path_1685" class="prefix__cls-1" data-name="Path 1685">
            <path d="M2.275 1.887H.425V.425h1.85v1.462z" class="prefix__cls-3" transform="translate(1249.5 707.688)"/>
            <path d="M.85.85v.612h1V.85h-1M0 0h2.7v2.312H0V0z" class="prefix__cls-4" transform="translate(1249.5 707.688)"/>
        </g>
        <g id="prefix__Path_1686" class="prefix__cls-1" data-name="Path 1686">
            <path d="M2.275 1.887H.425V.425h1.85v1.462z" class="prefix__cls-3" transform="translate(1252.5 707.688)"/>
            <path d="M.85.85v.612h1V.85h-1M0 0h2.7v2.312H0V0z" class="prefix__cls-4" transform="translate(1252.5 707.688)"/>
        </g>
        <path id="prefix__today" fill="#aaa3a3" d="M10.594.938h-.562V0h-.938v.938H2.906V0h-.937v.938h-.563A1.408 1.408 0 0 0 0 2.344v8.25A1.408 1.408 0 0 0 1.406 12h9.188A1.408 1.408 0 0 0 12 10.594v-8.25A1.408 1.408 0 0 0 10.594.938zm-9.187.938h.563v.938h.938v-.939h6.186v.938h.938v-.938h.563a.469.469 0 0 1 .469.469v1.125H.938V2.344a.469.469 0 0 1 .468-.469zm9.188 9.188H1.406a.469.469 0 0 1-.469-.469V4.406h10.126v6.188a.469.469 0 0 1-.469.469zm-3.187-.984h2.813V7.266H7.406zm.936-1.88h.938v.938h-.938zm0 0" transform="translate(1245 703)"/>
    </g>
</svg>
