<svg xmlns="http://www.w3.org/2000/svg" width="24.571" height="36.115" viewBox="0 0 24.571 36.115">
    <defs>
        <style>
            .prefix__cls-3{fill:#fff}.prefix__cls-5{fill:#edb740}.prefix__cls-6{fill:#cc9a40}.prefix__cls-9{fill:#f9b691}.prefix__cls-11{fill:#efc69a}.prefix__cls-12{fill:#284268}
        </style>
    </defs>
    <g id="prefix__finance_details" transform="translate(-29 -478)">
        <path id="prefix__Path_1206" fill="#50dd5a" d="M338.09 382.8l-1.013 8.309h-5.267l.662-2.172 1.436-4.709.435-1.428z" data-name="Path 1206" transform="translate(-284.959 122.564)"/>
        <path id="prefix__Path_1207" fill="#49c160" d="M333.572 389.641l.662-2.172 1.424-4.669h-1.314l-.435 1.428-1.436 4.709-.662 2.172h5.267l.179-1.468z" data-name="Path 1207" transform="translate(-284.959 122.564)"/>
        <path id="prefix__Path_1208" d="M124.932 376.455a1.866 1.866 0 0 1 1.24-.468h2.528a3.007 3.007 0 0 0 1.307-.3l.26-.126a4.2 4.2 0 0 1 4.355.426l.629.559a2.468 2.468 0 0 0 1.191.583h.012l-1.436 4.709-2.055-1.3a1.411 1.411 0 0 0-1.033-.137l-3.794.7a4.6 4.6 0 0 1-2.858-.4l-6.564-4.507a1.521 1.521 0 0 1 2.026-.554l.334.181 2.786 1.5.462.244a1.869 1.869 0 0 1 .614-1.111z" class="prefix__cls-3" data-name="Path 1208" transform="translate(-87.502 129.66)"/>
        <path id="prefix__Path_1209" fill="#efc597" d="M133.694 383.047a1.411 1.411 0 0 0-1.033-.137l-3.794.7a4.6 4.6 0 0 1-2.858-.4l-5.088-3.493-.184-.1a1.521 1.521 0 0 0-2.026.554l6.564 4.507a4.6 4.6 0 0 0 2.858.4l3.794-.7a1.411 1.411 0 0 1 1.033.137l2.055 1.3.494-1.62z" data-name="Path 1209" transform="translate(-87.502 125.688)"/>
        <path id="prefix__Path_1210" d="M153.136 184.129a6.177 6.177 0 0 1-.266 7.643 7.368 7.368 0 0 1-11.249 0 6.178 6.178 0 0 1-.266-7.643l1.671-2.279a5.856 5.856 0 0 1 1.529.669 3.938 3.938 0 0 0 1.486.526 10.3 10.3 0 0 0 1.61.094h3.07a1.051 1.051 0 0 0 1.038-.888z" class="prefix__cls-5" data-name="Path 1210" transform="translate(-107.377 308.764)"/>
        <path id="prefix__Path_1211" d="M205.281 20.1a11.29 11.29 0 0 0-1.433-3.418L203.42 16l6.647.07a11.775 11.775 0 0 0-1.616 4.386l-.012.076-.089.577v.029l-2.271.042a.878.878 0 0 1-.808-.8v-.28z" class="prefix__cls-5" data-name="Path 1211" transform="translate(-165.994 462.44)"/>
        <path id="prefix__Path_1212" d="M143.089 191.773a6.178 6.178 0 0 1-.266-7.643l1.343-1.831a5.854 5.854 0 0 0-1.139-.448l-1.671 2.279a6.178 6.178 0 0 0 .266 7.643 7.334 7.334 0 0 0 5.624 2.609q.368 0 .734-.037a7.324 7.324 0 0 1-4.891-2.572z" class="prefix__cls-6" data-name="Path 1212" transform="translate(-107.377 308.764)"/>
        <path id="prefix__Path_1213" d="M206.74 20.383a17.8 17.8 0 0 0-.529-1.964 11.254 11.254 0 0 0-.895-1.74l-.418-.663L203.42 16l.428.679a11.29 11.29 0 0 1 1.433 3.418h-.009v.283a.878.878 0 0 0 .808.8l1.293-.024a.912.912 0 0 1-.633-.773z" class="prefix__cls-6" data-name="Path 1213" transform="translate(-165.994 462.44)"/>
        <path id="prefix__Path_1214" fill="#eee" d="M98.4 72.567v1.224h-3.77V64.14h3.77v8.427z" data-name="Path 1214" transform="translate(-65.189 417.834)"/>
        <path id="prefix__Path_1215" fill="#4689d3" d="M96.1 66.409a.8.8 0 0 1 .8-.8h1.5V64.14h-3.77v9.652h1.47z" data-name="Path 1215" transform="translate(-65.189 417.834)"/>
        <path id="prefix__Path_1216" d="M148.448 58.705a5.861 5.861 0 0 0-1.567-.213h-.871v-7.043h.944a2.924 2.924 0 0 0 1.544-.506c.386-.242.237-1.991 1.988-1.991h1.06a11.177 11.177 0 0 1 .524 1.619l.005.345a.878.878 0 0 0 .808.8l2.271-.042 1.536-.029a.986.986 0 1 1 0 1.972h-.1a1.087 1.087 0 0 1 0 2.173h.032a1.054 1.054 0 1 1 0 2.107h-.481a1.05 1.05 0 0 1 1.05 1.049 1.167 1.167 0 0 1-.012.161 1.051 1.051 0 0 1-1.038.888h-3.07a10.3 10.3 0 0 1-1.61-.094 3.938 3.938 0 0 1-1.486-.526 5.857 5.857 0 0 0-1.527-.67z" class="prefix__cls-9" data-name="Path 1216" transform="translate(-112.798 431.908)"/>
        <path id="prefix__Path_1217" d="M274.353 48.98v.04c0 1.143-.567 2.07-1.71 2.07h-.843l.012-.076a11.692 11.692 0 0 1 .5-2.035z" class="prefix__cls-9" data-name="Path 1217" transform="translate(-229.354 431.881)"/>
        <g id="prefix__Group_417" data-name="Group 417" transform="translate(33.212 480.858)">
            <path id="prefix__Path_1218" d="M274.119 48.98c-.141.409-.366 1.3-.372 1.327l2.1-.006a2.566 2.566 0 0 0 .306-1.281v-.04z" class="prefix__cls-3" data-name="Path 1218" transform="translate(-264.371 -48.978)"/>
            <path id="prefix__Path_1219" d="M151.975 50.2a11.154 11.154 0 0 0-.428-1.251h-1.06c-1.751 0-1.6 1.749-1.988 1.991a2.924 2.924 0 0 1-1.544.506h-.944v1.324h.944a2.924 2.924 0 0 0 1.544-.506c.386-.241.237-1.991 1.988-1.991h1.06" class="prefix__cls-3" data-name="Path 1219" transform="translate(-146.01 -48.95)"/>
            <path id="prefix__Path_1220" fill="#e5a889" d="M228.656 84.62v.37h-.009v.283a.878.878 0 0 0 .808.8l2.271-.042 1.54-.031a.983.983 0 0 1 .7.288l.033.037a.985.985 0 0 0-.73-1.646l-1.536.029-2.271.042a.731.731 0 0 1-.426-.143" data-name="Path 1220" transform="translate(-222.584 -81.99)"/>
        </g>
        <path id="prefix__Path_1221" d="M182.67 373.5h-.56a1.866 1.866 0 0 0-1.24.468l-1.79-.968.022-.041a1.721 1.721 0 0 1 2.08-.272z" class="prefix__cls-11" data-name="Path 1221" transform="translate(-143.44 132.148)"/>
        <path id="prefix__Path_1222" d="M152.931 375.416l1.79.965a1.869 1.869 0 0 0-.614 1.111l-.462-.244-2.786-1.5a1.285 1.285 0 0 1 1.613-.572z" class="prefix__cls-11" data-name="Path 1222" transform="translate(-117.292 129.734)"/>
        <g id="prefix__Group_418" data-name="Group 418" transform="translate(29 478)">
            <path id="prefix__Path_1223" d="M135.407 367.382a.44.44 0 0 0-.33-.148h-3.747a.44.44 0 0 0-.421.312l-.31 1.016a2.022 2.022 0 0 1-.615-.375l-.629-.56-.028-.023a4.623 4.623 0 0 0-4.812-.47l-.26.126a2.576 2.576 0 0 1-1.115.256h-1.853l-1.385-.754a2.163 2.163 0 0 0-2.39.158l-.174-.094-.01-.005a1.691 1.691 0 0 0-1.937.4 1.959 1.959 0 0 0-2.612.714.44.44 0 0 0 .128.59l6.564 4.507a.433.433 0 0 0 .054.032 5.07 5.07 0 0 0 3.134.442l3.794-.7.028-.006a.966.966 0 0 1 .7.089L128.94 374l-.564 1.851a.44.44 0 0 0 .421.569h5.267a.44.44 0 0 0 .437-.387l1.013-8.309a.44.44 0 0 0-.107-.342zm-15.94.146l.01.006.276.15a2.318 2.318 0 0 0-.416.219l-.9-.486a1.279 1.279 0 0 1 1.03.111zm-2.539.077l1.759.948a2.314 2.314 0 0 0-.189.345l-2.269-1.224a.75.75 0 0 1 .7-.069zm10.712 4.535l-.02-.012a1.844 1.844 0 0 0-1.34-.184l-3.78.7a4.182 4.182 0 0 1-2.557-.351l-6.129-4.208a1.079 1.079 0 0 1 1.159-.084l3.123 1.685.206.108v.043a.44.44 0 0 0 .44.44h.02l2.153-.1a10.206 10.206 0 0 1 1.859.086.44.44 0 0 0 .121-.873 11.106 11.106 0 0 0-2.02-.093l-1.616.073a1.439 1.439 0 0 1 1.36-.972h2.525a3.461 3.461 0 0 0 1.5-.343l.26-.126a3.746 3.746 0 0 1 3.884.37l.615.547a2.9 2.9 0 0 0 .944.56l-1.136 3.725zm6.034 3.4h-4.282l2.265-7.428h2.924z" class="prefix__cls-12" data-name="Path 1223" transform="translate(-110.947 -340.309)"/>
            <path id="prefix__Path_1224" d="M93.282 23.625v-.784h.43a5.437 5.437 0 0 1 .809.061l-1.269 1.73a6.6 6.6 0 0 0 .285 8.188 7.808 7.808 0 0 0 11.922 0 6.6 6.6 0 0 0 .285-8.188l-1.281-1.747v-.032a1.48 1.48 0 0 0-.247-.82 1.49 1.49 0 0 0 .286-2.346 1.522 1.522 0 0 0 .017-2.136 1.424 1.424 0 0 0-.595-2.386 2.447 2.447 0 0 0 1.143-2.265v-.04a.44.44 0 0 0-.44-.44h-1.4a11.331 11.331 0 0 1 .853-1.679.44.44 0 0 0-.37-.672L97.059 10a.44.44 0 0 0-.377.675l.428.679a10.9 10.9 0 0 1 .59 1.066h-.383a2.134 2.134 0 0 0-2.142 1.769 2.748 2.748 0 0 1-.116.311 2.447 2.447 0 0 1-1.275.416h-.5v-.943a.44.44 0 0 0-.44-.44h-3.775a.44.44 0 0 0-.44.44v9.651a.44.44 0 0 0 .44.44h3.772a.44.44 0 0 0 .44-.44zm11.751 1.529a5.72 5.72 0 0 1-.247 7.1 6.928 6.928 0 0 1-10.577 0 5.72 5.72 0 0 1-.247-7.1l1.486-2.027a5.433 5.433 0 0 1 1.073.5 2.909 2.909 0 0 0-.8 3.036.44.44 0 1 0 .84-.265 2.581 2.581 0 0 1-.074-.915 1.731 1.731 0 0 1 .959-1.421 7.843 7.843 0 0 0 2.458.285h1.026l.1.189a4.213 4.213 0 0 1 .52 2.325l-.009.135a.44.44 0 0 0 .41.469h.029a.44.44 0 0 0 .439-.411l.009-.135a5.091 5.091 0 0 0-.482-2.524c.254.1 1.025.517 1.171 2.067a.44.44 0 0 0 .438.4h.042a.44.44 0 0 0 .4-.48 3.779 3.779 0 0 0-.741-2.061 1.488 1.488 0 0 0 .819-.464zm-.876-11.854a1.252 1.252 0 0 1-1.239 1.229h-.32a11.292 11.292 0 0 1 .309-1.229h1.25zm-5.942-2.409a.444.444 0 0 0 .05.025 1.976 1.976 0 0 1 1.152 1.86.44.44 0 0 0 .367.5.447.447 0 0 0 .069.005.44.44 0 0 0 .435-.372 2.646 2.646 0 0 0-.631-2.007l1.392.015a3.358 3.358 0 0 0-.166 1.66.44.44 0 1 0 .867-.156 2.694 2.694 0 0 1 .241-1.494l.955.01a12.117 12.117 0 0 0-1.294 3.886l-.048.314-1.89.035a.348.348 0 0 1-.24-.127 11.66 11.66 0 0 0-1.614-4.162zm-4.933 4.9h.5a3.324 3.324 0 0 0 1.778-.573 1.285 1.285 0 0 0 .449-.757c.228-.683.454-1.167 1.306-1.167h.762a10.788 10.788 0 0 1 .387 1.249v.273a.433.433 0 0 0 0 .048 1.322 1.322 0 0 0 1.246 1.189h.008l3.8-.071a.545.545 0 1 1 0 1.091h-.907a.449.449 0 0 0-.062 0h-.583a.44.44 0 1 0 0 .881h1.451a.646.646 0 1 1 0 1.292h-1.451a.44.44 0 1 0 0 .881h1.484a.613.613 0 1 1 0 1.227h-2.14a.44.44 0 1 0 0 .881h1.659a.609.609 0 1 1 0 1.218H99.9a5.244 5.244 0 0 1-2.864-.554 6.308 6.308 0 0 0-3.328-.948h-.43zm-.882 7.394h-2.89v-8.771h2.89z" class="prefix__cls-12" data-name="Path 1224" transform="translate(-88.629 -10)"/>
            <path id="prefix__Path_1225" d="M221.519 248.616a.557.557 0 0 1 .557.556.44.44 0 0 0 .881 0 1.439 1.439 0 0 0-1-1.367v-.177a.44.44 0 1 0-.881 0v.177a1.437 1.437 0 0 0 .44 2.805.556.556 0 1 1 .007 1.113h-.015a.557.557 0 0 1-.549-.556.44.44 0 0 0-.881 0 1.44 1.44 0 0 0 1 1.368v.222a.44.44 0 0 0 .881 0v-.222a1.437 1.437 0 0 0-.44-2.805.557.557 0 1 1 0-1.113z" class="prefix__cls-12" data-name="Path 1225" transform="translate(-210.433 -229.778)"/>
        </g>
    </g>
</svg>
