<svg xmlns="http://www.w3.org/2000/svg" width="18.024" height="18.024" viewBox="0 0 18.024 18.024">
    <defs>
        <style>
            .prefix__cls-1{fill:#ff637b}.prefix__cls-2{fill:#e63950}.prefix__cls-3{fill:#ffda2d}.prefix__cls-4{fill:#fdbf00}.prefix__cls-5{fill:#ff9100}
        </style>
    </defs>
    <g id="prefix__potential_incentive">
        <path id="prefix__Path_1879" d="M6.9 169.6a5.078 5.078 0 0 0-.56.021h-.031A7.338 7.338 0 0 0 0 176.9c0 4.256 3.953 4.752 6.9 4.752 2.925 0 6.337-.443 6.812-3.939.5-4.1-2.756-8.114-6.812-8.114zm0 0" class="prefix__cls-1" data-name="Path 1879" transform="translate(0 -163.632)"/>
        <path id="prefix__Path_1880" d="M202.812 177.716c-.475 3.5-3.886 3.939-6.812 3.939V169.6c4.055 0 7.308 4.019 6.812 8.116zm0 0" class="prefix__cls-2" data-name="Path 1880" transform="translate(-189.1 -163.632)"/>
        <path id="prefix__Path_1881" d="M98.326 1.753l-1.056 3.2h-5.217L91 1.753a.509.509 0 0 1 .063-.475.551.551 0 0 1 .433-.222h1.679a1.578 1.578 0 0 1 2.978 0h1.677a.551.551 0 0 1 .433.222.509.509 0 0 1 .063.475zm0 0" class="prefix__cls-1" data-name="Path 1881" transform="translate(-87.761)"/>
        <path id="prefix__Path_1882" d="M199.665 1.753l-1.056 3.2H196V0a1.59 1.59 0 0 1 1.489 1.056h1.679a.551.551 0 0 1 .433.222.509.509 0 0 1 .063.475zm0 0" class="prefix__cls-2" data-name="Path 1882" transform="translate(-189.1)"/>
        <path id="prefix__Path_1883" d="M153.867 246.911a1.566 1.566 0 0 1-1.046 1.479v.475a.528.528 0 1 1-1.056 0v-.465a1.6 1.6 0 0 1-1.067-1.489.53.53 0 0 1 .528-.528.523.523 0 0 1 .528.528.536.536 0 0 0 .528.528h.011a.527.527 0 0 0 .517-.528.521.521 0 0 0-.517-.528h-.011a1.6 1.6 0 0 1-1.582-1.583 1.578 1.578 0 0 1 1.067-1.489v-.781a.528.528 0 1 1 1.056 0v.781a1.58 1.58 0 0 1 1.046 1.489.529.529 0 0 1-.528.528.537.537 0 0 1-.528-.528.521.521 0 0 0-.517-.528h-.011a.53.53 0 0 0-.528.528.537.537 0 0 0 .528.528h.011a1.58 1.58 0 0 1 1.571 1.583zm0 0" class="prefix__cls-3" data-name="Path 1883" transform="translate(-145.394 -233.481)"/>
        <path id="prefix__Path_1884" d="M308.428 273.056a1.059 1.059 0 0 1-1.056 1.056l-2.675 1.056-2.64-1.056a1.056 1.056 0 1 1 0-2.112h5.316a1.059 1.059 0 0 1 1.055 1.056zm0 0" class="prefix__cls-3" data-name="Path 1884" transform="translate(-290.404 -262.425)"/>
        <path id="prefix__Path_1885" d="M409.732 273.056a1.059 1.059 0 0 1-1.056 1.056L406 275.168V272h2.675a1.059 1.059 0 0 1 1.057 1.056zm0 0" class="prefix__cls-4" data-name="Path 1885" transform="translate(-391.707 -262.425)"/>
        <path id="prefix__Path_1886" d="M308.428 333.056a1.059 1.059 0 0 1-1.056 1.056l-2.675 1.056-2.64-1.056a1.056 1.056 0 1 1 0-2.112h5.316a1.059 1.059 0 0 1 1.055 1.056zm0 0" class="prefix__cls-4" data-name="Path 1886" transform="translate(-290.404 -320.313)"/>
        <path id="prefix__Path_1887" d="M409.732 333.056a1.059 1.059 0 0 1-1.056 1.056L406 335.168V332h2.675a1.059 1.059 0 0 1 1.057 1.056zm0 0" class="prefix__cls-5" data-name="Path 1887" transform="translate(-391.707 -320.313)"/>
        <path id="prefix__Path_1888" d="M308.428 393.056a1.059 1.059 0 0 1-1.056 1.056l-2.675 1.056-2.64-1.056a1.056 1.056 0 1 1 0-2.112h5.316a1.059 1.059 0 0 1 1.055 1.056zm0 0" class="prefix__cls-3" data-name="Path 1888" transform="translate(-290.404 -378.201)"/>
        <path id="prefix__Path_1889" d="M409.732 393.056a1.059 1.059 0 0 1-1.056 1.056L406 395.168V392h2.675a1.059 1.059 0 0 1 1.057 1.056zm0 0" class="prefix__cls-4" data-name="Path 1889" transform="translate(-391.707 -378.201)"/>
        <path id="prefix__Path_1890" d="M308.428 453.056a1.059 1.059 0 0 1-1.056 1.056h-5.316a1.056 1.056 0 0 1 0-2.112h5.316a1.059 1.059 0 0 1 1.056 1.056zm0 0" class="prefix__cls-4" data-name="Path 1890" transform="translate(-290.404 -436.088)"/>
        <path id="prefix__Path_1891" d="M409.732 453.056a1.059 1.059 0 0 1-1.056 1.056H406V452h2.675a1.059 1.059 0 0 1 1.057 1.056zm0 0" class="prefix__cls-5" data-name="Path 1891" transform="translate(-391.707 -436.088)"/>
        <path id="prefix__Path_1892" d="M98.393 122.056a1.059 1.059 0 0 1-1.056 1.056h-5.28a1.056 1.056 0 1 1 0-2.112h5.28a1.059 1.059 0 0 1 1.056 1.056zm0 0" class="prefix__cls-3" data-name="Path 1892" transform="translate(-87.796 -116.741)"/>
        <g id="prefix__Group_1619" data-name="Group 1619" transform="translate(6.9 4.259)">
            <path id="prefix__Path_1893" d="M197.573 338.084a1.566 1.566 0 0 1-1.046 1.479v.475a.523.523 0 0 1-.528.528v-1.954a.527.527 0 0 0 .517-.528.521.521 0 0 0-.517-.528V336.5a1.58 1.58 0 0 1 1.574 1.584zm0 0" class="prefix__cls-4" data-name="Path 1893" transform="translate(-196 -328.914)"/>
            <path id="prefix__Path_1894" d="M197.573 244.8a.529.529 0 0 1-.528.528.537.537 0 0 1-.528-.528.521.521 0 0 0-.517-.528V242a.523.523 0 0 1 .528.528v.781a1.58 1.58 0 0 1 1.045 1.491zm0 0" class="prefix__cls-4" data-name="Path 1894" transform="translate(-196 -237.74)"/>
            <path id="prefix__Path_1895" d="M199.7 122.056a1.059 1.059 0 0 1-1.056 1.056H196V121h2.64a1.059 1.059 0 0 1 1.06 1.056zm0 0" class="prefix__cls-4" data-name="Path 1895" transform="translate(-196 -121)"/>
        </g>
    </g>
</svg>
