<svg xmlns="http://www.w3.org/2000/svg" width="23.342" height="22.564" viewBox="0 0 23.342 22.564">
    <g transform="translate(-2 -4)">
        <path d="M13.671 9.835a.389.389 0 0 0-.389.389v2.723h1.167a1.274 1.274 0 0 1 .389.066v-2.789a.389.389 0 0 0-.389-.389z" data-name="Path 2451"/>
        <path d="M11.337 9.835a.389.389 0 0 0-.389.389v2.723h1.556v-2.723a.389.389 0 0 0-.389-.389z" data-name="Path 2452"/>
        <rect width="2" height="5" data-name="Rectangle 908" rx="1" transform="translate(18 10)"/>
        <path d="M7.944 10.116a4.049 4.049 0 0 1 .3.5h1.179a4.662 4.662 0 0 1 7.325-1.556h.031a1.157 1.157 0 0 1 .778.3 1.157 1.157 0 0 1 .778-.3h.778a1.145 1.145 0 0 1 .436.086l1.054-1.755-1.762-1.769-1.895 1.136a.985.985 0 0 1-.494.136 1.006 1.006 0 0 1-.4-.082c-.008 0-.012 0-.019-.008a.975.975 0 0 1-.58-.665L14.923 4h-2.505l-.533 2.14a.975.975 0 0 1-.58.665c-.008 0-.012.008-.019.008a.976.976 0 0 1-.887-.054l-1.9-1.136-1.765 1.765L7.87 9.283a.991.991 0 0 1 .074.833z" data-name="Path 2453"/>
        <rect width="2" height="5" data-name="Rectangle 909" rx="1" transform="translate(15 10)"/>
        <path d="M4.723 14.114H3.206a2.736 2.736 0 0 0 1.906.778 2.708 2.708 0 0 0 1.72-.619 3.138 3.138 0 0 1 .56-.619 2.754 2.754 0 0 0 .245-.467.38.38 0 0 1 .358-.241h2.175v-1.555H7.995a.389.389 0 0 1-.362-.245 2.706 2.706 0 0 0-2.521-1.7 2.736 2.736 0 0 0-1.906.778h1.517a.389.389 0 0 1 .389.389v3.112a.389.389 0 0 1-.389.389z" data-name="Path 2454"/>
        <path d="M20.525 14.85c-.086-.148-.183-.3-.284-.44a1.164 1.164 0 0 1-1.124.871h-.778a1.157 1.157 0 0 1-.778-.3 1.157 1.157 0 0 1-.778.3h-.782a1.144 1.144 0 0 1-.584-.163 2.715 2.715 0 0 1-2.525 1.72h-.074a3.263 3.263 0 0 1 1.229 1.852 4.474 4.474 0 0 1 0 2.128l-.755-.179a3.747 3.747 0 0 0 0-1.762 3.124 3.124 0 0 0-1.762-1.965l-.121-.074h-1.24v-.778h2.723a1.945 1.945 0 0 0 1.945-1.945.374.374 0 0 0-.388-.389h-5.42a2.35 2.35 0 0 0-1.972 2.283l.766 3.069a7.1 7.1 0 0 0 1.84 2.782.4.4 0 0 1 .117.28v3.256a.389.389 0 0 0 .389.389h7a.389.389 0 0 0 .389-.389v-3.143a.382.382 0 0 1 .132-.292 6.639 6.639 0 0 0 2.182-3.217z" data-name="Path 2455"/>
        <path d="M20.284 13.336a3.842 3.842 0 0 1 .988 1.253.385.385 0 0 1 .043.144 2.675 2.675 0 0 0 .914.16 2.736 2.736 0 0 0 1.906-.778h-1.517a.389.389 0 0 1-.389-.389v-3.113a.389.389 0 0 1 .389-.389h1.517a2.715 2.715 0 0 0-3.851.047z" data-name="Path 2456"/>
        <path d="M23.396 23.061V19.95a.389.389 0 0 0-.389-.389h-1.945v.778h1.556v3.112a.389.389 0 0 0 .389.389h2.334v-.779z" data-name="Path 2457"/>
        <path d="M21.062 23.451a.389.389 0 0 0-.389-.389h-1.556v.778h1.167v2.334a.389.389 0 0 0 .389.389h4.668v-.778h-4.279z" data-name="Path 2458"/>
        <path d="M4.723 23.451v-3.112h1.556v-.778H4.334a.389.389 0 0 0-.389.389v3.111H2v.778h2.334a.389.389 0 0 0 .389-.388z" data-name="Path 2459"/>
        <path d="M6.279 23.451v2.334H2v.777h4.668a.389.389 0 0 0 .389-.389V23.84h1.167v-.778H6.668a.389.389 0 0 0-.389.389z" data-name="Path 2460"/>
    </g>
</svg>
