<svg xmlns="http://www.w3.org/2000/svg" width="26.576" height="25.045" viewBox="0 0 26.576 25.045">
    <defs>
        <style>
            .prefix__cls-1{fill:#366db6}.prefix__cls-2{fill:#e7eced}.prefix__cls-3{fill:#dd352e}.prefix__cls-4{fill:#ed8a19}.prefix__cls-5{fill:#28384c}.prefix__cls-6{fill:#2a5e96}.prefix__cls-7{fill:#b02721}.prefix__cls-8{fill:#c6e2f7}.prefix__cls-10{fill:#f2ecbf}.prefix__cls-11{fill:#afb6bb}
        </style>
    </defs>
    <g id="prefix__exchange_details" transform="translate(-735 -3319)">
        <g id="prefix__parking" transform="translate(735 3320.677)">
            <path id="prefix__Path_1241" d="M302.761 216.276h-8.706l-1.843 1.785a6.655 6.655 0 0 0-.708 4.966l.916 3.663a1.375 1.375 0 0 0 1.334 1.041h9.007z" class="prefix__cls-1" data-name="Path 1241" transform="translate(-276.186 -207.57)"/>
            <path id="prefix__Path_1242" d="M428.306 366.345h-3.666l-.916 1.833h4.582z" class="prefix__cls-2" data-name="Path 1242" transform="translate(-401.73 -349.85)"/>
            <path id="prefix__Path_1243" d="M8.7 225.1H0v11h6.508c2.1 0 3.925-.969 4.434-3l.316-1.266a6.6 6.6 0 0 0-.7-4.923z" class="prefix__cls-3" data-name="Path 1243" transform="translate(0 -215.939)"/>
            <path id="prefix__Path_1244" d="M354.478 368.177h-.916a.458.458 0 0 1-.458-.458v-.919a.458.458 0 0 1 .458-.458h.916a.458.458 0 0 1 .458.458v.916a.458.458 0 0 1-.458.461z" class="prefix__cls-4" data-name="Path 1244" transform="translate(-334.775 -349.849)"/>
            <path id="prefix__Path_1245" d="M355.853 439.715h-1.833a.916.916 0 0 1-.916-.916v-1.833h3.666v1.834a.916.916 0 0 1-.917.915z" class="prefix__cls-5" data-name="Path 1245" transform="translate(-334.776 -416.805)"/>
            <path id="prefix__Path_1246" d="M426.473 296.639h-2.291a.458.458 0 0 1 0-.916h2.291a.458.458 0 0 1 0 .916z" class="prefix__cls-6" data-name="Path 1246" transform="translate(-401.73 -282.893)"/>
            <path id="prefix__Path_1247" d="M292.227 191.625h1.36l.473-.458.183-1.375h-2.016a.916.916 0 0 0 0 1.833z" class="prefix__cls-5" data-name="Path 1247" transform="translate(-276.19 -182.461)"/>
            <path id="prefix__Path_1248" d="M44.175 305.467h-1.469a.458.458 0 1 1 0-.916h1.469a.458.458 0 0 1 0 .916z" class="prefix__cls-7" data-name="Path 1248" transform="translate(-40.055 -291.263)"/>
            <path id="prefix__Path_1249" d="M81.832 429.341h-2.384v1.375a1.375 1.375 0 0 0 1.375 1.375h1.833a1.375 1.375 0 0 0 1.375-1.375v-1.792a5.619 5.619 0 0 1-2.199.417z" class="prefix__cls-5" data-name="Path 1249" transform="translate(-75.324 -409.18)"/>
            <path id="prefix__Path_1250" d="M100.31 384.915h-2.749a.458.458 0 1 1 0-.916h2.749a.458.458 0 1 1 0 .916z" class="prefix__cls-4" data-name="Path 1250" transform="translate(-92.063 -366.587)"/>
            <path id="prefix__Path_1251" d="M164.525 200.454h1.366a.916.916 0 1 0 0-1.833h-2.034l.2 1.375z" class="prefix__cls-5" data-name="Path 1251" transform="translate(-155.352 -190.832)"/>
            <path id="prefix__Path_1252" d="M352.982 83.862h-7.789l-.916 6.873h8.706z" class="prefix__cls-8" data-name="Path 1252" transform="translate(-326.406 -82.029)"/>
            <path id="prefix__Path_1253" d="M369.72 48.552h-5.957a1.833 1.833 0 0 0-1.833 1.833h7.789z" class="prefix__cls-1" data-name="Path 1253" transform="translate(-343.145 -48.552)"/>
            <path id="prefix__Path_1254" d="M0 66.207v1.833h7.785a1.833 1.833 0 0 0-1.833-1.833z" class="prefix__cls-3" data-name="Path 1254" transform="translate(0 -65.291)"/>
            <path id="prefix__Path_1255" d="M0 107.932h8.7l-.916-6.415H0z" class="prefix__cls-8" data-name="Path 1255" transform="translate(0 -98.768)"/>
            <g id="prefix__Group_524" data-name="Group 524" transform="translate(0 5.04)">
                <path id="prefix__Path_1256" d="M.92 286.9H0v5.957h.705a1.7 1.7 0 0 0 1.7-1.582l.215-2.55a1.7 1.7 0 0 0-1.7-1.825z" class="prefix__cls-2" data-name="Path 1256" transform="translate(0 -279.566)"/>
                <path id="prefix__Path_1257" d="M247.63 163.983a.458.458 0 0 1-.458-.458v-17.412a.458.458 0 0 1 .916 0v17.412a.458.458 0 0 1-.458.458z" class="prefix__cls-2" data-name="Path 1257" transform="translate(-234.342 -145.655)"/>
            </g>
            <path id="prefix__Path_1261" d="M178.471 270.8a6.67 6.67 0 0 0-.334-.883.436.436 0 0 0-.117.065l-1.389 1.181a.458.458 0 1 0 .593.7z" class="prefix__cls-7" data-name="Path 1261" transform="translate(-167.309 -258.422)"/>
            <path id="prefix__Path_1262" fill="#ebba16" d="M125.42 281.736a1.833 1.833 0 1 1 1.833-1.833 1.835 1.835 0 0 1-1.833 1.833z" data-name="Path 1262" transform="translate(-117.172 -266.157)"/>
            <path id="prefix__Path_1263" d="M72.454 281.736a1.833 1.833 0 1 1 1.833-1.833 1.835 1.835 0 0 1-1.833 1.833z" class="prefix__cls-10" data-name="Path 1263" transform="translate(-66.955 -266.157)"/>
            <path id="prefix__Rectangle_114" d="M0 0H0.916V1.833H0z" class="prefix__cls-11" data-name="Rectangle 114" transform="translate(24.285 16.495)"/>
            <path id="prefix__Path_1264" d="M297.449 261a.445.445 0 0 0-.119-.067 6.693 6.693 0 0 0-.334.886l1.239 1.064a.458.458 0 0 0 .6-.7z" class="prefix__cls-6" data-name="Path 1264" transform="translate(-281.58 -249.91)"/>
            <path id="prefix__Path_1265" d="M331.126 275.254h-3.514a.993.993 0 0 1-.993-.992v-.586a.993.993 0 0 1 1.156-.979l3.514.586a.992.992 0 0 1 .829.979.993.993 0 0 1-.992.992z" class="prefix__cls-10" data-name="Path 1265" transform="translate(-309.666 -261.049)"/>
            <path id="prefix__Path_1266" d="M470.153 278.069h-2.291l.916 2.749h1.375z" class="prefix__cls-11" data-name="Path 1266" transform="translate(-443.577 -266.156)"/>
        </g>
        <g id="prefix__transfer" transform="translate(744.758 3319)">
            <g id="prefix__Group_525" data-name="Group 525">
                <path id="prefix__Path_1267" d="M5.832 0H1.268A1.269 1.269 0 0 0 0 1.268v4.564A1.269 1.269 0 0 0 1.268 7.1h4.564A1.269 1.269 0 0 0 7.1 5.832V1.268A1.269 1.269 0 0 0 5.832 0zm.446 3.208a.253.253 0 0 1-.028.028L4.476 4.757a.254.254 0 0 1-.419-.193V3.8H2.536a.254.254 0 0 1-.254-.254v-.4l-.909.909.909.909v-.4a.254.254 0 0 1 .254-.254H3.3a.254.254 0 1 1 0 .507h-.511v.761a.254.254 0 0 1-.156.234.25.25 0 0 1-.1.019.254.254 0 0 1-.179-.074L.835 4.237a.254.254 0 0 1 0-.359l1.521-1.522a.254.254 0 0 1 .433.179V3.3h1.522a.254.254 0 0 1 .254.254v.463L5.7 3.043l-1.132-.97v.463a.254.254 0 0 1-.254.254H3.55a.254.254 0 0 1 0-.507h.507v-.762a.254.254 0 0 1 .419-.192L6.251 2.85a.254.254 0 0 1 .028.358z" data-name="Path 1267"/>
            </g>
        </g>
    </g>
</svg>
